<svg width="333" height="269" viewBox="0 0 333 269" fill="none" xmlns="http://www.w3.org/2000/svg">
<path d="M280.578 149.354C280.637 127.256 274.103 105.638 261.804 87.2354C249.504 68.833 231.992 54.4742 211.485 45.9769C190.977 37.4795 168.395 35.2257 146.599 39.5006C124.803 43.7756 104.772 54.3872 89.0422 69.992C73.3123 85.5968 62.5907 105.493 58.2348 127.162C53.8788 148.831 56.0845 171.299 64.5724 191.72C73.0603 212.142 87.4488 229.599 105.917 241.883C124.384 254.166 146.101 260.722 168.316 260.722C198.05 260.762 226.582 249.05 247.635 228.165C268.688 207.279 280.538 178.93 280.578 149.354" fill="#FBE6CD"/>
<path d="M51.1352 227.587C49.5865 227.583 48.0737 227.123 46.7879 226.264C45.5021 225.405 44.501 224.186 43.911 222.762C43.3211 221.338 43.1687 219.771 43.4733 218.261C43.7778 216.75 44.5255 215.363 45.622 214.275C46.7184 213.187 48.1145 212.447 49.6337 212.148C51.153 211.848 52.7274 212.004 54.158 212.594C55.5886 213.184 56.8112 214.183 57.6715 215.464C58.5318 216.745 58.9912 218.251 58.9916 219.791C58.9871 221.861 58.1573 223.844 56.6844 225.305C55.2115 226.767 53.2158 227.588 51.1352 227.587ZM51.1352 216.638C50.5082 216.64 49.8958 216.827 49.3754 217.174C48.855 217.522 48.4499 218.016 48.2114 218.593C47.9728 219.169 47.9114 219.804 48.035 220.415C48.1586 221.026 48.4616 221.588 48.9058 222.028C49.3499 222.468 49.9153 222.768 50.5305 222.888C51.1456 223.009 51.7829 222.946 52.3619 222.707C52.9409 222.467 53.4356 222.062 53.7835 221.544C54.1314 221.025 54.3169 220.415 54.3165 219.791C54.3145 218.954 53.9784 218.151 53.3819 217.56C52.7854 216.969 51.9773 216.637 51.1352 216.638Z" fill="#E8EBF6"/>
<path d="M91.4675 259.976C90.4035 259.976 89.3635 259.662 88.479 259.073C87.5944 258.485 86.9051 257.649 86.4981 256.671C86.0911 255.694 85.9847 254.618 86.1923 253.58C86.4 252.542 86.9124 251.588 87.6648 250.84C88.4172 250.091 89.3757 249.582 90.4192 249.375C91.4628 249.169 92.5445 249.274 93.5276 249.679C94.5106 250.084 95.351 250.77 95.9423 251.65C96.5337 252.529 96.8495 253.564 96.8499 254.622C96.8489 256.042 96.2815 257.403 95.2723 258.407C94.2632 259.411 92.8947 259.975 91.4675 259.976V259.976ZM91.4675 252.455C91.0367 252.456 90.6157 252.583 90.2577 252.821C89.8997 253.06 89.6207 253.398 89.4561 253.794C89.2915 254.19 89.2487 254.626 89.3329 255.046C89.4172 255.466 89.6248 255.852 89.9296 256.155C90.2343 256.458 90.6225 256.664 91.0451 256.748C91.4676 256.831 91.9056 256.788 92.3035 256.624C92.7015 256.46 93.0416 256.182 93.2809 255.826C93.5202 255.47 93.6479 255.051 93.6479 254.622C93.6479 254.047 93.4182 253.495 93.0093 253.089C92.6004 252.682 92.0458 252.453 91.4675 252.453V252.455Z" fill="#E8EBF6"/>
<path d="M260.307 259.788C258.758 259.784 257.245 259.323 255.96 258.464C254.674 257.605 253.673 256.387 253.083 254.962C252.493 253.537 252.341 251.971 252.645 250.46C252.95 248.95 253.698 247.563 254.795 246.475C255.891 245.387 257.287 244.647 258.807 244.348C260.326 244.049 261.901 244.204 263.331 244.795C264.762 245.385 265.984 246.384 266.844 247.666C267.704 248.947 268.163 250.453 268.163 251.994C268.158 254.063 267.328 256.045 265.856 257.507C264.383 258.968 262.387 259.788 260.307 259.788V259.788ZM260.307 248.839C259.68 248.84 259.068 249.026 258.547 249.374C258.026 249.721 257.621 250.215 257.382 250.791C257.143 251.368 257.081 252.002 257.205 252.614C257.328 253.225 257.631 253.787 258.074 254.227C258.518 254.668 259.084 254.967 259.699 255.089C260.314 255.21 260.951 255.147 261.53 254.908C262.109 254.669 262.604 254.264 262.952 253.746C263.301 253.227 263.487 252.617 263.487 251.994C263.484 251.156 263.148 250.354 262.552 249.763C261.956 249.172 261.149 248.84 260.307 248.84V248.839Z" fill="#E8EBF6"/>
<path d="M325.191 134.492C324.005 134.488 322.847 134.135 321.863 133.477C320.88 132.819 320.114 131.885 319.663 130.795C319.212 129.704 319.096 128.505 319.33 127.349C319.563 126.192 320.136 125.131 320.976 124.298C321.815 123.466 322.884 122.899 324.047 122.671C325.21 122.442 326.416 122.561 327.511 123.013C328.606 123.465 329.542 124.229 330.2 125.21C330.859 126.191 331.21 127.344 331.211 128.523C331.206 130.108 330.569 131.626 329.441 132.745C328.312 133.864 326.784 134.492 325.191 134.492V134.492ZM325.191 126.109C324.711 126.112 324.243 126.257 323.846 126.524C323.449 126.792 323.14 127.17 322.959 127.612C322.778 128.054 322.732 128.539 322.828 129.006C322.923 129.474 323.156 129.903 323.496 130.239C323.837 130.575 324.269 130.804 324.74 130.895C325.211 130.987 325.698 130.938 326.141 130.755C326.584 130.572 326.962 130.262 327.228 129.865C327.494 129.468 327.636 129.002 327.636 128.525C327.635 128.207 327.571 127.892 327.447 127.598C327.324 127.305 327.143 127.039 326.916 126.815C326.689 126.591 326.42 126.413 326.124 126.293C325.828 126.172 325.511 126.111 325.191 126.113V126.109Z" fill="#E8EBF6"/>
<path d="M219.14 40.3616C217.887 40.3583 216.662 39.9855 215.622 39.2903C214.581 38.5951 213.771 37.6087 213.293 36.4558C212.816 35.3028 212.693 34.035 212.939 32.8124C213.186 31.5898 213.791 30.4674 214.679 29.5868C215.566 28.7063 216.697 28.1072 217.926 27.8651C219.156 27.6231 220.43 27.749 221.588 28.2269C222.746 28.7049 223.735 29.5134 224.432 30.5505C225.128 31.5875 225.499 32.8064 225.499 34.0534C225.495 35.728 224.823 37.3324 223.631 38.515C222.439 39.6975 220.824 40.3616 219.14 40.3616V40.3616ZM219.14 31.499C218.633 31.5001 218.137 31.6509 217.715 31.9322C217.294 32.2136 216.965 32.6129 216.772 33.0797C216.578 33.5466 216.528 34.06 216.628 34.5551C216.728 35.0502 216.973 35.5049 217.332 35.8615C217.692 36.2182 218.149 36.4609 218.647 36.559C219.145 36.6571 219.661 36.6062 220.13 36.4127C220.599 36.2192 221 35.8918 221.282 35.4719C221.564 35.052 221.714 34.5583 221.714 34.0534C221.712 33.3754 221.441 32.7257 220.958 32.2468C220.476 31.7679 219.822 31.499 219.14 31.499V31.499Z" fill="#E8EBF6"/>
<path d="M15.7041 174.433C14.3859 174.436 13.0983 174.829 12.004 175.56C10.9098 176.291 10.0579 177.328 9.55599 178.541C9.0541 179.753 8.92471 181.087 9.18416 182.372C9.44362 183.658 10.0803 184.838 11.0137 185.764C11.9472 186.69 13.1356 187.32 14.4287 187.574C15.7219 187.829 17.0619 187.696 18.2795 187.194C19.497 186.691 20.5375 185.841 21.2695 184.75C22.0015 183.66 22.3921 182.378 22.3922 181.067C22.3909 180.194 22.2169 179.331 21.8802 178.525C21.5434 177.72 21.0504 176.988 20.4294 176.372C19.8083 175.756 19.0714 175.268 18.2606 174.935C17.4499 174.602 16.5812 174.432 15.7041 174.433" fill="#E8EBF6"/>
<path d="M122.513 29.5318C121.112 29.5359 119.744 29.9529 118.581 30.7302C117.418 31.5074 116.512 32.6101 115.979 33.8989C115.446 35.1876 115.308 36.6047 115.584 37.9712C115.86 39.3376 116.537 40.5921 117.529 41.5761C118.521 42.5602 119.784 43.2297 121.159 43.5001C122.533 43.7705 123.957 43.6297 125.252 43.0954C126.546 42.5611 127.652 41.6574 128.43 40.4982C129.208 39.3391 129.623 37.9767 129.623 36.583C129.622 35.6556 129.437 34.7376 129.079 33.8813C128.721 33.0251 128.197 32.2473 127.537 31.5925C126.876 30.9377 126.093 30.4187 125.231 30.0652C124.369 29.7116 123.446 29.5304 122.513 29.5318" fill="#E8EBF6"/>
<path d="M262.134 56.368C260.936 56.3714 259.765 56.728 258.77 57.3928C257.775 58.0576 257.001 59.0008 256.544 60.1033C256.088 61.2058 255.971 62.418 256.207 63.5869C256.443 64.7558 257.022 65.8289 257.87 66.6706C258.719 67.5124 259.8 68.085 260.976 68.3161C262.152 68.5473 263.37 68.4266 264.477 67.9693C265.584 67.512 266.53 66.7387 267.195 65.747C267.86 64.7553 268.215 63.5897 268.215 62.3974C268.214 61.6043 268.056 60.8192 267.75 60.0869C267.443 59.3546 266.995 58.6895 266.431 58.1296C265.866 57.5696 265.196 57.1259 264.459 56.8236C263.722 56.5214 262.932 56.3665 262.134 56.368" fill="#E8EBF6"/>
<path d="M46.7397 102.878C46.0572 102.88 45.3906 103.083 44.8241 103.461C44.2576 103.84 43.8166 104.377 43.5568 105.004C43.297 105.632 43.2301 106.322 43.3645 106.988C43.4989 107.654 43.8286 108.265 44.312 108.744C44.7953 109.223 45.4107 109.549 46.0802 109.68C46.7497 109.812 47.4434 109.743 48.0736 109.483C48.7039 109.222 49.2423 108.782 49.621 108.217C49.9997 107.652 50.2016 106.989 50.2013 106.31C50.2005 105.858 50.1104 105.411 49.936 104.995C49.7617 104.578 49.5065 104.199 49.185 103.881C48.8636 103.562 48.4822 103.309 48.0626 103.137C47.643 102.965 47.1935 102.877 46.7397 102.878" fill="#E8EBF6"/>
<path d="M326.875 92.1448C325.711 92.1481 324.574 92.4944 323.608 93.1401C322.642 93.7857 321.889 94.7016 321.446 95.7722C321.003 96.8428 320.889 98.0199 321.118 99.155C321.347 100.29 321.909 101.332 322.734 102.15C323.558 102.967 324.607 103.523 325.749 103.748C326.891 103.973 328.074 103.856 329.149 103.412C330.224 102.968 331.142 102.217 331.789 101.254C332.435 100.292 332.78 99.1598 332.78 98.002C332.779 97.2316 332.626 96.4689 332.329 95.7575C332.031 95.0461 331.596 94.4 331.048 93.856C330.499 93.312 329.848 92.8809 329.132 92.5873C328.416 92.2937 327.649 92.1433 326.875 92.1448" fill="#E8EBF6"/>
<path d="M12.7792 124.345C12.035 124.345 11.3076 124.565 10.6888 124.976C10.0701 125.387 9.5878 125.972 9.30301 126.656C9.01823 127.34 8.94372 128.092 9.0889 128.818C9.23408 129.544 9.59243 130.211 10.1186 130.734C10.6449 131.258 11.3153 131.614 12.0452 131.759C12.775 131.903 13.5316 131.829 14.2191 131.546C14.9066 131.262 15.4943 130.783 15.9077 130.167C16.3211 129.552 16.5418 128.828 16.5418 128.088C16.5418 127.095 16.1454 126.143 15.4398 125.441C14.7341 124.74 13.7771 124.345 12.7792 124.345" fill="#E8EBF6"/>
<path d="M171.238 17.5616L173.602 15.2131C173.798 15.0183 173.953 14.7872 174.058 14.5329C174.164 14.2787 174.218 14.0062 174.217 13.7312C174.217 13.4561 174.162 13.1838 174.056 12.9298C173.95 12.6758 173.794 12.445 173.599 12.2508C173.403 12.0565 173.171 11.9025 172.915 11.7976C172.659 11.6926 172.385 11.6388 172.109 11.6391C171.832 11.6395 171.559 11.694 171.303 11.7996C171.048 11.9052 170.816 12.0598 170.621 12.2545L168.256 14.6012L165.887 12.2545C165.492 11.8629 164.958 11.6431 164.4 11.6432C163.843 11.6433 163.308 11.8634 162.913 12.2551C162.519 12.6469 162.297 13.1783 162.295 13.7328C162.294 14.2873 162.514 14.8197 162.907 15.2131L165.272 17.5616L162.907 19.9082C162.512 20.3013 162.29 20.8344 162.29 21.3903C162.29 21.9462 162.512 22.4793 162.907 22.8724C163.302 23.2655 163.838 23.4863 164.397 23.4863C164.956 23.4863 165.492 23.2655 165.887 22.8724L168.256 20.5202L170.621 22.8724C171.016 23.2657 171.552 23.4868 172.111 23.487C172.67 23.4871 173.206 23.2664 173.601 22.8733C173.997 22.4803 174.219 21.947 174.219 21.391C174.219 20.8349 173.998 20.3016 173.602 19.9082L171.238 17.5616Z" fill="#E8EBF6"/>
<path d="M8.94797 87.326L11.3146 84.9775C11.7088 84.584 11.9297 84.0507 11.9286 83.4952C11.9276 82.9397 11.7047 82.4073 11.309 82.0152C10.9133 81.6231 10.3773 81.4035 9.81879 81.4045C9.26028 81.4056 8.72508 81.6273 8.3309 82.0208L5.96611 84.3675L3.59943 82.0208C3.20499 81.6288 2.67028 81.4084 2.11267 81.4081C1.55505 81.4077 1.02008 81.6275 0.625159 82.019C0.230242 82.4106 0.00764459 82.9421 0.00622065 83.4967C0.00479671 84.0514 0.224663 84.5839 0.617564 84.9775L2.98424 87.326L0.617564 89.6727C0.222145 90.066 0 90.5994 0 91.1557C0 91.4311 0.0545379 91.7038 0.1605 91.9583C0.266462 92.2127 0.421772 92.444 0.617564 92.6387C0.813356 92.8335 1.0458 92.9879 1.30161 93.0933C1.55742 93.1987 1.8316 93.253 2.1085 93.253C2.6677 93.253 3.20401 93.032 3.59943 92.6387L5.96611 90.2865L8.3309 92.6387C8.5267 92.8336 8.75916 92.9882 9.01502 93.0937C9.27088 93.1992 9.54513 93.2536 9.82211 93.2537C10.0991 93.2537 10.3734 93.1996 10.6293 93.0942C10.8852 92.9889 11.1178 92.8344 11.3137 92.6396C11.5096 92.4449 11.6651 92.2137 11.7711 91.9592C11.8772 91.7047 11.9319 91.4319 11.9319 91.1563C11.932 90.8808 11.8776 90.608 11.7716 90.3534C11.6657 90.0989 11.5104 89.8675 11.3146 89.6727L8.94797 87.326Z" fill="#E8EBF6"/>
<path d="M288.878 231.32L290.881 229.332C291.051 229.168 291.187 228.972 291.279 228.756C291.372 228.54 291.421 228.307 291.423 228.071C291.424 227.836 291.379 227.603 291.289 227.385C291.199 227.167 291.067 226.97 290.899 226.803C290.731 226.637 290.532 226.506 290.313 226.417C290.094 226.328 289.86 226.283 289.623 226.285C289.386 226.287 289.153 226.336 288.935 226.429C288.718 226.522 288.521 226.657 288.357 226.827L286.353 228.814L284.349 226.827C284.013 226.496 283.559 226.31 283.085 226.31C282.612 226.31 282.158 226.496 281.821 226.827C281.488 227.16 281.302 227.61 281.302 228.079C281.302 228.549 281.488 228.999 281.821 229.332L283.826 231.32L281.821 233.307C281.493 233.642 281.311 234.092 281.314 234.559C281.318 235.027 281.506 235.474 281.839 235.804C282.172 236.134 282.622 236.32 283.092 236.322C283.562 236.324 284.014 236.142 284.349 235.815L286.353 233.827L288.357 235.815C288.691 236.148 289.145 236.335 289.618 236.335C290.091 236.336 290.545 236.149 290.88 235.816C291.214 235.484 291.403 235.033 291.403 234.562C291.403 234.091 291.216 233.64 290.881 233.307L288.878 231.32Z" fill="#E8EBF6"/>
<path d="M166.717 233.616C212.867 233.616 250.279 196.118 250.279 149.862C250.279 103.606 212.867 66.1081 166.717 66.1081C120.566 66.1081 83.1543 103.606 83.1543 149.862C83.1543 196.118 120.566 233.616 166.717 233.616Z" fill="white"/>
<path d="M238.61 264.778C263.296 264.778 283.308 244.72 283.308 219.977C283.308 195.234 263.296 175.176 238.61 175.176C213.923 175.176 193.911 195.234 193.911 219.977C193.911 244.72 213.923 264.778 238.61 264.778Z" fill="#F8E2E2"/>
<path opacity="0.8" d="M257.221 227.597C258.691 229.07 259.5 231.033 259.5 233.168C259.5 235.26 258.691 237.245 257.2 238.739C254.24 241.684 249.023 241.705 246.063 238.717L240.994 233.659C240.228 232.89 238.993 232.89 238.226 233.659L233.158 238.717C231.625 240.275 229.601 241.044 227.578 241.044C225.555 241.044 223.532 240.275 221.999 238.717C220.53 237.245 219.699 235.26 219.699 233.168C219.699 231.055 220.53 229.07 221.999 227.597L227.067 222.517C227.238 222.346 227.387 222.133 227.493 221.877C227.578 221.642 227.642 221.386 227.642 221.13C227.642 220.874 227.578 220.618 227.493 220.383C227.387 220.148 227.238 219.935 227.067 219.742L221.999 214.684C218.933 211.61 218.933 206.616 221.999 203.542C225.087 200.469 230.091 200.469 233.158 203.521L238.226 208.601C238.993 209.369 240.228 209.348 240.994 208.601L246.063 203.521C249.129 200.448 254.134 200.448 257.2 203.521C258.691 205.015 259.5 207 259.5 209.113C259.5 211.226 258.691 213.19 257.2 214.684L252.153 219.742C251.961 219.935 251.812 220.148 251.727 220.383C251.621 220.618 251.578 220.874 251.578 221.13C251.578 221.386 251.621 221.642 251.706 221.877C251.812 222.133 251.961 222.346 252.153 222.517L257.221 227.597Z" fill="#E98305"/>
<path d="M238.629 102.376L238.629 102.376C239.103 102.067 239.69 101.975 240.248 102.091C240.809 102.208 241.305 102.538 241.612 103.034C250.469 116.961 255.165 133.092 255.165 149.692C255.165 157.821 254.034 165.886 251.814 173.673L238.629 102.376ZM238.629 102.376C237.626 103.03 237.314 104.369 237.974 105.362C246.386 118.584 250.847 133.914 250.847 149.692C250.847 157.634 249.721 165.513 247.49 173.071L247.027 174.638L245.407 174.445C243.504 174.209 241.558 174.08 239.611 174.08C213.67 174.08 192.562 195.194 192.562 221.13C192.562 223.039 192.69 224.989 192.925 226.917L192.925 226.919L193.137 228.542L191.555 229.006L191.555 229.006C183.993 231.242 176.132 232.371 168.187 232.371C122.598 232.371 85.506 195.279 85.506 149.692C85.506 104.126 122.598 67.0346 168.187 67.0346C184.12 67.0346 199.585 71.5699 212.905 80.1719L212.907 80.1731C213.914 80.807 215.25 80.5256 215.907 79.5152L215.909 79.5124C216.54 78.5049 216.262 77.1641 215.25 76.5267C201.227 67.4777 184.963 62.7073 168.187 62.7073C144.943 62.7073 123.108 71.7569 106.673 88.1866C90.2379 104.616 81.1877 126.459 81.1877 149.692C81.1877 172.946 90.2379 194.789 106.673 211.219C123.108 227.648 144.943 236.698 168.187 236.698C176.319 236.698 184.387 235.564 192.178 233.339C192.178 233.339 192.178 233.339 192.178 233.339L194.01 232.817L194.55 234.634L194.55 234.634C200.475 254.398 219.015 268.18 239.611 268.18C265.553 268.18 286.661 247.067 286.661 221.13C286.661 200.531 272.868 181.991 253.107 176.074C253.107 176.074 253.106 176.074 253.106 176.074L251.292 175.513L251.814 173.673L238.629 102.376ZM239.611 263.853C216.062 263.853 196.88 244.69 196.88 221.13C196.88 197.57 216.062 178.407 239.611 178.407C263.16 178.407 282.342 197.57 282.342 221.13C282.342 244.69 263.16 263.853 239.611 263.853Z" fill="#022A80" stroke="#022A80" stroke-width="0.4"/>
<path d="M229.558 88.3486C229.175 87.9644 228.685 87.7509 228.174 87.7509C227.642 87.7509 227.152 87.9644 226.79 88.3272C226.406 88.7114 226.215 89.2023 226.215 89.7146C226.215 90.2482 226.406 90.7391 226.79 91.1233C226.96 91.294 227.194 91.4434 227.407 91.5502C227.897 91.7423 228.451 91.7423 228.919 91.5502C229.154 91.4434 229.367 91.294 229.558 91.1233C230.325 90.3549 230.325 89.0956 229.558 88.3486Z" fill="#022A80"/>
<path d="M229.558 88.3486C229.175 87.9644 228.685 87.7509 228.174 87.7509C227.642 87.7509 227.152 87.9644 226.79 88.3272C226.406 88.7114 226.215 89.2023 226.215 89.7146C226.215 90.2482 226.406 90.7391 226.79 91.1233C226.96 91.294 227.194 91.4434 227.407 91.5502C227.897 91.7423 228.451 91.7423 228.919 91.5502C229.154 91.4434 229.367 91.294 229.558 91.1233C230.325 90.3549 230.325 89.0956 229.558 88.3486Z" stroke="#022A80"/>
<g style="mix-blend-mode:multiply" opacity="0.6">
<path d="M237.672 205.963C232.423 231.228 245.869 255.023 252.157 264.673C262.272 264.088 268.124 254.625 270.749 253.923L278.191 244.001C286.46 229.943 286.44 216.188 283.979 210.924C281.519 205.661 281.471 202.18 278.191 196.039C274.91 189.898 270.708 191.481 265.787 184.463C260.866 177.444 254.163 178.776 248.422 177.021C242.681 175.267 244.234 174.381 237.672 205.963Z" fill="#F0D2B0"/>
</g>
<g opacity="0.8">
<path d="M231.885 140.933C231.885 142.744 231.189 144.42 229.908 145.694C228.65 146.946 226.965 147.617 225.146 147.617C223.326 147.617 221.619 146.924 220.361 145.672C191.608 117.149 144.838 117.127 116.085 145.672C114.759 146.991 113.03 147.639 111.277 147.639C109.548 147.639 107.818 146.991 106.515 145.694C103.887 143.057 103.887 138.81 106.493 136.194C122.958 119.854 144.883 110.868 168.2 110.868C191.54 110.868 213.465 119.854 229.931 136.194C231.189 137.446 231.885 139.145 231.885 140.933Z" fill="#E98305"/>
<path d="M229.931 136.194C213.465 119.854 191.54 110.868 168.2 110.868C144.883 110.868 122.958 119.854 106.493 136.194C103.887 138.81 103.887 143.057 106.515 145.694C107.818 146.991 109.548 147.639 111.277 147.639C113.03 147.639 114.759 146.991 116.085 145.672C144.838 117.127 191.608 117.149 220.361 145.672C221.619 146.924 223.326 147.617 225.146 147.617C226.965 147.617 228.65 146.946 229.908 145.694C231.189 144.42 231.885 142.744 231.885 140.933C231.885 139.145 231.189 137.446 229.931 136.194ZM228.336 144.107C226.606 145.828 223.686 145.828 221.934 144.107C192.326 114.69 144.119 114.69 114.49 144.107C112.715 145.851 109.862 145.851 108.087 144.107C106.335 142.364 106.335 139.525 108.087 137.781C124.666 121.329 146.433 113.103 168.2 113.103C189.99 113.103 211.758 121.329 228.336 137.781C229.167 138.608 229.639 139.748 229.639 140.933C229.639 142.14 229.167 143.258 228.336 144.107Z" fill="#022A80"/>
<path d="M229.931 136.194C213.465 119.854 191.54 110.868 168.2 110.868C144.883 110.868 122.958 119.854 106.493 136.194C103.887 138.81 103.887 143.057 106.515 145.694C107.818 146.991 109.548 147.639 111.277 147.639C113.03 147.639 114.759 146.991 116.085 145.672C144.838 117.127 191.608 117.149 220.361 145.672C221.619 146.924 223.326 147.617 225.146 147.617C226.965 147.617 228.65 146.946 229.908 145.694C231.189 144.42 231.885 142.744 231.885 140.933C231.885 139.145 231.189 137.446 229.931 136.194ZM228.336 144.107C226.606 145.828 223.686 145.828 221.934 144.107C192.326 114.69 144.119 114.69 114.49 144.107C112.715 145.851 109.862 145.851 108.087 144.107C106.335 142.364 106.335 139.525 108.087 137.781C124.666 121.329 146.433 113.103 168.2 113.103C189.99 113.103 211.758 121.329 228.336 137.781C229.167 138.608 229.639 139.748 229.639 140.933C229.639 142.14 229.167 143.258 228.336 144.107Z" stroke="#022A80"/>
<path d="M206.929 162.218C206.929 164.029 206.233 165.705 204.952 166.957C203.649 168.276 201.92 168.924 200.167 168.924C198.438 168.924 196.708 168.276 195.405 166.957C188.149 159.759 178.49 155.803 168.224 155.803C157.936 155.803 148.276 159.759 141.043 166.957C139.718 168.253 137.988 168.924 136.258 168.924C134.506 168.924 132.799 168.253 131.473 166.957C130.215 165.705 129.519 164.029 129.519 162.218C129.497 160.43 130.193 158.731 131.473 157.479C151.736 137.361 184.69 137.361 204.952 157.479C206.233 158.731 206.929 160.43 206.929 162.218Z" fill="#E98305"/>
<path d="M204.952 157.481C184.69 137.363 151.736 137.363 131.473 157.481C130.193 158.732 129.497 160.431 129.519 162.219C129.519 164.03 130.215 165.707 131.473 166.958C132.799 168.255 134.506 168.925 136.258 168.925C137.988 168.925 139.718 168.255 141.043 166.958C148.276 159.761 157.936 155.804 168.224 155.804C178.49 155.804 188.149 159.761 195.405 166.958C196.708 168.277 198.438 168.925 200.167 168.925C201.92 168.925 203.649 168.277 204.952 166.958C206.233 165.707 206.929 164.03 206.929 162.219C206.929 160.431 206.233 158.732 204.952 157.481ZM203.38 165.371C201.605 167.115 198.752 167.115 196.978 165.371C189.048 157.503 178.625 153.569 168.224 153.569C157.801 153.569 147.378 157.503 139.448 165.371C137.696 167.115 134.821 167.115 133.068 165.371C132.215 164.544 131.765 163.427 131.743 162.219C131.743 161.035 132.215 159.895 133.068 159.068C152.455 139.821 183.994 139.821 203.38 159.068C204.211 159.895 204.683 161.035 204.683 162.219C204.683 163.427 204.211 164.544 203.38 165.371Z" fill="#022A80"/>
<path d="M204.952 157.481C184.69 137.363 151.736 137.363 131.473 157.481C130.193 158.732 129.497 160.431 129.519 162.219C129.519 164.03 130.215 165.707 131.473 166.958C132.799 168.255 134.506 168.925 136.258 168.925C137.988 168.925 139.718 168.255 141.043 166.958C148.276 159.761 157.936 155.804 168.224 155.804C178.49 155.804 188.149 159.761 195.405 166.958C196.708 168.277 198.438 168.925 200.167 168.925C201.92 168.925 203.649 168.277 204.952 166.958C206.233 165.707 206.929 164.03 206.929 162.219C206.929 160.431 206.233 158.732 204.952 157.481ZM203.38 165.371C201.605 167.115 198.752 167.115 196.978 165.371C189.048 157.503 178.625 153.569 168.224 153.569C157.801 153.569 147.378 157.503 139.448 165.371C137.696 167.115 134.821 167.115 133.068 165.371C132.215 164.544 131.765 163.427 131.743 162.219C131.743 161.035 132.215 159.895 133.068 159.068C152.455 139.821 183.994 139.821 203.38 159.068C204.211 159.895 204.683 161.035 204.683 162.219C204.683 163.427 204.211 164.544 203.38 165.371Z" stroke="#022A80"/>
<path d="M178.892 183.537C178.892 186.376 177.792 189.036 175.77 191.026C173.681 193.105 170.963 194.133 168.222 194.133C165.481 194.133 162.741 193.105 160.674 191.026C158.652 189.036 157.552 186.376 157.552 183.537C157.552 180.721 158.652 178.061 160.674 176.071C164.83 171.936 171.614 171.936 175.77 176.071C177.792 178.061 178.892 180.721 178.892 183.537Z" fill="#E98305"/>
<path d="M175.77 176.072C171.614 171.937 164.83 171.937 160.674 176.072C158.652 178.062 157.552 180.722 157.552 183.538C157.552 186.377 158.652 189.037 160.674 191.027C162.741 193.106 165.481 194.134 168.222 194.134C170.963 194.134 173.681 193.106 175.77 191.027C177.792 189.037 178.892 186.377 178.892 183.538C178.892 180.722 177.792 178.062 175.77 176.072ZM174.175 189.44C170.895 192.703 165.549 192.703 162.247 189.44C160.674 187.875 159.798 185.774 159.798 183.538C159.798 181.325 160.674 179.224 162.247 177.637C165.549 174.374 170.895 174.374 174.175 177.637C175.77 179.224 176.646 181.325 176.646 183.538C176.646 185.774 175.77 187.875 174.175 189.44Z" fill="#022A80"/>
<path d="M175.77 176.072C171.614 171.937 164.83 171.937 160.674 176.072C158.652 178.062 157.552 180.722 157.552 183.538C157.552 186.377 158.652 189.037 160.674 191.027C162.741 193.106 165.481 194.134 168.222 194.134C170.963 194.134 173.681 193.106 175.77 191.027C177.792 189.037 178.892 186.377 178.892 183.538C178.892 180.722 177.792 178.062 175.77 176.072ZM174.175 189.44C170.895 192.703 165.549 192.703 162.247 189.44C160.674 187.875 159.798 185.774 159.798 183.538C159.798 181.325 160.674 179.224 162.247 177.637C165.549 174.374 170.895 174.374 174.175 177.637C175.77 179.224 176.646 181.325 176.646 183.538C176.646 185.774 175.77 187.875 174.175 189.44Z" stroke="#022A80"/>
<path d="M229.931 136.194C213.465 119.854 191.54 110.868 168.2 110.868C144.883 110.868 122.958 119.854 106.493 136.194C103.887 138.81 103.887 143.057 106.515 145.694C107.818 146.991 109.548 147.639 111.277 147.639C113.03 147.639 114.759 146.991 116.085 145.672C144.838 117.127 191.608 117.149 220.361 145.672C221.619 146.924 223.326 147.617 225.146 147.617C226.965 147.617 228.65 146.946 229.908 145.694C231.189 144.42 231.885 142.744 231.885 140.933C231.885 139.145 231.189 137.446 229.931 136.194ZM226.741 142.52C226.336 142.923 225.752 143.146 225.146 143.146C224.517 143.146 223.955 142.923 223.529 142.52C208.276 127.365 188.26 119.809 168.223 119.809C148.185 119.809 128.148 127.365 112.895 142.52C112.019 143.392 110.558 143.392 109.682 142.52C108.806 141.648 108.806 140.24 109.682 139.368C125.295 123.855 146.074 115.339 168.2 115.339C190.35 115.339 211.129 123.855 226.741 139.368C227.168 139.771 227.392 140.33 227.392 140.933C227.392 141.537 227.168 142.095 226.741 142.52ZM229.931 136.194C213.465 119.854 191.54 110.868 168.2 110.868C144.883 110.868 122.958 119.854 106.493 136.194C103.887 138.81 103.887 143.057 106.515 145.694C107.818 146.991 109.548 147.639 111.277 147.639C113.03 147.639 114.759 146.991 116.085 145.672C144.838 117.127 191.608 117.149 220.361 145.672C221.619 146.924 223.326 147.617 225.146 147.617C226.965 147.617 228.65 146.946 229.908 145.694C231.189 144.42 231.885 142.744 231.885 140.933C231.885 139.145 231.189 137.446 229.931 136.194ZM226.741 142.52C226.336 142.923 225.752 143.146 225.146 143.146C224.517 143.146 223.955 142.923 223.529 142.52C208.276 127.365 188.26 119.809 168.223 119.809C148.185 119.809 128.148 127.365 112.895 142.52C112.019 143.392 110.558 143.392 109.682 142.52C108.806 141.648 108.806 140.24 109.682 139.368C125.295 123.855 146.074 115.339 168.2 115.339C190.35 115.339 211.129 123.855 226.741 139.368C227.168 139.771 227.392 140.33 227.392 140.933C227.392 141.537 227.168 142.095 226.741 142.52ZM229.931 136.194C213.465 119.854 191.54 110.868 168.2 110.868C144.883 110.868 122.958 119.854 106.493 136.194C103.887 138.81 103.887 143.057 106.515 145.694C107.818 146.991 109.548 147.639 111.277 147.639C113.03 147.639 114.759 146.991 116.085 145.672C144.838 117.127 191.608 117.149 220.361 145.672C221.619 146.924 223.326 147.617 225.146 147.617C226.965 147.617 228.65 146.946 229.908 145.694C231.189 144.42 231.885 142.744 231.885 140.933C231.885 139.145 231.189 137.446 229.931 136.194ZM226.741 142.52C226.336 142.923 225.752 143.146 225.146 143.146C224.517 143.146 223.955 142.923 223.529 142.52C208.276 127.365 188.26 119.809 168.223 119.809C148.185 119.809 128.148 127.365 112.895 142.52C112.019 143.392 110.558 143.392 109.682 142.52C108.806 141.648 108.806 140.24 109.682 139.368C125.295 123.855 146.074 115.339 168.2 115.339C190.35 115.339 211.129 123.855 226.741 139.368C227.168 139.771 227.392 140.33 227.392 140.933C227.392 141.537 227.168 142.095 226.741 142.52ZM229.931 136.194C213.465 119.854 191.54 110.868 168.2 110.868C144.883 110.868 122.958 119.854 106.493 136.194C103.887 138.81 103.887 143.057 106.515 145.694C107.818 146.991 109.548 147.639 111.277 147.639C113.03 147.639 114.759 146.991 116.085 145.672C144.838 117.127 191.608 117.149 220.361 145.672C221.619 146.924 223.326 147.617 225.146 147.617C226.965 147.617 228.65 146.946 229.908 145.694C231.189 144.42 231.885 142.744 231.885 140.933C231.885 139.145 231.189 137.446 229.931 136.194ZM226.741 142.52C226.336 142.923 225.752 143.146 225.146 143.146C224.517 143.146 223.955 142.923 223.529 142.52C208.276 127.365 188.26 119.809 168.223 119.809C148.185 119.809 128.148 127.365 112.895 142.52C112.019 143.392 110.558 143.392 109.682 142.52C108.806 141.648 108.806 140.24 109.682 139.368C125.295 123.855 146.074 115.339 168.2 115.339C190.35 115.339 211.129 123.855 226.741 139.368C227.168 139.771 227.392 140.33 227.392 140.933C227.392 141.537 227.168 142.095 226.741 142.52ZM229.931 136.194C213.465 119.854 191.54 110.868 168.2 110.868C144.883 110.868 122.958 119.854 106.493 136.194C103.887 138.81 103.887 143.057 106.515 145.694C107.818 146.991 109.548 147.639 111.277 147.639C113.03 147.639 114.759 146.991 116.085 145.672C144.838 117.127 191.608 117.149 220.361 145.672C221.619 146.924 223.326 147.617 225.146 147.617C226.965 147.617 228.65 146.946 229.908 145.694C231.189 144.42 231.885 142.744 231.885 140.933C231.885 139.145 231.189 137.446 229.931 136.194ZM226.741 142.52C226.336 142.923 225.752 143.146 225.146 143.146C224.517 143.146 223.955 142.923 223.529 142.52C208.276 127.365 188.26 119.809 168.223 119.809C148.185 119.809 128.148 127.365 112.895 142.52C112.019 143.392 110.558 143.392 109.682 142.52C108.806 141.648 108.806 140.24 109.682 139.368C125.295 123.855 146.074 115.339 168.2 115.339C190.35 115.339 211.129 123.855 226.741 139.368C227.168 139.771 227.392 140.33 227.392 140.933C227.392 141.537 227.168 142.095 226.741 142.52ZM229.931 136.194C213.465 119.854 191.54 110.868 168.2 110.868C144.883 110.868 122.958 119.854 106.493 136.194C103.887 138.81 103.887 143.057 106.515 145.694C107.818 146.991 109.548 147.639 111.277 147.639C113.03 147.639 114.759 146.991 116.085 145.672C144.838 117.127 191.608 117.149 220.361 145.672C221.619 146.924 223.326 147.617 225.146 147.617C226.965 147.617 228.65 146.946 229.908 145.694C231.189 144.42 231.885 142.744 231.885 140.933C231.885 139.145 231.189 137.446 229.931 136.194ZM226.741 142.52C226.336 142.923 225.752 143.146 225.146 143.146C224.517 143.146 223.955 142.923 223.529 142.52C208.276 127.365 188.26 119.809 168.223 119.809C148.185 119.809 128.148 127.365 112.895 142.52C112.019 143.392 110.558 143.392 109.682 142.52C108.806 141.648 108.806 140.24 109.682 139.368C125.295 123.855 146.074 115.339 168.2 115.339C190.35 115.339 211.129 123.855 226.741 139.368C227.168 139.771 227.392 140.33 227.392 140.933C227.392 141.537 227.168 142.095 226.741 142.52ZM229.931 136.194C213.465 119.854 191.54 110.868 168.2 110.868C144.883 110.868 122.958 119.854 106.493 136.194C103.887 138.81 103.887 143.057 106.515 145.694C107.818 146.991 109.548 147.639 111.277 147.639C113.03 147.639 114.759 146.991 116.085 145.672C144.838 117.127 191.608 117.149 220.361 145.672C221.619 146.924 223.326 147.617 225.146 147.617C226.965 147.617 228.65 146.946 229.908 145.694C231.189 144.42 231.885 142.744 231.885 140.933C231.885 139.145 231.189 137.446 229.931 136.194ZM226.741 142.52C226.336 142.923 225.752 143.146 225.146 143.146C224.517 143.146 223.955 142.923 223.529 142.52C208.276 127.365 188.26 119.809 168.223 119.809C148.185 119.809 128.148 127.365 112.895 142.52C112.019 143.392 110.558 143.392 109.682 142.52C108.806 141.648 108.806 140.24 109.682 139.368C125.295 123.855 146.074 115.339 168.2 115.339C190.35 115.339 211.129 123.855 226.741 139.368C227.168 139.771 227.392 140.33 227.392 140.933C227.392 141.537 227.168 142.095 226.741 142.52Z" fill="#E98305"/>
<path d="M204.952 157.481C184.69 137.363 151.736 137.363 131.473 157.481C130.193 158.732 129.497 160.431 129.519 162.219C129.519 164.03 130.215 165.707 131.473 166.958C132.799 168.255 134.506 168.925 136.258 168.925C137.988 168.925 139.718 168.255 141.043 166.958C148.276 159.761 157.936 155.804 168.224 155.804C178.49 155.804 188.149 159.761 195.405 166.958C196.708 168.277 198.438 168.925 200.167 168.925C201.92 168.925 203.649 168.277 204.952 166.958C206.233 165.707 206.929 164.03 206.929 162.219C206.929 160.431 206.233 158.732 204.952 157.481ZM201.785 163.784C200.909 164.678 199.449 164.678 198.573 163.784C190.463 155.759 179.703 151.333 168.224 151.333C162.496 151.333 156.925 152.429 151.781 154.552C146.636 156.653 141.919 159.761 137.876 163.784C136.977 164.678 135.539 164.678 134.641 163.784C134.214 163.382 134.012 162.823 134.012 162.219C133.989 161.616 134.214 161.057 134.641 160.632C153.151 142.258 183.275 142.258 201.785 160.632C202.212 161.057 202.436 161.616 202.436 162.219C202.436 162.823 202.212 163.382 201.785 163.784ZM204.952 157.481C184.69 137.363 151.736 137.363 131.473 157.481C130.193 158.732 129.497 160.431 129.519 162.219C129.519 164.03 130.215 165.707 131.473 166.958C132.799 168.255 134.506 168.925 136.258 168.925C137.988 168.925 139.718 168.255 141.043 166.958C148.276 159.761 157.936 155.804 168.224 155.804C178.49 155.804 188.149 159.761 195.405 166.958C196.708 168.277 198.438 168.925 200.167 168.925C201.92 168.925 203.649 168.277 204.952 166.958C206.233 165.707 206.929 164.03 206.929 162.219C206.929 160.431 206.233 158.732 204.952 157.481ZM201.785 163.784C200.909 164.678 199.449 164.678 198.573 163.784C190.463 155.759 179.703 151.333 168.224 151.333C162.496 151.333 156.925 152.429 151.781 154.552C146.636 156.653 141.919 159.761 137.876 163.784C136.977 164.678 135.539 164.678 134.641 163.784C134.214 163.382 134.012 162.823 134.012 162.219C133.989 161.616 134.214 161.057 134.641 160.632C153.151 142.258 183.275 142.258 201.785 160.632C202.212 161.057 202.436 161.616 202.436 162.219C202.436 162.823 202.212 163.382 201.785 163.784ZM204.952 157.481C184.69 137.363 151.736 137.363 131.473 157.481C130.193 158.732 129.497 160.431 129.519 162.219C129.519 164.03 130.215 165.707 131.473 166.958C132.799 168.255 134.506 168.925 136.258 168.925C137.988 168.925 139.718 168.255 141.043 166.958C148.276 159.761 157.936 155.804 168.224 155.804C178.49 155.804 188.149 159.761 195.405 166.958C196.708 168.277 198.438 168.925 200.167 168.925C201.92 168.925 203.649 168.277 204.952 166.958C206.233 165.707 206.929 164.03 206.929 162.219C206.929 160.431 206.233 158.732 204.952 157.481ZM201.785 163.784C200.909 164.678 199.449 164.678 198.573 163.784C190.463 155.759 179.703 151.333 168.224 151.333C162.496 151.333 156.925 152.429 151.781 154.552C146.636 156.653 141.919 159.761 137.876 163.784C136.977 164.678 135.539 164.678 134.641 163.784C134.214 163.382 134.012 162.823 134.012 162.219C133.989 161.616 134.214 161.057 134.641 160.632C153.151 142.258 183.275 142.258 201.785 160.632C202.212 161.057 202.436 161.616 202.436 162.219C202.436 162.823 202.212 163.382 201.785 163.784Z" fill="#E98305"/>
<path d="M175.77 176.072C171.614 171.937 164.83 171.937 160.674 176.072C158.652 178.062 157.552 180.722 157.552 183.538C157.552 186.377 158.652 189.037 160.674 191.027C162.741 193.106 165.481 194.134 168.222 194.134C170.963 194.134 173.681 193.106 175.77 191.027C177.792 189.037 178.892 186.377 178.892 183.538C178.892 180.722 177.792 178.062 175.77 176.072ZM163.842 187.875C162.673 186.713 162.045 185.17 162.045 183.538C162.045 181.929 162.673 180.387 163.842 179.224C165.055 178.039 166.627 177.436 168.222 177.436C169.794 177.436 171.389 178.039 172.602 179.224C173.771 180.387 174.4 181.929 174.4 183.538C174.4 185.17 173.771 186.713 172.602 187.875C170.176 190.267 166.245 190.267 163.842 187.875ZM175.77 176.072C171.614 171.937 164.83 171.937 160.674 176.072C158.652 178.062 157.552 180.722 157.552 183.538C157.552 186.377 158.652 189.037 160.674 191.027C162.741 193.106 165.481 194.134 168.222 194.134C170.963 194.134 173.681 193.106 175.77 191.027C177.792 189.037 178.892 186.377 178.892 183.538C178.892 180.722 177.792 178.062 175.77 176.072ZM163.842 187.875C162.673 186.713 162.045 185.17 162.045 183.538C162.045 181.929 162.673 180.387 163.842 179.224C165.055 178.039 166.627 177.436 168.222 177.436C169.794 177.436 171.389 178.039 172.602 179.224C173.771 180.387 174.4 181.929 174.4 183.538C174.4 185.17 173.771 186.713 172.602 187.875C170.176 190.267 166.245 190.267 163.842 187.875ZM175.77 176.072C171.614 171.937 164.83 171.937 160.674 176.072C158.652 178.062 157.552 180.722 157.552 183.538C157.552 186.377 158.652 189.037 160.674 191.027C162.741 193.106 165.481 194.134 168.222 194.134C170.963 194.134 173.681 193.106 175.77 191.027C177.792 189.037 178.892 186.377 178.892 183.538C178.892 180.722 177.792 178.062 175.77 176.072ZM163.842 187.875C162.673 186.713 162.045 185.17 162.045 183.538C162.045 181.929 162.673 180.387 163.842 179.224C165.055 178.039 166.627 177.436 168.222 177.436C169.794 177.436 171.389 178.039 172.602 179.224C173.771 180.387 174.4 181.929 174.4 183.538C174.4 185.17 173.771 186.713 172.602 187.875C170.176 190.267 166.245 190.267 163.842 187.875ZM175.77 176.072C171.614 171.937 164.83 171.937 160.674 176.072C158.652 178.062 157.552 180.722 157.552 183.538C157.552 186.377 158.652 189.037 160.674 191.027C162.741 193.106 165.481 194.134 168.222 194.134C170.963 194.134 173.681 193.106 175.77 191.027C177.792 189.037 178.892 186.377 178.892 183.538C178.892 180.722 177.792 178.062 175.77 176.072ZM163.842 187.875C162.673 186.713 162.045 185.17 162.045 183.538C162.045 181.929 162.673 180.387 163.842 179.224C165.055 178.039 166.627 177.436 168.222 177.436C169.794 177.436 171.389 178.039 172.602 179.224C173.771 180.387 174.4 181.929 174.4 183.538C174.4 185.17 173.771 186.713 172.602 187.875C170.176 190.267 166.245 190.267 163.842 187.875ZM175.77 176.072C171.614 171.937 164.83 171.937 160.674 176.072C158.652 178.062 157.552 180.722 157.552 183.538C157.552 186.377 158.652 189.037 160.674 191.027C162.741 193.106 165.481 194.134 168.222 194.134C170.963 194.134 173.681 193.106 175.77 191.027C177.792 189.037 178.892 186.377 178.892 183.538C178.892 180.722 177.792 178.062 175.77 176.072ZM163.842 187.875C162.673 186.713 162.045 185.17 162.045 183.538C162.045 181.929 162.673 180.387 163.842 179.224C165.055 178.039 166.627 177.436 168.222 177.436C169.794 177.436 171.389 178.039 172.602 179.224C173.771 180.387 174.4 181.929 174.4 183.538C174.4 185.17 173.771 186.713 172.602 187.875C170.176 190.267 166.245 190.267 163.842 187.875ZM175.77 176.072C171.614 171.937 164.83 171.937 160.674 176.072C158.652 178.062 157.552 180.722 157.552 183.538C157.552 186.377 158.652 189.037 160.674 191.027C162.741 193.106 165.481 194.134 168.222 194.134C170.963 194.134 173.681 193.106 175.77 191.027C177.792 189.037 178.892 186.377 178.892 183.538C178.892 180.722 177.792 178.062 175.77 176.072ZM163.842 187.875C162.673 186.713 162.045 185.17 162.045 183.538C162.045 181.929 162.673 180.387 163.842 179.224C165.055 178.039 166.627 177.436 168.222 177.436C169.794 177.436 171.389 178.039 172.602 179.224C173.771 180.387 174.4 181.929 174.4 183.538C174.4 185.17 173.771 186.713 172.602 187.875C170.176 190.267 166.245 190.267 163.842 187.875ZM175.77 176.072C171.614 171.937 164.83 171.937 160.674 176.072C158.652 178.062 157.552 180.722 157.552 183.538C157.552 186.377 158.652 189.037 160.674 191.027C162.741 193.106 165.481 194.134 168.222 194.134C170.963 194.134 173.681 193.106 175.77 191.027C177.792 189.037 178.892 186.377 178.892 183.538C178.892 180.722 177.792 178.062 175.77 176.072ZM163.842 187.875C162.673 186.713 162.045 185.17 162.045 183.538C162.045 181.929 162.673 180.387 163.842 179.224C165.055 178.039 166.627 177.436 168.222 177.436C169.794 177.436 171.389 178.039 172.602 179.224C173.771 180.387 174.4 181.929 174.4 183.538C174.4 185.17 173.771 186.713 172.602 187.875C170.176 190.267 166.245 190.267 163.842 187.875ZM175.77 176.072C171.614 171.937 164.83 171.937 160.674 176.072C158.652 178.062 157.552 180.722 157.552 183.538C157.552 186.377 158.652 189.037 160.674 191.027C162.741 193.106 165.481 194.134 168.222 194.134C170.963 194.134 173.681 193.106 175.77 191.027C177.792 189.037 178.892 186.377 178.892 183.538C178.892 180.722 177.792 178.062 175.77 176.072ZM163.842 187.875C162.673 186.713 162.045 185.17 162.045 183.538C162.045 181.929 162.673 180.387 163.842 179.224C165.055 178.039 166.627 177.436 168.222 177.436C169.794 177.436 171.389 178.039 172.602 179.224C173.771 180.387 174.4 181.929 174.4 183.538C174.4 185.17 173.771 186.713 172.602 187.875C170.176 190.267 166.245 190.267 163.842 187.875ZM175.77 176.072C171.614 171.937 164.83 171.937 160.674 176.072C158.652 178.062 157.552 180.722 157.552 183.538C157.552 186.377 158.652 189.037 160.674 191.027C162.741 193.106 165.481 194.134 168.222 194.134C170.963 194.134 173.681 193.106 175.77 191.027C177.792 189.037 178.892 186.377 178.892 183.538C178.892 180.722 177.792 178.062 175.77 176.072ZM163.842 187.875C162.673 186.713 162.045 185.17 162.045 183.538C162.045 181.929 162.673 180.387 163.842 179.224C165.055 178.039 166.627 177.436 168.222 177.436C169.794 177.436 171.389 178.039 172.602 179.224C173.771 180.387 174.4 181.929 174.4 183.538C174.4 185.17 173.771 186.713 172.602 187.875C170.176 190.267 166.245 190.267 163.842 187.875ZM175.77 176.072C171.614 171.937 164.83 171.937 160.674 176.072C158.652 178.062 157.552 180.722 157.552 183.538C157.552 186.377 158.652 189.037 160.674 191.027C162.741 193.106 165.481 194.134 168.222 194.134C170.963 194.134 173.681 193.106 175.77 191.027C177.792 189.037 178.892 186.377 178.892 183.538C178.892 180.722 177.792 178.062 175.77 176.072ZM163.842 187.875C162.673 186.713 162.045 185.17 162.045 183.538C162.045 181.929 162.673 180.387 163.842 179.224C165.055 178.039 166.627 177.436 168.222 177.436C169.794 177.436 171.389 178.039 172.602 179.224C173.771 180.387 174.4 181.929 174.4 183.538C174.4 185.17 173.771 186.713 172.602 187.875C170.176 190.267 166.245 190.267 163.842 187.875ZM175.77 176.072C171.614 171.937 164.83 171.937 160.674 176.072C158.652 178.062 157.552 180.722 157.552 183.538C157.552 186.377 158.652 189.037 160.674 191.027C162.741 193.106 165.481 194.134 168.222 194.134C170.963 194.134 173.681 193.106 175.77 191.027C177.792 189.037 178.892 186.377 178.892 183.538C178.892 180.722 177.792 178.062 175.77 176.072ZM163.842 187.875C162.673 186.713 162.045 185.17 162.045 183.538C162.045 181.929 162.673 180.387 163.842 179.224C165.055 178.039 166.627 177.436 168.222 177.436C169.794 177.436 171.389 178.039 172.602 179.224C173.771 180.387 174.4 181.929 174.4 183.538C174.4 185.17 173.771 186.713 172.602 187.875C170.176 190.267 166.245 190.267 163.842 187.875Z" fill="#E98305"/>
</g>
<g clip-path="url(#clip0_13069_26351)">
<path d="M173.98 52.3424L149.348 50.8029V50.0331L139.342 43.1055L137.032 35.4081L136.263 23.862L135.493 11.5461L139.342 3.84871L147.039 0.769745L157.046 6.92767L176.289 25.4014L200.921 50.8029L190.145 52.3424H173.98Z" fill="white" stroke="#022A80"/>
<path d="M162.844 37.5524C158.882 34.911 159.542 19.9432 160.367 12.7894H162.844C171.373 21.0437 188.597 37.7175 189.257 38.3778C189.917 39.0382 196.686 46.9073 199.988 50.7593C198.612 51.0345 195.695 51.4197 195.035 50.7593C194.21 49.9339 176.875 49.1085 174.399 49.1085C171.923 49.1085 167.796 40.8541 162.844 37.5524Z" fill="#FCECDA"/>
<path d="M159.439 53.8184H187.682C188.895 53.8184 189.879 52.834 189.879 51.6211C189.879 50.4082 188.895 49.4238 187.682 49.4238C173.32 49.4238 161.637 37.7402 161.637 23.3789V14.5415C161.637 10.5483 160.081 6.79248 157.257 3.96973C154.699 1.40918 151.296 0 147.677 0C139.975 0 133.707 6.2666 133.707 13.9702V28.0869C133.707 42.2754 145.251 53.8184 159.439 53.8184ZM171.94 49.4238H159.439C147.674 49.4238 138.101 39.8511 138.101 28.0855V13.9702C138.101 8.69092 142.396 4.39453 147.677 4.39453C150.123 4.39453 152.421 5.34668 154.15 7.0752C156.144 9.07031 157.242 11.7217 157.242 14.5415V23.3789C157.242 34.4063 163.137 44.083 171.94 49.4238Z" fill="#022A80"/>
<path d="M137.337 10.5337C137.9 10.5337 138.462 10.3198 138.891 9.89063C139.75 9.03223 139.75 7.64209 138.891 6.78369L132.752 0.644531C131.894 -0.213867 130.502 -0.213867 129.645 0.644531C128.787 1.50293 128.787 2.89307 129.645 3.75147L135.784 9.89063C136.214 10.3198 136.775 10.5337 137.337 10.5337Z" fill="#022A80"/>
<path fill-rule="evenodd" clip-rule="evenodd" d="M145.318 9.56982C146.531 9.56982 147.516 10.5542 147.516 11.7671C147.516 12.98 146.531 13.9644 145.318 13.9644C144.105 13.9644 143.121 12.98 143.121 11.7671C143.121 10.5542 144.105 9.56982 145.318 9.56982Z" fill="#022A80"/>
<path d="M187.938 54.2035H202.059C202.948 54.2035 203.75 53.6689 204.09 52.8471C204.429 52.0253 204.242 51.0805 203.613 50.4521L157.515 4.35342C156.656 3.49503 155.265 3.49503 154.408 4.35342C153.55 5.21182 153.55 6.60196 154.408 7.46036C156.4 9.45548 157.499 12.1068 157.499 14.9267V23.7641C157.499 40.5483 171.154 54.2035 187.938 54.2035ZM196.755 49.809H187.938C173.577 49.809 161.893 38.1254 161.893 23.7641V14.9472L196.755 49.809Z" fill="#022A80"/>
<path fill-rule="evenodd" clip-rule="evenodd" d="M173.704 39.0969C169.905 32.4331 169.785 25.0388 170.85 20.2183L173.72 21.0298C172.813 25.1318 172.915 31.5394 176.19 37.2834C179.43 42.9661 185.94 48.2814 198.337 49.9121L197.995 53.2356C184.955 51.5204 177.538 45.822 173.704 39.0969Z" fill="#022A80"/>
<path d="M161.794 65.5855C162.356 65.5855 162.919 65.3716 163.348 64.9424L175.115 53.1753C175.973 52.3169 175.973 50.9253 175.115 50.0684C174.257 49.21 172.865 49.21 172.008 50.0684L160.241 61.8355C159.383 62.6939 159.383 64.0855 160.241 64.9424C160.669 65.3716 161.231 65.5855 161.794 65.5855Z" fill="#022A80"/>
<path d="M154.733 65.5855H168.854C170.067 65.5855 171.052 64.6011 171.052 63.3882C171.052 62.1753 170.067 61.1909 168.854 61.1909H154.733C153.521 61.1909 152.536 62.1753 152.536 63.3882C152.536 64.6011 153.519 65.5855 154.733 65.5855Z" fill="#022A80"/>
</g>
<defs>
<clipPath id="clip0_13069_26351">
<rect width="75" height="65.5855" fill="white" transform="matrix(-1 0 0 1 204 0)"/>
</clipPath>
</defs>
</svg>
