<svg width="538" height="376" viewBox="0 0 538 376" fill="none" xmlns="http://www.w3.org/2000/svg">
<path d="M159.128 343.589C157.589 343.585 156.086 343.127 154.808 342.274C153.53 341.42 152.536 340.209 151.949 338.794C151.363 337.378 151.212 335.822 151.514 334.321C151.817 332.82 152.56 331.442 153.649 330.361C154.739 329.279 156.126 328.544 157.636 328.246C159.146 327.949 160.71 328.103 162.132 328.69C163.553 329.276 164.768 330.269 165.623 331.541C166.478 332.814 166.935 334.311 166.935 335.842C166.93 337.898 166.106 339.869 164.642 341.321C163.179 342.774 161.195 343.589 159.128 343.589ZM159.128 332.708C158.505 332.71 157.896 332.896 157.379 333.241C156.862 333.587 156.46 334.078 156.223 334.651C155.985 335.224 155.925 335.854 156.047 336.462C156.17 337.069 156.471 337.627 156.913 338.064C157.354 338.502 157.916 338.799 158.527 338.919C159.138 339.039 159.772 338.977 160.347 338.739C160.922 338.501 161.414 338.099 161.76 337.583C162.105 337.067 162.29 336.461 162.289 335.842C162.287 335.009 161.953 334.212 161.361 333.624C160.768 333.037 159.965 332.707 159.128 332.708Z" fill="#E8EBF6"/>
<path d="M199.207 375.773C198.15 375.772 197.116 375.46 196.237 374.876C195.358 374.291 194.673 373.46 194.269 372.489C193.864 371.517 193.759 370.448 193.965 369.416C194.171 368.385 194.681 367.437 195.428 366.694C196.176 365.95 197.128 365.444 198.165 365.238C199.202 365.033 200.277 365.138 201.254 365.54C202.231 365.943 203.066 366.624 203.654 367.498C204.241 368.373 204.555 369.401 204.556 370.452C204.555 371.863 203.991 373.216 202.988 374.213C201.985 375.211 200.625 375.772 199.207 375.773ZM199.207 368.299C198.779 368.299 198.361 368.426 198.005 368.663C197.649 368.9 197.372 369.236 197.208 369.63C197.045 370.023 197.002 370.456 197.086 370.874C197.17 371.291 197.376 371.675 197.679 371.976C197.982 372.277 198.367 372.482 198.787 372.565C199.207 372.648 199.642 372.605 200.038 372.442C200.433 372.279 200.771 372.003 201.009 371.649C201.247 371.295 201.374 370.878 201.374 370.452C201.374 369.881 201.146 369.333 200.739 368.928C200.333 368.524 199.782 368.297 199.207 368.297V368.299Z" fill="#E8EBF6"/>
<path d="M366.984 375.587C365.444 375.583 363.941 375.125 362.663 374.271C361.386 373.418 360.391 372.207 359.805 370.791C359.218 369.376 359.067 367.819 359.37 366.318C359.673 364.817 360.416 363.439 361.506 362.358C362.595 361.277 363.983 360.541 365.493 360.244C367.002 359.947 368.567 360.101 369.988 360.688C371.41 361.275 372.625 362.268 373.48 363.541C374.334 364.814 374.79 366.311 374.79 367.842C374.785 369.898 373.961 371.868 372.497 373.32C371.034 374.772 369.051 375.587 366.984 375.587ZM366.984 364.706C366.36 364.708 365.752 364.893 365.234 365.238C364.717 365.584 364.314 366.074 364.077 366.647C363.839 367.22 363.778 367.85 363.901 368.458C364.023 369.065 364.324 369.623 364.765 370.061C365.206 370.499 365.768 370.797 366.379 370.917C366.99 371.037 367.623 370.975 368.199 370.737C368.774 370.5 369.266 370.098 369.612 369.583C369.958 369.067 370.143 368.461 370.143 367.842C370.14 367.01 369.806 366.213 369.214 365.625C368.622 365.038 367.82 364.708 366.984 364.708V364.706Z" fill="#E8EBF6"/>
<path d="M431.457 251.08C430.279 251.076 429.128 250.725 428.15 250.071C427.173 249.417 426.412 248.489 425.964 247.405C425.516 246.322 425.4 245.13 425.633 243.981C425.865 242.832 426.434 241.777 427.268 240.95C428.103 240.123 429.165 239.56 430.321 239.332C431.476 239.105 432.674 239.223 433.762 239.673C434.85 240.122 435.78 240.881 436.435 241.856C437.089 242.83 437.439 243.976 437.439 245.148C437.434 246.723 436.802 248.232 435.68 249.344C434.559 250.455 433.04 251.08 431.457 251.08ZM431.457 242.749C430.98 242.752 430.515 242.896 430.121 243.162C429.726 243.428 429.419 243.804 429.239 244.243C429.059 244.682 429.014 245.164 429.109 245.628C429.204 246.093 429.435 246.519 429.773 246.853C430.111 247.187 430.541 247.414 431.009 247.505C431.477 247.597 431.961 247.548 432.401 247.366C432.841 247.184 433.217 246.876 433.481 246.482C433.746 246.087 433.887 245.624 433.887 245.15C433.886 244.834 433.822 244.521 433.699 244.229C433.576 243.938 433.397 243.673 433.171 243.45C432.946 243.228 432.678 243.052 432.384 242.932C432.09 242.812 431.775 242.751 431.457 242.753V242.749Z" fill="#E8EBF6"/>
<path d="M326.077 157.541C324.831 157.538 323.615 157.168 322.581 156.477C321.546 155.786 320.741 154.806 320.267 153.66C319.792 152.515 319.67 151.255 319.915 150.04C320.16 148.825 320.762 147.71 321.644 146.835C322.526 145.96 323.649 145.364 324.871 145.124C326.093 144.883 327.359 145.008 328.509 145.483C329.66 145.958 330.643 146.762 331.335 147.792C332.027 148.823 332.396 150.034 332.396 151.273C332.391 152.937 331.724 154.531 330.539 155.706C329.355 156.882 327.75 157.541 326.077 157.541ZM326.077 148.735C325.573 148.736 325.08 148.886 324.661 149.165C324.242 149.445 323.916 149.842 323.724 150.305C323.531 150.769 323.482 151.28 323.581 151.772C323.68 152.264 323.923 152.715 324.28 153.07C324.637 153.424 325.092 153.665 325.587 153.763C326.082 153.86 326.595 153.81 327.061 153.617C327.527 153.425 327.925 153.1 328.205 152.683C328.485 152.265 328.635 151.775 328.635 151.273C328.633 150.599 328.363 149.954 327.884 149.478C327.404 149.002 326.754 148.735 326.077 148.735Z" fill="#E8EBF6"/>
<path d="M123.921 290.769C122.611 290.773 121.332 291.162 120.244 291.889C119.157 292.615 118.31 293.646 117.812 294.851C117.313 296.056 117.184 297.381 117.442 298.658C117.7 299.936 118.333 301.109 119.26 302.029C120.188 302.949 121.369 303.575 122.654 303.828C123.939 304.081 125.27 303.949 126.48 303.449C127.69 302.95 128.724 302.105 129.451 301.021C130.179 299.938 130.567 298.664 130.567 297.361C130.566 296.494 130.393 295.636 130.058 294.835C129.724 294.035 129.234 293.308 128.617 292.696C127.999 292.084 127.267 291.598 126.461 291.268C125.656 290.937 124.793 290.768 123.921 290.769Z" fill="#E8EBF6"/>
<path d="M230.058 146.78C228.665 146.784 227.306 147.199 226.15 147.971C224.994 148.743 224.095 149.839 223.565 151.12C223.034 152.4 222.898 153.809 223.172 155.166C223.446 156.524 224.119 157.771 225.105 158.749C226.091 159.727 227.346 160.392 228.712 160.661C230.077 160.929 231.493 160.789 232.779 160.258C234.065 159.727 235.164 158.829 235.937 157.678C236.71 156.526 237.122 155.172 237.122 153.787C237.121 152.865 236.938 151.953 236.582 151.102C236.226 150.251 235.705 149.479 235.049 148.828C234.393 148.177 233.615 147.661 232.758 147.31C231.902 146.959 230.984 146.779 230.058 146.78Z" fill="#E8EBF6"/>
<path d="M368.798 173.448C367.606 173.451 366.443 173.806 365.454 174.466C364.466 175.127 363.696 176.064 363.243 177.16C362.789 178.255 362.673 179.46 362.907 180.621C363.142 181.783 363.717 182.849 364.56 183.686C365.404 184.522 366.478 185.091 367.646 185.321C368.815 185.551 370.025 185.431 371.125 184.976C372.225 184.522 373.165 183.753 373.826 182.768C374.487 181.782 374.84 180.624 374.84 179.439C374.839 178.651 374.682 177.871 374.377 177.143C374.073 176.416 373.628 175.755 373.067 175.198C372.506 174.642 371.84 174.201 371.107 173.901C370.375 173.6 369.59 173.447 368.798 173.448Z" fill="#E8EBF6"/>
<path d="M154.759 219.665C154.081 219.667 153.418 219.869 152.856 220.245C152.293 220.621 151.854 221.155 151.596 221.779C151.338 222.403 151.272 223.088 151.405 223.75C151.539 224.411 151.866 225.018 152.347 225.494C152.827 225.971 153.438 226.295 154.104 226.425C154.769 226.556 155.458 226.488 156.085 226.229C156.711 225.97 157.246 225.532 157.622 224.971C157.999 224.41 158.199 223.75 158.199 223.076C158.198 222.627 158.109 222.183 157.935 221.769C157.762 221.355 157.508 220.979 157.189 220.662C156.87 220.345 156.491 220.094 156.074 219.923C155.657 219.752 155.21 219.665 154.759 219.665Z" fill="#E8EBF6"/>
<path d="M433.132 208.999C431.976 209.002 430.846 209.346 429.886 209.988C428.926 210.63 428.179 211.54 427.738 212.604C427.298 213.667 427.185 214.837 427.412 215.965C427.64 217.093 428.199 218.128 429.018 218.941C429.837 219.753 430.879 220.306 432.014 220.529C433.149 220.752 434.324 220.636 435.392 220.195C436.461 219.754 437.374 219.008 438.016 218.051C438.658 217.094 439.001 215.97 439.001 214.819C439 214.054 438.848 213.296 438.552 212.589C438.257 211.882 437.824 211.24 437.279 210.699C436.734 210.159 436.088 209.73 435.376 209.439C434.664 209.147 433.902 208.997 433.132 208.999Z" fill="#E8EBF6"/>
<path d="M121.013 240.997C120.274 240.997 119.551 241.215 118.936 241.624C118.321 242.032 117.842 242.613 117.559 243.293C117.276 243.972 117.202 244.72 117.346 245.442C117.491 246.163 117.847 246.826 118.37 247.346C118.892 247.866 119.559 248.22 120.284 248.364C121.009 248.507 121.761 248.434 122.444 248.152C123.127 247.871 123.711 247.394 124.122 246.782C124.533 246.171 124.752 245.452 124.752 244.716C124.752 243.73 124.358 242.784 123.657 242.086C122.956 241.389 122.005 240.997 121.013 240.997" fill="#E8EBF6"/>
<path d="M278.475 134.885L280.825 132.551C281.019 132.358 281.173 132.128 281.278 131.876C281.383 131.623 281.437 131.352 281.436 131.079C281.436 130.806 281.381 130.535 281.276 130.283C281.17 130.03 281.016 129.801 280.821 129.608C280.627 129.415 280.396 129.262 280.142 129.157C279.888 129.053 279.616 129 279.341 129C279.066 129 278.794 129.055 278.54 129.159C278.287 129.264 278.056 129.418 277.862 129.612L275.512 131.943L273.159 129.612C272.766 129.222 272.235 129.004 271.681 129.004C271.127 129.004 270.596 129.223 270.204 129.612C269.811 130.001 269.591 130.529 269.589 131.081C269.588 131.632 269.807 132.161 270.197 132.551L272.547 134.885L270.197 137.217C269.805 137.608 269.584 138.137 269.584 138.69C269.584 139.242 269.805 139.772 270.197 140.163C270.59 140.553 271.123 140.773 271.678 140.773C272.233 140.773 272.766 140.553 273.159 140.163L275.512 137.825L277.862 140.163C278.255 140.553 278.787 140.773 279.343 140.773C279.898 140.773 280.431 140.554 280.824 140.164C281.217 139.773 281.438 139.243 281.438 138.69C281.438 138.138 281.218 137.608 280.825 137.217L278.475 134.885Z" fill="#E8EBF6"/>
<path d="M117.206 204.21L119.558 201.877C119.95 201.486 120.169 200.956 120.168 200.404C120.167 199.852 119.945 199.323 119.552 198.933C119.159 198.543 118.626 198.325 118.071 198.326C117.516 198.327 116.985 198.548 116.593 198.939L114.243 201.271L111.891 198.939C111.499 198.549 110.968 198.33 110.414 198.33C109.86 198.329 109.328 198.548 108.936 198.937C108.543 199.326 108.322 199.854 108.321 200.405C108.319 200.956 108.538 201.486 108.928 201.877L111.28 204.21L108.928 206.542C108.535 206.933 108.314 207.463 108.314 208.016C108.314 208.29 108.369 208.561 108.474 208.814C108.579 209.066 108.734 209.296 108.928 209.49C109.123 209.683 109.354 209.837 109.608 209.941C109.862 210.046 110.135 210.1 110.41 210.1C110.965 210.1 111.498 209.881 111.891 209.49L114.243 207.152L116.593 209.49C116.787 209.683 117.018 209.837 117.273 209.942C117.527 210.047 117.8 210.101 118.075 210.101C118.35 210.101 118.623 210.047 118.877 209.942C119.131 209.838 119.362 209.684 119.557 209.491C119.752 209.297 119.906 209.067 120.012 208.814C120.117 208.562 120.171 208.29 120.171 208.017C120.171 207.743 120.117 207.472 120.012 207.219C119.907 206.966 119.752 206.736 119.558 206.542L117.206 204.21Z" fill="#E8EBF6"/>
<path d="M395.373 347.299L397.364 345.324C397.533 345.161 397.667 344.967 397.76 344.752C397.852 344.537 397.9 344.305 397.902 344.071C397.904 343.838 397.858 343.606 397.769 343.389C397.68 343.173 397.548 342.977 397.382 342.811C397.215 342.646 397.017 342.516 396.8 342.427C396.582 342.339 396.349 342.294 396.114 342.296C395.878 342.299 395.646 342.347 395.43 342.44C395.214 342.532 395.019 342.666 394.855 342.834L392.864 344.809L390.873 342.834C390.539 342.505 390.087 342.321 389.617 342.321C389.147 342.321 388.695 342.505 388.361 342.834C388.03 343.165 387.845 343.613 387.845 344.079C387.845 344.546 388.03 344.993 388.361 345.324L390.354 347.299L388.361 349.274C388.035 349.607 387.854 350.054 387.857 350.518C387.861 350.983 388.048 351.427 388.379 351.755C388.709 352.083 389.157 352.268 389.624 352.27C390.091 352.272 390.54 352.091 390.873 351.766L392.864 349.791L394.855 351.766C395.187 352.097 395.638 352.283 396.108 352.283C396.578 352.284 397.03 352.098 397.362 351.768C397.695 351.437 397.882 350.989 397.882 350.521C397.883 350.054 397.696 349.605 397.364 349.274L395.373 347.299Z" fill="#E8EBF6"/>
<path d="M390 252.713C390.06 229.955 383.338 207.691 370.684 188.739C358.03 169.787 340.013 154.999 318.913 146.248C297.814 137.497 274.581 135.176 252.156 139.579C229.731 143.981 209.122 154.91 192.938 170.981C176.754 187.051 165.724 207.542 161.242 229.858C156.76 252.174 159.03 275.312 167.762 296.344C176.495 317.375 191.299 335.354 210.299 348.004C229.3 360.654 251.643 367.406 274.5 367.406C305.091 367.447 334.446 355.386 356.106 333.876C377.767 312.367 389.959 283.172 390 252.713Z" fill="#FBE6CD"/>
<g opacity="0.35">
<path d="M41.6337 321.521L18.2564 307.47L23.6997 299.671L23.8075 299.517L23.8527 299.334L25.2143 293.829L35.7782 273.552L43.6098 264.97L43.8487 264.708L43.8727 264.355L44.3683 257.068L52.0916 242.241L52.0918 242.241C53.6141 239.316 57.0535 237.945 60.1719 239.021L72.4063 243.242L75.4851 246.623L75.6595 246.815L75.9045 246.899C76.5375 247.118 77.2417 247.298 77.9103 247.47C77.949 247.48 77.9876 247.49 78.026 247.5C78.7478 247.685 79.4327 247.865 80.0533 248.086C81.3519 248.548 82.0006 249.065 82.1784 249.741L82.1788 249.742C82.4307 250.694 82.4674 251.689 82.2863 252.657L82.286 252.658L79.8807 265.583L76.617 272.218L76.4817 272.494L76.5214 272.798L77.3507 279.156L74.2487 295.817L71.2823 302.53L71.1776 302.767L71.1993 303.026L71.7309 309.343L68.8344 324.89L41.6337 321.521Z" fill="#E8EBF6" stroke="#022A80" stroke-width="2.03"/>
<path d="M12.1529 307.248L73.6465 328.463C76.7537 329.535 78.4036 332.922 77.3319 336.03L75.9768 339.957C74.9048 343.065 71.5172 344.714 68.41 343.642L6.91598 322.427C3.80875 321.355 2.15898 317.968 3.23095 314.861L4.58601 310.933C5.65798 307.826 9.04563 306.176 12.1529 307.248Z" fill="#022A80" stroke="#022A80" stroke-width="2.03"/>
<path d="M70.9019 333.812C71.6732 331.576 71.3938 329.232 70.3255 327.317L73.6464 328.463C76.7536 329.535 78.4033 332.923 77.3314 336.03L75.9764 339.957C74.9044 343.065 71.5165 344.714 68.4095 343.642L65.0885 342.497C67.1102 341.648 68.7756 339.975 69.5469 337.739L70.9019 333.812Z" fill="#5570C2" stroke="#022A80" stroke-width="2.03"/>
<path d="M83.1606 249.481L34.9385 272.965L43.3734 256.785L72.5634 242.569L72.9853 242.364L78.2426 244.178C80.7325 245.037 82.5252 247.07 83.1606 249.481ZM78.3791 279.183L18.4757 308.355L16.8014 307.778L24.2589 293.467L71.8548 270.288L80.8534 265.905L78.3791 279.183ZM72.7538 309.391L63.7597 313.772L51.4953 319.747L36.9851 314.741L75.227 296.117L72.7538 309.391Z" fill="#022A80"/>
<path d="M81.9211 248.957L76.3573 251.667L76.5979 250.378C76.5979 250.378 76.5979 250.378 76.598 250.378C76.598 250.378 76.598 250.378 76.598 250.378C76.8418 249.076 76.7775 247.781 76.459 246.572C76.2487 245.772 75.9255 245.009 75.503 244.306L77.9128 245.138C79.7967 245.788 81.2217 247.213 81.9211 248.957ZM79.4877 267.701L77.4762 278.495L70.7525 281.769L72.7603 270.977L79.4877 267.701ZM73.8614 297.913L71.8509 308.703L65.1277 311.978L67.1382 301.187L73.8614 297.913Z" fill="#5570C2" stroke="#022A80" stroke-width="2.03"/>
</g>
<g opacity="0.35">
<path d="M367.866 68.1414L348.591 71.5302L347.888 64.9143L347.868 64.727L347.782 64.5594L345.911 60.9009L342.039 44.7268L342.246 36.2791L342.254 35.9248L342.04 35.6421L338.858 31.4327L336.028 19.6133L336.028 19.613C335.498 17.4029 336.668 15.1349 338.777 14.285L347.48 10.7782L350.728 11.1597L350.985 11.1899L351.225 11.0931C351.69 10.906 352.174 10.6637 352.622 10.4394C352.649 10.4259 352.676 10.4124 352.703 10.399C353.191 10.1549 353.644 9.93138 354.079 9.76111C355.005 9.39831 355.49 9.4229 355.79 9.62714L355.791 9.62802C356.352 10.009 356.821 10.5103 357.164 11.0953L357.164 11.0964L362.01 19.343L363.379 24.5286L363.457 24.8251L363.687 25.0286L367.157 28.1085L373.389 38.7163L374.96 43.8084L375.036 44.056L375.222 44.2368L378.515 47.4398L384.216 57.1458L367.866 68.1414Z" fill="#E8EBF6" stroke="#022A80" stroke-width="2.03"/>
<path d="M344.981 74.905L389.05 57.1476C391.136 56.3069 393.509 57.3166 394.35 59.4032C394.35 59.4032 394.35 59.4032 394.35 59.4033L395.484 62.218C396.325 64.3046 395.315 66.6774 393.229 67.5182L349.159 85.2757C347.073 86.1165 344.7 85.1067 343.859 83.0201L342.725 80.2053C341.884 78.1187 342.894 75.7458 344.981 74.905Z" fill="#022A80" stroke="#022A80" stroke-width="2.03"/>
<path d="M390.25 61.057C389.665 59.6051 388.585 58.5012 387.283 57.8613L389.05 57.1492C391.136 56.3085 393.509 57.3185 394.35 59.4049L395.484 62.2197C396.325 64.3062 395.315 66.6792 393.229 67.5199L391.461 68.232C391.956 66.8679 391.969 65.3235 391.384 63.8718L390.25 61.057Z" fill="#5570C2" stroke="#022A80" stroke-width="2.03"/>
<path d="M356.362 8.78809L341.021 44.8351L337.922 31.8732L347.208 10.0531L347.342 9.73772L351.11 8.21959C352.894 7.50058 354.857 7.7633 356.362 8.78809ZM367.952 27.4556L348.896 72.2347L347.696 72.7181L344.953 61.2549L360.094 25.6761L362.957 18.9495L367.952 27.4556ZM379.32 46.807L376.459 53.5303L372.559 62.6996L362.16 66.8897L374.326 38.3032L379.32 46.807Z" fill="#022A80"/>
<path d="M355.074 9.22658L353.619 12.6448L353.41 12.2881C353.41 12.2879 353.41 12.2878 353.41 12.2876C352.9 11.4173 352.216 10.7047 351.429 10.1685L355.074 9.22658ZM355.074 9.22658C353.97 8.73477 352.681 8.68121 351.491 9.16088L350.407 9.59745M355.074 9.22658L350.407 9.59745M350.407 9.59745C350.762 9.75653 351.104 9.94721 351.428 10.1681L350.407 9.59745ZM361.23 25.6027L363.104 21.2006L366.82 27.5285L364.947 31.9282L361.23 25.6027ZM374.473 40.5542L378.188 46.8799L376.316 51.279L372.601 44.9532L374.473 40.5542Z" fill="#5570C2" stroke="#022A80" stroke-width="2.03"/>
</g>
<g opacity="0.35">
<path d="M503.284 299.326L482.098 309.556L479.074 302.02L479.004 301.845L478.875 301.707L475.533 298.109L465.839 280.81L463.333 271.049L463.245 270.706L462.962 270.492L457.924 266.681L450.836 254.035L450.836 254.034C449.467 251.593 450.093 248.514 452.307 246.799L461.171 239.937L465.06 239.313L465.316 239.272L465.521 239.114C465.985 238.754 466.456 238.325 466.898 237.922C466.924 237.898 466.95 237.874 466.975 237.851C467.454 237.414 467.907 237.006 468.357 236.664C469.306 235.943 469.941 235.758 470.449 235.927L470.45 235.928C471.243 236.191 471.967 236.628 472.569 237.206L472.57 237.207L480.807 245.094L484.067 250.609L484.223 250.873L484.499 251.006L489.496 253.42L500.104 263.579L503.563 268.918L503.704 269.135L503.932 269.259L508.761 271.87L518.579 281.276L503.284 299.326Z" fill="#E8EBF6" stroke="#022A80" stroke-width="2.03"/>
<path d="M479.044 314.176L523.731 279.577C525.931 277.873 529.095 278.276 530.798 280.476L533.008 283.33C534.712 285.53 534.309 288.694 532.109 290.397L487.421 324.996C485.222 326.7 482.058 326.297 480.355 324.097L478.145 321.243C476.441 319.043 476.844 315.879 479.044 314.176Z" fill="#022A80" stroke="#022A80" stroke-width="2.03"/>
<path d="M526.336 283.93C525.129 282.37 523.399 281.455 521.584 281.238L523.731 279.576C525.931 277.873 529.095 278.275 530.798 280.475L533.008 283.329C534.711 285.529 534.309 288.693 532.109 290.396L529.962 292.059C530.207 290.248 529.754 288.343 528.546 286.784L526.336 283.93Z" fill="#5570C2" stroke="#022A80" stroke-width="2.03"/>
<path d="M470.769 234.965L464.888 281.192L457.142 267.361L460.702 239.378L460.754 238.974L464.574 236.016C466.384 234.615 468.715 234.28 470.769 234.965ZM490.082 252.577L482.776 310.002L481.559 310.944L474.706 298.712L480.512 253.086L481.609 244.459L490.082 252.577ZM509.362 271.043L508.265 279.665L506.771 291.423L496.226 299.588L500.891 262.928L509.362 271.043Z" fill="#022A80"/>
<path d="M469.649 235.726L469.02 240.673L468.389 240.068C468.389 240.068 468.389 240.068 468.389 240.068C468.389 240.068 468.389 240.068 468.389 240.067C467.544 239.257 466.555 238.677 465.507 238.327L469.649 235.726ZM469.649 235.726C468.121 235.453 466.498 235.811 465.195 236.819L463.723 237.959M469.649 235.726L463.723 237.959M463.723 237.959C464.328 238.01 464.926 238.133 465.506 238.327L463.723 237.959ZM482.362 246.587L489.011 252.957L488.232 259.074L481.583 252.707L482.362 246.587ZM501.643 265.056L508.29 271.423L507.512 277.54L500.865 271.172L501.643 265.056Z" fill="#5570C2" stroke="#022A80" stroke-width="2.03"/>
</g>
<rect x="170" y="162.89" width="203" height="145" rx="11" fill="white"/>
<path d="M300.034 275.143H244C243.208 275.143 242.448 274.832 241.886 274.277C241.324 273.722 241.006 272.968 241 272.18C241.001 271.389 241.318 270.631 241.88 270.071C242.443 269.512 243.205 269.197 244 269.196H300.062C300.857 269.197 301.619 269.512 302.182 270.071C302.744 270.631 303.061 271.389 303.062 272.18C303.046 272.97 302.72 273.721 302.154 274.275C301.588 274.828 300.828 275.14 300.034 275.143Z" fill="#F3F6FA"/>
<path d="M246.707 317.39V309.39H296.207V312.89L297.207 317.39L298.707 323.39L301.207 326.89L304.707 330.39C306.04 331.056 308.907 332.59 309.707 333.39C310.707 334.39 318.207 333.39 319.207 334.39C320.007 335.19 327.874 334.723 331.707 334.39C335.04 334.056 342.107 333.39 343.707 333.39C345.307 333.39 347.707 334.723 348.707 335.39L352.207 338.89L355.207 343.89V345.89H189.207L188.707 342.39L191.707 337.39L201.707 333.39H232.707L238.707 331.89C240.207 330.056 243.307 326.19 243.707 325.39C244.107 324.59 245.874 319.723 246.707 317.39Z" fill="#E8EBF6" stroke="#5570C2"/>
<path d="M247.072 309.192V315.325C247.072 325.445 238.792 333.724 228.673 333.724" stroke="#022A80" stroke-width="4" stroke-miterlimit="10" stroke-linecap="round" stroke-linejoin="round"/>
<path d="M296.136 309.192V315.325C296.136 325.445 304.415 333.724 314.535 333.724" stroke="#022A80" stroke-width="4" stroke-miterlimit="10" stroke-linecap="round" stroke-linejoin="round"/>
<path d="M360.941 162H182.266C175.52 162 170 167.52 170 174.266V296.926C170 303.672 175.52 309.192 182.266 309.192H360.941C367.687 309.192 373.207 303.672 373.207 296.926V174.266C373.207 167.52 367.687 162 360.941 162Z" stroke="#022A80" stroke-width="4" stroke-miterlimit="10" stroke-linecap="round" stroke-linejoin="round"/>
<path d="M271.045 247.88C279.87 247.88 287.023 240.764 287.023 231.986C287.023 223.208 279.87 216.092 271.045 216.092C262.22 216.092 255.066 223.208 255.066 231.986C255.066 240.764 262.22 247.88 271.045 247.88Z" fill="#FCECDA"/>
<path d="M235.792 250.888H243.77V243.547H248.978V236.844H243.77V210.915H232.025C226.706 219.114 221.276 227.979 216.207 236.982V243.547H235.792V250.888ZM223.742 237.065V236.622C227.343 230.167 231.637 223.214 235.515 217.258H235.958V237.065H223.742Z" fill="#022A80"/>
<path d="M271.491 251.913C281.381 251.913 287.364 243.824 287.364 230.915V230.86C287.364 217.923 281.381 209.89 271.491 209.89C261.629 209.89 255.618 217.923 255.618 230.86V230.915C255.618 243.824 261.629 251.913 271.491 251.913ZM271.491 245.293C266.782 245.293 264.095 239.946 264.095 230.915V230.86C264.095 221.801 266.782 216.51 271.491 216.51C276.228 216.51 278.915 221.801 278.915 230.86V230.915C278.915 239.946 276.228 245.293 271.491 245.293Z" fill="#022A80"/>
<path d="M313.339 250.888H321.318V243.547H326.526V236.844H321.318V210.915H309.572C304.253 219.114 298.824 227.979 293.754 236.982V243.547H313.339V250.888ZM301.289 237.065V236.622C304.89 230.167 309.184 223.214 313.062 217.258H313.506V237.065H301.289Z" fill="#022A80"/>
<path d="M373.414 284.66H170.207" stroke="#022A80" stroke-width="4" stroke-miterlimit="10" stroke-linecap="round" stroke-linejoin="round"/>
<path d="M265.471 333.724H200.665C193.919 333.724 188.399 339.244 188.399 345.99H354.808C354.808 339.244 349.289 333.724 342.542 333.724H277.737" stroke="#022A80" stroke-width="4" stroke-miterlimit="10" stroke-linecap="round" stroke-linejoin="round"/>
<path d="M351.35 241.049L351.35 241.049C355.617 235.941 363.894 235.942 368.16 241.05C373.445 247.379 379.693 255.42 386.166 264.959C395.674 278.973 403.783 293.429 410.354 308.069C413.2 314.41 408.48 321.211 401.471 321.777C391.468 322.585 378.635 323.243 363.389 323.243H363.388C348.602 323.243 333.463 322.62 318.23 321.388C311.216 320.82 306.475 314.012 309.338 307.662C315.897 293.112 323.976 278.748 333.436 264.822C339.876 255.341 346.091 247.346 351.35 241.049Z" fill="#FCECDA" stroke="#022A80" stroke-width="3"/>
<path d="M362.406 261.149C360.695 260.99 358.984 260.99 357.274 261.149C355.109 261.349 353.452 263.013 353.372 265.015C353.112 271.559 353.112 278.111 353.372 284.655C353.452 286.657 355.109 288.321 357.274 288.521C358.984 288.68 360.695 288.68 362.406 288.521C364.57 288.321 366.227 286.657 366.307 284.655C366.568 278.111 366.568 271.559 366.307 265.015C366.227 263.013 364.57 261.349 362.406 261.149ZM362.282 295.706C360.654 295.635 359.026 295.635 357.398 295.706C355.154 295.805 353.352 297.468 353.251 299.534C353.152 301.548 353.152 303.562 353.251 305.576C353.352 307.642 355.154 309.305 357.398 309.404C359.026 309.476 360.654 309.476 362.282 309.404C364.526 309.305 366.327 307.642 366.429 305.576C366.527 303.563 366.527 301.547 366.429 299.534C366.327 297.468 364.526 295.805 362.282 295.706Z" fill="#022A80"/>
<g style="mix-blend-mode:multiply" opacity="0.6">
<path d="M359.182 268.836C353.973 292.278 365.152 316.046 371.392 325C381.431 324.457 402.16 323.209 404.765 322.557C408.021 321.743 409.649 320.116 411.277 317.674C412.905 315.232 411.277 311.162 411.277 309.534C411.277 307.906 403.951 299.766 401.509 294.882C399.067 289.999 394.998 281.045 391.742 275.347C388.486 269.649 381.16 257.44 376.276 250.928C371.392 244.416 367.323 237.905 361.625 236.277C355.927 234.649 365.694 239.533 359.182 268.836Z" fill="#F0D2B0"/>
</g>
<path d="M228.056 192H315.944C319.404 191.994 322.721 190.991 325.167 189.209C327.614 187.427 328.992 185.012 329 182.492V178.508C328.992 175.989 327.615 173.575 325.17 171.793C322.725 170.011 319.411 169.007 315.952 169H228.064C224.602 169.004 221.284 170.007 218.835 171.789C216.387 173.571 215.008 175.987 215 178.508V182.492C215.019 185.009 216.4 187.42 218.845 189.2C221.289 190.98 224.599 191.986 228.056 192Z" fill="#F3F6FA"/>
</svg>
