<svg width="340" height="474" viewBox="0 0 340 474" fill="none" xmlns="http://www.w3.org/2000/svg">
<g opacity="0.1">
<path d="M306.686 440.934C317.344 450.386 326.689 461.221 334.471 473.152C342.292 461.232 351.654 450.399 362.315 440.934C354.21 429.34 344.875 418.656 334.471 409.07C324.119 418.688 314.805 429.369 306.686 440.934Z" fill="white"/>
<path d="M16.0201 179.795C9.16602 199.502 3.8109 219.698 0 240.211C29.8703 226.318 62.3761 219.003 95.3181 218.758C128.26 218.514 160.869 225.345 190.942 238.792C213.778 248.973 234.898 262.634 253.547 279.287C276.542 299.828 295.681 324.312 310.062 351.585C320.938 371.987 329.143 393.702 334.476 416.198C339.801 393.568 348.006 371.714 358.89 351.171C304.208 236.782 198.804 168.504 90.4457 168.445C65.2278 168.445 40.1491 172.169 16.0201 179.499" fill="white"/>
<path d="M67.3367 80.1667C203.657 69.4076 339.268 143.065 415.645 279.267C434.28 262.567 455.426 248.901 478.308 238.773C403.291 102.334 278.201 17.7987 144.245 0.773438C114.705 23.1366 88.7848 49.9154 67.3944 80.1667" fill="white"/>
<path d="M310.3 351.657C321.176 372.058 329.384 393.774 334.717 416.269C361.496 302.827 457.559 218.824 572.065 218.824C605.667 218.831 638.858 226.195 669.309 240.401C665.533 219.841 660.178 199.602 653.289 179.866C629.159 172.54 604.081 168.816 578.863 168.812C470.386 168.813 364.923 237.209 310.3 351.657Z" fill="white"/>
<path d="M191.187 238.832C214.022 249.013 235.143 262.674 253.792 279.327C330.051 143.065 465.78 69.4076 602.219 80.1667C580.842 49.9039 554.92 23.1232 525.369 0.773438C391.472 17.7987 266.323 102.334 191.305 238.832" fill="white"/>
</g>
</svg>
