<svg width="32" height="32" viewBox="0 0 32 32" fill="none" xmlns="http://www.w3.org/2000/svg">
<path d="M21.4993 9.69665L9.69327 21.5027C9.30854 21.8874 9.28905 22.4917 9.64975 22.8524L9.7185 22.9212C10.0792 23.2819 10.6835 23.2624 11.0682 22.8777L22.8743 11.0716C23.259 10.6869 23.2785 10.0826 22.9178 9.72187L22.8491 9.65312C22.4884 9.29242 21.8841 9.31191 21.4993 9.69665Z" fill="white"/>
<path d="M22.2777 21.702L10.4716 9.89597C10.0869 9.51123 9.48256 9.49175 9.12186 9.85245L9.05311 9.92119C8.69241 10.2819 8.7119 10.8862 9.09664 11.2709L20.9027 23.077C21.2874 23.4617 21.8917 23.4812 22.2524 23.1205L22.3212 23.0518C22.6819 22.6911 22.6624 22.0868 22.2777 21.702Z" fill="white"/>
<circle cx="16" cy="16" r="15.5" stroke="white"/>
</svg>
