<svg width="25" height="25" viewBox="0 0 25 25" fill="none" xmlns="http://www.w3.org/2000/svg">
<path d="M6.77539 13.1229C6.77539 13.7539 7.28866 14.2669 7.91942 14.2669H17.0335C17.6643 14.2669 18.1775 13.7539 18.1775 13.1229C18.1775 12.6152 17.843 12.1889 17.3846 12.0397V8.07363L17.3902 8.07758C17.5094 8.16303 17.666 8.1741 17.7959 8.10696C17.9259 8.0402 18.0078 7.9063 18.0078 7.75982V6.23394C18.0078 6.10767 17.9469 5.98942 17.8441 5.91618L12.7256 2.26017C12.5898 2.16328 12.4074 2.16328 12.2716 2.26017L10.2885 3.67666V2.87815C10.2885 2.66224 10.1136 2.48753 9.89791 2.48753H8.53816C8.32244 2.48753 8.14754 2.66224 8.14754 2.87815V5.20595L7.15324 5.91618C7.05043 5.98942 6.98959 6.10767 6.98959 6.23394V7.75982C6.98959 7.9063 7.07141 8.0402 7.20149 8.10734C7.25776 8.13633 7.31918 8.15044 7.38021 8.15044C7.46013 8.15044 7.53967 8.12603 7.60719 8.07758L7.61272 8.07363V12.0259C7.13142 12.161 6.77539 12.5989 6.77539 13.1229ZM17.0335 13.4857H7.91942C7.71934 13.4857 7.55664 13.3228 7.55664 13.1229C7.55664 12.923 7.71934 12.7601 7.91942 12.7601H7.99955L8.00334 12.7609L8.00713 12.7601H16.9902L16.994 12.7609L16.9978 12.7601H17.0335C17.2336 12.7601 17.3963 12.923 17.3963 13.1229C17.3963 13.3228 17.2336 13.4857 17.0335 13.4857ZM8.92879 3.26878H9.50729V4.2347L8.92879 4.64791V3.26878ZM7.77084 6.43497L12.4986 3.05782L17.2265 6.43497V7.00069L12.7256 3.78605C12.6577 3.7376 12.5781 3.71319 12.4986 3.71319C12.419 3.71319 12.3395 3.7376 12.2716 3.78605L7.77084 7.00069V6.43497ZM12.4986 4.5837L16.6034 7.51561V11.9789H8.39397V7.51558L12.4986 4.5837Z" fill="white"/>
<path d="M11.1835 8.77119H12.1071V9.69511C12.1071 9.91103 12.282 10.0857 12.4977 10.0857C12.7134 10.0857 12.8883 9.91103 12.8883 9.69511V8.77119H13.8121C14.0278 8.77119 14.2027 8.59648 14.2027 8.38057C14.2027 8.16466 14.0278 7.98994 13.8121 7.98994H12.8883V7.06641C12.8883 6.85049 12.7134 6.67578 12.4977 6.67578C12.282 6.67578 12.1071 6.85049 12.1071 7.06641V7.98994H11.1835C10.9678 7.98994 10.7929 8.16466 10.7929 8.38057C10.7929 8.59648 10.9678 8.77119 11.1835 8.77119ZM20.1773 12.3879C19.6093 12.3879 19.1343 12.8136 19.0723 13.3782L18.7384 16.4128L18.005 16.9561C17.9406 16.7814 17.8373 16.6232 17.6916 16.499C17.2922 16.1572 16.7028 16.1465 16.2907 16.4734L15.3353 17.2318C14.7591 17.69 14.4287 18.3743 14.4287 19.1098V22.4213C14.4287 22.6372 14.6036 22.812 14.8193 22.812C15.0351 22.812 15.21 22.6372 15.21 22.4213V19.1098C15.21 18.6139 15.4327 18.1523 15.8211 17.8437L16.7763 17.0853C16.8961 16.9903 17.0673 16.993 17.1843 17.093C17.2504 17.1494 17.2901 17.2288 17.2958 17.3157C17.3018 17.4027 17.2728 17.4866 17.2144 17.5515L16.0549 18.8397C15.9105 18.9999 15.9235 19.2471 16.0839 19.3913C16.2441 19.5355 16.4913 19.5229 16.6355 19.3623L17.769 18.1032L19.3405 16.9392C19.4279 16.8744 19.4843 16.7763 19.4963 16.668L19.849 13.4637C19.8673 13.2958 20.0085 13.1692 20.1773 13.1692C20.3596 13.1692 20.5078 13.3172 20.5078 13.4995V17.8319L18.0321 20.6757C17.9703 20.7467 17.9361 20.8378 17.9361 20.9321V22.4213C17.9361 22.6372 18.111 22.812 18.3268 22.812C18.5425 22.812 18.7174 22.6372 18.7174 22.4213V21.0782L21.1931 18.2343C21.2549 18.1634 21.2891 18.0722 21.2891 17.978V13.4995C21.2891 12.8865 20.7903 12.3879 20.1773 12.3879ZM9.66454 17.2318L8.70934 16.4734C8.29697 16.1465 7.70817 16.158 7.30877 16.4986C7.16283 16.6231 7.05938 16.7814 6.99503 16.9561L6.26163 16.4128L5.92766 13.3782C5.86567 12.8136 5.39074 12.3879 4.82273 12.3879C4.20971 12.3879 3.71094 12.8865 3.71094 13.4995V17.978C3.71094 18.0722 3.74508 18.1634 3.80688 18.2343L6.28262 21.0782V22.4213C6.28262 22.6372 6.45752 22.812 6.67324 22.812C6.88896 22.812 7.06387 22.6372 7.06387 22.4213V20.9321C7.06387 20.8378 7.02972 20.7467 6.96793 20.6757L4.49219 17.8319V13.4995C4.49219 13.3172 4.64039 13.1692 4.82273 13.1692C4.99153 13.1692 5.13268 13.2958 5.15099 13.4637L5.50365 16.668C5.51567 16.7763 5.57213 16.8744 5.65948 16.9392L7.23157 18.1036L8.36449 19.3623C8.50868 19.5229 8.75587 19.5355 8.91609 19.3913C9.0765 19.2471 9.08947 18.9999 8.94508 18.8397L7.7858 17.5515C7.72724 17.4866 7.69825 17.4027 7.70416 17.3157C7.70988 17.2288 7.74956 17.1494 7.81612 17.0926C7.93209 16.9938 8.10356 16.9907 8.22372 17.0853L9.17873 17.8437C9.56726 18.1523 9.79004 18.6139 9.79004 19.1098V22.4213C9.79004 22.6372 9.96494 22.812 10.1807 22.812C10.3964 22.812 10.5713 22.6372 10.5713 22.4213V19.1098C10.5713 18.3743 10.2409 17.69 9.66454 17.2318Z" fill="white"/>
</svg>
