<svg width="19" height="25" viewBox="0 0 19 25" fill="none" xmlns="http://www.w3.org/2000/svg">
<path d="M17.5768 10.3926C17.3002 10.3924 17.0263 10.4467 16.7707 10.5524C16.5151 10.6582 16.2829 10.8133 16.0873 11.0089C15.8917 11.2045 15.7366 11.4367 15.6308 11.6923C15.5251 11.9479 15.4708 12.2218 15.471 12.4984V15.4557L13.9392 16.9883C13.8767 16.8591 13.7929 16.7415 13.6914 16.6401C13.4539 16.4037 13.1325 16.2709 12.7974 16.2709C12.4623 16.2709 12.1408 16.4037 11.9034 16.6401L9.22009 19.3225C9.19227 19.3504 9.17204 19.3824 9.14675 19.4119C9.12146 19.3841 9.10207 19.3529 9.07594 19.3259C9.07594 19.3259 7.01142 17.2614 6.39518 16.6367C6.15597 16.4013 5.83382 16.2694 5.49822 16.2694C5.16262 16.2694 4.84047 16.4013 4.60126 16.6367C4.50082 16.7416 4.41976 16.8635 4.36185 16.9967L2.82589 15.4607V12.5001C2.82258 11.9422 2.59947 11.408 2.20495 11.0135C1.81043 10.619 1.2763 10.3959 0.718378 10.3926C0.606588 10.3926 0.499378 10.437 0.42033 10.516C0.341283 10.5951 0.296875 10.7023 0.296875 10.8141V12.5001C0.296875 12.6119 0.341283 12.7191 0.42033 12.7981C0.499378 12.8772 0.606588 12.9216 0.718378 12.9216C0.830168 12.9216 0.937378 12.8772 1.01643 12.7981C1.09547 12.7191 1.13988 12.6119 1.13988 12.5001V11.3089C1.38451 11.3987 1.59609 11.5607 1.74663 11.7734C1.89716 11.9861 1.97955 12.2395 1.98289 12.5001V15.6361C1.9829 15.6915 1.99385 15.7464 2.01512 15.7976C2.03638 15.8488 2.06754 15.8954 2.10681 15.9345L6.05545 19.8798C6.09338 19.9126 6.12542 19.9438 6.16167 19.9801L6.56631 20.3847C6.64629 20.4584 6.75166 20.4984 6.86041 20.4962C6.96916 20.494 7.07285 20.4499 7.14982 20.3731C7.22678 20.2962 7.27106 20.1926 7.27339 20.0838C7.27571 19.9751 7.23592 19.8696 7.16232 19.7896L6.75009 19.3765C6.71044 19.3356 6.6685 19.2971 6.62448 19.261L5.20064 17.8363C5.19558 17.8304 5.1939 17.8228 5.18884 17.8169C5.11484 17.738 5.07408 17.6337 5.07503 17.5255C5.07597 17.4173 5.11854 17.3137 5.1939 17.2361C5.23299 17.196 5.27964 17.164 5.33115 17.142C5.38266 17.1199 5.43802 17.1083 5.49404 17.1078C5.55006 17.1072 5.60564 17.1177 5.65757 17.1388C5.70951 17.1598 5.75677 17.1908 5.79665 17.2302C6.41204 17.854 8.47993 19.9219 8.47993 19.9219C8.55838 19.9999 8.6206 20.0926 8.663 20.1948C8.70539 20.2969 8.72712 20.4065 8.72693 20.5171V23.8807H4.5119V22.6162C4.51184 22.533 4.4872 22.4518 4.44109 22.3827L1.13988 17.4308V15.8721C1.13988 15.7603 1.09547 15.6531 1.01643 15.5741C0.937378 15.495 0.830168 15.4506 0.718378 15.4506C0.606588 15.4506 0.499378 15.495 0.42033 15.5741C0.341283 15.6531 0.296875 15.7603 0.296875 15.8721V17.5581C0.29694 17.6412 0.321576 17.7225 0.367688 17.7916L3.6689 22.7435V23.8807H3.2474C3.13561 23.8807 3.02839 23.9251 2.94935 24.0041C2.8703 24.0832 2.82589 24.1904 2.82589 24.3022C2.82589 24.414 2.8703 24.5212 2.94935 24.6002C3.02839 24.6793 3.13561 24.7237 3.2474 24.7237H15.0495C15.1613 24.7237 15.2685 24.6793 15.3475 24.6002C15.4266 24.5212 15.471 24.414 15.471 24.3022C15.471 24.1904 15.4266 24.0832 15.3475 24.0041C15.2685 23.9251 15.1613 23.8807 15.0495 23.8807H14.628V22.7435L17.9292 17.7916C17.9753 17.7225 17.9999 17.6412 18 17.5581L17.9983 10.8141C17.9983 10.7023 17.9539 10.5951 17.8749 10.516C17.7958 10.437 17.6886 10.3926 17.5768 10.3926ZM17.157 17.4308L13.8558 22.3827C13.8097 22.4518 13.785 22.533 13.785 22.6162V23.8807H9.56994V20.5146C9.56962 20.4039 9.59121 20.2942 9.63346 20.1919C9.6757 20.0897 9.73778 19.9967 9.8161 19.9185L12.4994 17.2361C12.5771 17.1556 12.6836 17.1093 12.7954 17.1073C12.9073 17.1053 13.0153 17.1479 13.0958 17.2256C13.1763 17.3033 13.2226 17.4097 13.2246 17.5216C13.2266 17.6334 13.184 17.7415 13.1063 17.822L11.1379 19.7896C11.0977 19.8284 11.0656 19.875 11.0435 19.9264C11.0214 19.9778 11.0098 20.0331 11.0093 20.0891C11.0088 20.1451 11.0194 20.2006 11.0406 20.2524C11.0618 20.3042 11.0931 20.3512 11.1327 20.3908C11.1723 20.4304 11.2193 20.4617 11.2711 20.4829C11.3229 20.5041 11.3785 20.5147 11.4344 20.5142C11.4904 20.5138 11.5457 20.5021 11.5971 20.48C11.6485 20.4579 11.6951 20.4258 11.7339 20.3856L13.6914 18.4281L13.7091 18.4104L16.1538 15.9657C16.2039 15.9262 16.2443 15.8759 16.2721 15.8185C16.2998 15.7611 16.3141 15.6981 16.314 15.6344V12.4984C16.3142 12.2371 16.3954 11.9823 16.5463 11.7689C16.6973 11.5556 16.9106 11.3943 17.157 11.3072V17.4308Z" fill="white" stroke="white" stroke-width="0.25"/>
<path d="M9.14767 3.64839C8.62344 3.64596 8.11153 3.8072 7.68332 4.10963C7.25512 4.41206 6.93198 4.84059 6.75898 5.33545C6.58598 5.83032 6.57175 6.36684 6.71827 6.87018C6.86478 7.37353 7.16474 7.81859 7.57631 8.1433C6.67987 8.46686 5.90479 9.05858 5.35639 9.83804C4.80799 10.6175 4.51287 11.5469 4.51114 12.5C4.51114 12.6117 4.55555 12.719 4.63459 12.798C4.71364 12.877 4.82085 12.9215 4.93264 12.9215H13.3627C13.4745 12.9215 13.5817 12.877 13.6607 12.798C13.7398 12.719 13.7842 12.6117 13.7842 12.5C13.7825 11.5469 13.4873 10.6175 12.939 9.83804C12.3906 9.05858 11.6155 8.46686 10.719 8.1433C11.1306 7.81859 11.4306 7.37353 11.5771 6.87018C11.7236 6.36684 11.7094 5.83032 11.5364 5.33545C11.3634 4.84059 11.0402 4.41206 10.612 4.10963C10.1838 3.8072 9.6719 3.64596 9.14767 3.64839ZM12.9184 12.0785H5.37775C5.4808 11.1506 5.9224 10.2932 6.61804 9.6706C7.31368 9.04794 8.21449 8.70367 9.14809 8.70367C10.0817 8.70367 10.9825 9.04794 11.6781 9.6706C12.3738 10.2932 12.8154 11.1506 12.9184 12.0785ZM9.14767 7.86342C8.81421 7.86342 8.48823 7.76454 8.21097 7.57928C7.93371 7.39401 7.71761 7.1307 7.59 6.82262C7.46239 6.51454 7.429 6.17554 7.49405 5.84848C7.55911 5.52143 7.71969 5.22101 7.95548 4.98522C8.19127 4.74942 8.49169 4.58885 8.81875 4.52379C9.1458 4.45874 9.4848 4.49213 9.79288 4.61974C10.101 4.74735 10.3643 4.96345 10.5495 5.24071C10.7348 5.51797 10.8337 5.84395 10.8337 6.17741C10.8332 6.62443 10.6555 7.05301 10.3394 7.36911C10.0233 7.6852 9.59469 7.86297 9.14767 7.86342ZM9.56917 1.54003V0.69787C9.56917 0.586081 9.52476 0.47887 9.44572 0.399823C9.36667 0.320775 9.25946 0.276367 9.14767 0.276367C9.03588 0.276367 8.92867 0.320775 8.84962 0.399823C8.77057 0.47887 8.72617 0.586081 8.72617 0.69787V1.54003C8.72617 1.65182 8.77057 1.75903 8.84962 1.83808C8.92867 1.91713 9.03588 1.96154 9.14767 1.96154C9.25946 1.96154 9.36667 1.91713 9.44572 1.83808C9.52476 1.75903 9.56917 1.65182 9.56917 1.54003ZM6.83109 2.58283C6.90508 2.58283 6.97776 2.56335 7.04184 2.52636C7.10591 2.48936 7.15912 2.43615 7.19611 2.37208C7.23311 2.308 7.25258 2.23531 7.25258 2.16133C7.25258 2.08734 7.23311 2.01465 7.19611 1.95058L6.77461 1.22053C6.74713 1.17221 6.71037 1.1298 6.66644 1.09574C6.62251 1.06168 6.57227 1.03665 6.51863 1.02209C6.46498 1.00752 6.40898 1.00371 6.35386 1.01088C6.29873 1.01804 6.24557 1.03604 6.19743 1.06383C6.14929 1.09163 6.10713 1.12867 6.07336 1.17283C6.03959 1.21699 6.0149 1.26739 6.00069 1.32113C5.98648 1.37487 5.98304 1.43089 5.99057 1.48596C5.9981 1.54104 6.01645 1.59408 6.04457 1.64204L6.46607 2.37208C6.50306 2.43615 6.55627 2.48936 6.62034 2.52636C6.68442 2.56335 6.7571 2.58283 6.83109 2.58283ZM4.92421 4.22163C4.98809 4.25919 5.06086 4.27898 5.13496 4.27896C5.22775 4.27896 5.31794 4.24834 5.39154 4.19185C5.46515 4.13537 5.51807 4.05617 5.54208 3.96655C5.5661 3.87693 5.55987 3.78189 5.52437 3.69616C5.48886 3.61044 5.42606 3.53883 5.34571 3.49243L4.61567 3.07093C4.56771 3.04282 4.51467 3.02447 4.4596 3.01694C4.40452 3.00941 4.3485 3.01285 4.29476 3.02705C4.24102 3.04126 4.19062 3.06596 4.14646 3.09973C4.1023 3.13349 4.06526 3.17566 4.03747 3.2238C4.00967 3.27194 3.99168 3.3251 3.98451 3.38023C3.97735 3.43535 3.98115 3.49135 3.99572 3.54499C4.01028 3.59864 4.03532 3.64887 4.06937 3.69281C4.10343 3.73674 4.14584 3.7735 4.19417 3.80098L4.92421 4.22163ZM3.25 6.17404C3.25 6.28583 3.29441 6.39304 3.37346 6.47208C3.4525 6.55113 3.55971 6.59554 3.6715 6.59554H4.51451C4.6263 6.59554 4.73351 6.55113 4.81256 6.47208C4.8916 6.39304 4.93601 6.28583 4.93601 6.17404C4.93601 6.06225 4.8916 5.95504 4.81256 5.87599C4.73351 5.79694 4.6263 5.75253 4.51451 5.75253H3.6715C3.55971 5.75253 3.4525 5.79694 3.37346 5.87599C3.29441 5.95504 3.25 6.06225 3.25 6.17404ZM11.4642 2.58283C11.5383 2.58292 11.611 2.56347 11.6751 2.52647C11.7391 2.48947 11.7923 2.43621 11.8293 2.37208L12.2508 1.64204C12.2789 1.59408 12.2972 1.54104 12.3048 1.48596C12.3123 1.43089 12.3089 1.37487 12.2947 1.32113C12.2804 1.26739 12.2557 1.21699 12.222 1.17283C12.1882 1.12867 12.146 1.09163 12.0979 1.06383C12.0498 1.03604 11.9966 1.01804 11.9415 1.01088C11.8864 1.00371 11.8304 1.00752 11.7767 1.02209C11.7231 1.03665 11.6728 1.06168 11.6289 1.09574C11.585 1.1298 11.5482 1.17221 11.5207 1.22053L11.0992 1.95058C11.0622 2.01465 11.0428 2.08734 11.0428 2.16133C11.0428 2.23531 11.0622 2.308 11.0992 2.37208C11.1362 2.43615 11.1894 2.48936 11.2535 2.52636C11.3176 2.56335 11.3903 2.58283 11.4642 2.58283ZM13.6797 3.07093L12.9505 3.49243C12.8701 3.53883 12.8073 3.61044 12.7718 3.69616C12.7363 3.78189 12.7301 3.87693 12.7541 3.96655C12.7781 4.05617 12.831 4.13537 12.9046 4.19185C12.9782 4.24834 13.0684 4.27896 13.1612 4.27896C13.2352 4.27924 13.308 4.25974 13.372 4.22248L14.1012 3.80098C14.1972 3.74468 14.2671 3.6527 14.2955 3.54509C14.324 3.43748 14.3087 3.32299 14.253 3.2266C14.1974 3.1302 14.1059 3.05974 13.9984 3.03057C13.891 3.00141 13.7764 3.01592 13.6797 3.07093ZM13.3602 6.17404C13.3602 6.28583 13.4046 6.39304 13.4836 6.47208C13.5627 6.55113 13.6699 6.59554 13.7817 6.59554H14.6247C14.7365 6.59554 14.8437 6.55113 14.9227 6.47208C15.0018 6.39304 15.0462 6.28583 15.0462 6.17404C15.0462 6.06225 15.0018 5.95504 14.9227 5.87599C14.8437 5.79694 14.7365 5.75253 14.6247 5.75253H13.7817C13.6699 5.75253 13.5627 5.79694 13.4836 5.87599C13.4046 5.95504 13.3602 6.06225 13.3602 6.17404Z" fill="white"/>
<path d="M0.718378 14.6077C0.951168 14.6077 1.13988 14.4189 1.13988 14.1862C1.13988 13.9534 0.951168 13.7646 0.718378 13.7646C0.485588 13.7646 0.296875 13.9534 0.296875 14.1862C0.296875 14.4189 0.485588 14.6077 0.718378 14.6077Z" fill="white"/>
</svg>
