<svg width="24" height="24" viewBox="0 0 24 24" fill="none" xmlns="http://www.w3.org/2000/svg">
<path fill-rule="evenodd" clip-rule="evenodd" d="M11.9996 14.6953C12.1705 14.6953 12.3344 14.7632 12.4553 14.8841C12.5762 15.0049 12.6441 15.1689 12.6441 15.3398V20.7103H15.4367C15.6077 20.7103 15.7716 20.7782 15.8924 20.8991C16.0133 21.0199 16.0812 21.1839 16.0812 21.3548C16.0812 21.5257 16.0133 21.6896 15.8924 21.8105C15.7716 21.9314 15.6077 21.9993 15.4367 21.9993H8.56243C8.39151 21.9993 8.22759 21.9314 8.10673 21.8105C7.98587 21.6896 7.91797 21.5257 7.91797 21.3548C7.91797 21.1839 7.98587 21.0199 8.10673 20.8991C8.22759 20.7782 8.39151 20.7103 8.56243 20.7103H11.3551V15.3398C11.3551 15.1689 11.423 15.0049 11.5439 14.8841C11.6647 14.7632 11.8287 14.6953 11.9996 14.6953Z" fill="#2EDF84"/>
<path fill-rule="evenodd" clip-rule="evenodd" d="M6.19922 5.88861C6.19922 5.71768 6.26712 5.55376 6.38798 5.4329C6.50884 5.31204 6.67276 5.24414 6.84368 5.24414H17.1551C17.3261 5.24414 17.49 5.31204 17.6108 5.4329C17.7317 5.55376 17.7996 5.71768 17.7996 5.88861C17.7996 6.05953 17.7317 6.22345 17.6108 6.34431C17.49 6.46517 17.3261 6.53307 17.1551 6.53307H6.84368C6.67276 6.53307 6.50884 6.46517 6.38798 6.34431C6.26712 6.22345 6.19922 6.05953 6.19922 5.88861ZM8.77708 8.46647C8.77708 8.29555 8.84498 8.13163 8.96584 8.01077C9.0867 7.8899 9.25063 7.82201 9.42155 7.82201H14.5773C14.7482 7.82201 14.9121 7.8899 15.033 8.01077C15.1538 8.13163 15.2217 8.29555 15.2217 8.46647C15.2217 8.63739 15.1538 8.80132 15.033 8.92218C14.9121 9.04304 14.7482 9.11094 14.5773 9.11094H9.42155C9.25063 9.11094 9.0867 9.04304 8.96584 8.92218C8.84498 8.80132 8.77708 8.63739 8.77708 8.46647ZM10.2808 9.54058C9.88202 9.54058 9.49953 9.69901 9.21752 9.98102C8.93551 10.263 8.77708 10.6455 8.77708 11.0443V14.4815C8.77708 15.3124 9.44991 15.9852 10.2808 15.9852H13.718C14.1168 15.9852 14.4993 15.8268 14.7813 15.5448C15.0633 15.2628 15.2217 14.8803 15.2217 14.4815V11.0443C15.2217 10.6455 15.0633 10.263 14.7813 9.98102C14.4993 9.69901 14.1168 9.54058 13.718 9.54058H10.2808Z" fill="#ECEEEC"/>
<path fill-rule="evenodd" clip-rule="evenodd" d="M8.77734 11.0438C8.77734 10.2129 9.45017 9.54004 10.2811 9.54004H12.4293C12.0305 9.54004 11.648 9.69847 11.366 9.98048C11.084 10.2625 10.9256 10.645 10.9256 11.0438V14.4809C10.9256 15.3119 11.5984 15.9847 12.4293 15.9847H10.2811C9.88228 15.9847 9.49979 15.8263 9.21778 15.5443C8.93577 15.2623 8.77734 14.8798 8.77734 14.4809V11.0438Z" fill="#D9D9D9"/>
<path fill-rule="evenodd" clip-rule="evenodd" d="M3.62109 4.16977C3.62109 3.33884 4.29392 2.66602 5.12485 2.66602H18.8735C19.7044 2.66602 20.3772 3.33884 20.3772 4.16977V11.9034C20.3772 12.3022 20.2188 12.6847 19.9368 12.9667C19.6548 13.2487 19.2723 13.4071 18.8735 13.4071H13.9326V12.1182H18.8735C18.9304 12.1182 18.9851 12.0956 19.0254 12.0553C19.0656 12.015 19.0883 11.9603 19.0883 11.9034V4.16977C19.0883 4.1128 19.0656 4.05815 19.0254 4.01787C18.9851 3.97758 18.9304 3.95495 18.8735 3.95495H5.12485C5.06787 3.95495 5.01323 3.97758 4.97295 4.01787C4.93266 4.05815 4.91003 4.1128 4.91003 4.16977V11.9034C4.91003 12.0219 5.00627 12.1182 5.12485 12.1182H10.0658V13.4071H5.12485C4.72603 13.4071 4.34354 13.2487 4.06153 12.9667C3.77952 12.6847 3.62109 12.3022 3.62109 11.9034V4.16977Z" fill="white"/>
<path fill-rule="evenodd" clip-rule="evenodd" d="M6.19922 5.24414H17.7996V6.53307H6.19922V5.24414ZM8.77708 7.82201H15.2217V9.11094H8.77708V7.82201ZM8.77708 11.0443C8.77708 10.2134 9.44991 9.54058 10.2808 9.54058H13.718C14.5489 9.54058 15.2217 10.2134 15.2217 11.0443V14.4815C15.2217 14.8803 15.0633 15.2628 14.7813 15.5448C14.4993 15.8268 14.1168 15.9852 13.718 15.9852H10.2808C9.88202 15.9852 9.49953 15.8268 9.21752 15.5448C8.93551 15.2628 8.77708 14.8803 8.77708 14.4815V11.0443ZM10.2808 10.8295C10.2239 10.8295 10.1692 10.8521 10.1289 10.8924C10.0886 10.9327 10.066 10.9874 10.066 11.0443V14.4815C10.066 14.6001 10.1623 14.6963 10.2808 14.6963H13.718C13.775 14.6963 13.8296 14.6737 13.8699 14.6334C13.9102 14.5931 13.9328 14.5385 13.9328 14.4815V11.0443C13.9328 10.9874 13.9102 10.9327 13.8699 10.8924C13.8296 10.8521 13.775 10.8295 13.718 10.8295H10.2808Z" fill="white"/>
<path fill-rule="evenodd" clip-rule="evenodd" d="M12.6441 14.6953V20.7103H16.0812V21.9993H7.91797V20.7103H11.3551V14.6953H12.6441Z" fill="white"/>
</svg>
