<svg width="24" height="24" viewBox="0 0 24 24" fill="none" xmlns="http://www.w3.org/2000/svg">
<path fill-rule="evenodd" clip-rule="evenodd" d="M12.0007 14.166C12.1333 14.166 12.2604 14.2187 12.3542 14.3125C12.448 14.4062 12.5007 14.5334 12.5007 14.666V18.8327H14.6673C14.7999 18.8327 14.9271 18.8854 15.0209 18.9791C15.1146 19.0729 15.1673 19.2001 15.1673 19.3327C15.1673 19.4653 15.1146 19.5925 15.0209 19.6862C14.9271 19.78 14.7999 19.8327 14.6673 19.8327H9.33398C9.20138 19.8327 9.0742 19.78 8.98043 19.6862C8.88666 19.5925 8.83398 19.4653 8.83398 19.3327C8.83398 19.2001 8.88666 19.0729 8.98043 18.9791C9.0742 18.8854 9.20138 18.8327 9.33398 18.8327H11.5007V14.666C11.5007 14.5334 11.5533 14.4062 11.6471 14.3125C11.7409 14.2187 11.868 14.166 12.0007 14.166Z" fill="#2EDF84"/>
<path fill-rule="evenodd" clip-rule="evenodd" d="M7.5 7.33301C7.5 7.2004 7.55268 7.07322 7.64645 6.97945C7.74022 6.88569 7.86739 6.83301 8 6.83301H16C16.1326 6.83301 16.2598 6.88569 16.3536 6.97945C16.4473 7.07322 16.5 7.2004 16.5 7.33301C16.5 7.46562 16.4473 7.59279 16.3536 7.68656C16.2598 7.78033 16.1326 7.83301 16 7.83301H8C7.86739 7.83301 7.74022 7.78033 7.64645 7.68656C7.55268 7.59279 7.5 7.46562 7.5 7.33301ZM9.5 9.33301C9.5 9.2004 9.55268 9.07322 9.64645 8.97945C9.74022 8.88569 9.86739 8.83301 10 8.83301H14C14.1326 8.83301 14.2598 8.88569 14.3536 8.97945C14.4473 9.07322 14.5 9.2004 14.5 9.33301C14.5 9.46562 14.4473 9.59279 14.3536 9.68656C14.2598 9.78033 14.1326 9.83301 14 9.83301H10C9.86739 9.83301 9.74022 9.78033 9.64645 9.68656C9.55268 9.59279 9.5 9.46562 9.5 9.33301ZM10.6667 10.1663C10.3572 10.1663 10.0605 10.2893 9.84171 10.5081C9.62292 10.7268 9.5 11.0236 9.5 11.333V13.9997C9.5 14.6443 10.022 15.1663 10.6667 15.1663H13.3333C13.6428 15.1663 13.9395 15.0434 14.1583 14.8246C14.3771 14.6058 14.5 14.3091 14.5 13.9997V11.333C14.5 11.0236 14.3771 10.7268 14.1583 10.5081C13.9395 10.2893 13.6428 10.1663 13.3333 10.1663H10.6667Z" fill="#ECEEEC"/>
<path fill-rule="evenodd" clip-rule="evenodd" d="M9.5 11.3327C9.5 10.688 10.022 10.166 10.6667 10.166H12.3333C12.0239 10.166 11.7272 10.2889 11.5084 10.5077C11.2896 10.7265 11.1667 11.0233 11.1667 11.3327V13.9993C11.1667 14.644 11.6887 15.166 12.3333 15.166H10.6667C10.3572 15.166 10.0605 15.0431 9.84171 14.8243C9.62292 14.6055 9.5 14.3088 9.5 13.9993V11.3327Z" fill="#D9D9D9"/>
<path fill-rule="evenodd" clip-rule="evenodd" d="M5.5 5.99967C5.5 5.35501 6.022 4.83301 6.66667 4.83301H17.3333C17.978 4.83301 18.5 5.35501 18.5 5.99967V11.9997C18.5 12.3091 18.3771 12.6058 18.1583 12.8246C17.9395 13.0434 17.6428 13.1663 17.3333 13.1663H13.5V12.1663H17.3333C17.3775 12.1663 17.4199 12.1488 17.4512 12.1175C17.4824 12.0863 17.5 12.0439 17.5 11.9997V5.99967C17.5 5.95547 17.4824 5.91308 17.4512 5.88182C17.4199 5.85057 17.3775 5.83301 17.3333 5.83301H6.66667C6.62246 5.83301 6.58007 5.85057 6.54882 5.88182C6.51756 5.91308 6.5 5.95547 6.5 5.99967V11.9997C6.5 12.0917 6.57467 12.1663 6.66667 12.1663H10.5V13.1663H6.66667C6.35725 13.1663 6.0605 13.0434 5.84171 12.8246C5.62292 12.6058 5.5 12.3091 5.5 11.9997V5.99967Z" fill="white"/>
<path fill-rule="evenodd" clip-rule="evenodd" d="M7.5 6.83301H16.5V7.83301H7.5V6.83301ZM9.5 8.83301H14.5V9.83301H9.5V8.83301ZM9.5 11.333C9.5 10.6883 10.022 10.1663 10.6667 10.1663H13.3333C13.978 10.1663 14.5 10.6883 14.5 11.333V13.9997C14.5 14.3091 14.3771 14.6058 14.1583 14.8246C13.9395 15.0434 13.6428 15.1663 13.3333 15.1663H10.6667C10.3572 15.1663 10.0605 15.0434 9.84171 14.8246C9.62292 14.6058 9.5 14.3091 9.5 13.9997V11.333ZM10.6667 11.1663C10.6225 11.1663 10.5801 11.1839 10.5488 11.2152C10.5176 11.2464 10.5 11.2888 10.5 11.333V13.9997C10.5 14.0917 10.5747 14.1663 10.6667 14.1663H13.3333C13.3775 14.1663 13.4199 14.1488 13.4512 14.1175C13.4824 14.0863 13.5 14.0439 13.5 13.9997V11.333C13.5 11.2888 13.4824 11.2464 13.4512 11.2152C13.4199 11.1839 13.3775 11.1663 13.3333 11.1663H10.6667Z" fill="white"/>
<path fill-rule="evenodd" clip-rule="evenodd" d="M12.5007 14.166V18.8327H15.1673V19.8327H8.83398V18.8327H11.5007V14.166H12.5007Z" fill="white"/>
</svg>
