<svg width="23" height="24" viewBox="0 0 23 24" fill="none" xmlns="http://www.w3.org/2000/svg">
<g clip-path="url(#clip0_23814_24022)">
<path d="M13.1318 1.92285H6.05797C5.30131 1.92285 4.57721 2.19032 3.96133 2.77541L0.948789 5.75276C0.666892 6.03064 0.442896 6.36167 0.289761 6.72669C0.136626 7.09171 0.0573911 7.48347 0.0566406 7.87931V17.4343C0.0566406 19.098 1.41158 20.4521 3.07534 20.4521H12.3567C13.1899 21.6962 14.3653 22.569 15.8998 23.0054C16.052 23.0494 16.2183 23.0511 16.3801 23.0054C20.4819 21.844 21.3864 17.8328 20.8673 14.4948C20.8171 14.0839 20.5752 13.7258 20.1837 13.5014L16.6001 11.5649C16.4619 11.4946 16.3124 11.4494 16.1584 11.4312V4.94067C16.1563 4.13957 15.8366 3.37199 15.2694 2.80627C14.7022 2.24054 13.9329 1.92285 13.1318 1.92285ZM3.07534 18.6924C2.38115 18.6924 1.81718 18.1285 1.81718 17.4343V7.87931C1.81762 7.71541 1.85076 7.55324 1.91467 7.40232C1.97857 7.25139 2.07196 7.11473 2.18935 7.00036L5.18605 4.03972C5.43417 3.80217 5.70955 3.68251 6.05709 3.68251H13.1309C13.8304 3.68251 14.3988 4.24736 14.3988 4.94067V12.0717L11.7654 13.5005C11.3845 13.7038 11.102 14.0944 11.0783 14.5247C11.0783 14.6206 10.8196 16.6512 11.4821 18.6924H3.07534ZM19.1543 14.9452C19.3417 16.3846 19.4815 20.1213 16.1408 21.2387C14.0961 20.5568 13.123 18.8948 12.8538 16.7489C12.7819 16.1475 12.7666 15.5407 12.808 14.9364L15.9684 13.2234L19.1543 14.9452Z" fill="white"/>
<path d="M12.3848 14.7685L15.7758 12.9385H17.7135L19.6512 13.8535L20.1356 15.226V17.5136L18.6823 20.2587C18.0364 20.5637 16.6478 21.1737 16.2602 21.1737C15.8727 21.1737 14.8069 20.8687 14.3225 20.7162L11.9004 18.4286V15.226L12.3848 14.7685Z" fill="#A0ABA2"/>
<path d="M13.1318 1.92285H6.05797C5.30131 1.92285 4.57721 2.19032 3.96133 2.77541L0.948789 5.75276C0.666892 6.03064 0.442896 6.36167 0.289761 6.72669C0.136626 7.09171 0.0573911 7.48347 0.0566406 7.87931V17.4343C0.0566406 19.098 1.41158 20.4521 3.07534 20.4521H12.3567C13.1899 21.6962 14.3653 22.569 15.8998 23.0054C16.052 23.0494 16.2183 23.0511 16.3801 23.0054C20.4819 21.844 21.3864 17.8328 20.8673 14.4948C20.8171 14.0839 20.5752 13.7258 20.1837 13.5014L16.6001 11.5649C16.4619 11.4946 16.3124 11.4494 16.1584 11.4312V4.94067C16.1563 4.13957 15.8366 3.37199 15.2694 2.80627C14.7022 2.24054 13.9329 1.92285 13.1318 1.92285ZM3.07534 18.6924C2.38115 18.6924 1.81718 18.1285 1.81718 17.4343V7.87931C1.81762 7.71541 1.85076 7.55324 1.91467 7.40232C1.97857 7.25139 2.07196 7.11473 2.18935 7.00036L5.18605 4.03972C5.43417 3.80217 5.70955 3.68251 6.05709 3.68251H13.1309C13.8304 3.68251 14.3988 4.24736 14.3988 4.94067V12.0717L11.7654 13.5005C11.3845 13.7038 11.102 14.0944 11.0783 14.5247C11.0783 14.6206 10.8196 16.6512 11.4821 18.6924H3.07534ZM19.1543 14.9452C19.3417 16.3846 19.4815 20.1213 16.1408 21.2387C14.0961 20.5568 13.123 18.8948 12.8538 16.7489C12.7819 16.1475 12.7666 15.5407 12.808 14.9364L15.9684 13.2234L19.1543 14.9452Z" fill="white" stroke="#425645" stroke-width="0.9"/>
<path d="M11.5927 10.1025C11.5927 9.86914 11.5 9.64535 11.335 9.48035C11.17 9.31535 10.9462 9.22266 10.7128 9.22266H5.49897C5.26563 9.22266 5.04184 9.31535 4.87684 9.48035C4.71184 9.64535 4.61914 9.86914 4.61914 10.1025C4.61914 10.3358 4.71184 10.5596 4.87684 10.7246C5.04184 10.8896 5.26563 10.9823 5.49897 10.9823H10.7128C10.9462 10.9823 11.17 10.8896 11.335 10.7246C11.5 10.5596 11.5927 10.3358 11.5927 10.1025ZM8.10591 13.2602H5.49897C5.26563 13.2602 5.04184 13.3529 4.87684 13.5179C4.71184 13.6829 4.61914 13.9067 4.61914 14.14C4.61914 14.3734 4.71184 14.5972 4.87684 14.7622C5.04184 14.9272 5.26563 15.0199 5.49897 15.0199H8.10591C8.33926 15.0199 8.56305 14.9272 8.72805 14.7622C8.89305 14.5972 8.98574 14.3734 8.98574 14.14C8.98574 13.9067 8.89305 13.6829 8.72805 13.5179C8.56305 13.3529 8.33926 13.2602 8.10591 13.2602Z" fill="white"/>
</g>
<defs>
<clipPath id="clip0_23814_24022">
<rect width="23" height="23" fill="white" transform="translate(0 0.5)"/>
</clipPath>
</defs>
</svg>
