<svg width="22" height="24" viewBox="0 0 22 24" fill="none" xmlns="http://www.w3.org/2000/svg">
<path d="M11 5.76165C12.4939 5.76165 13.705 4.55056 13.705 3.0566C13.705 1.56265 12.4939 0.351562 11 0.351562C9.50601 0.351562 8.29492 1.56265 8.29492 3.0566C8.29492 4.55056 9.50601 5.76165 11 5.76165Z" stroke="white" stroke-width="0.75" stroke-miterlimit="10" stroke-linecap="round" stroke-linejoin="round"/>
<path d="M8.29456 8.25195V10.8456M13.7046 8.25195V10.8456M13.7883 20.9145V16.6056C13.7883 16.198 13.4578 15.8676 13.0502 15.8676H8.94904C8.54141 15.8676 8.21094 16.198 8.21094 16.6056V22.9108C8.21094 23.3185 8.54141 23.6489 8.94904 23.6489H11.0539L13.7883 20.9145Z" stroke="white" stroke-width="0.75" stroke-miterlimit="10" stroke-linecap="round" stroke-linejoin="round"/>
<path d="M11.0533 21.6522V23.6485L13.7877 20.9141H11.7914C11.3838 20.9141 11.0533 21.2446 11.0533 21.6522ZM6.0598 20.9141V16.6052C6.0598 16.1976 5.72933 15.8672 5.32175 15.8672H1.22052C0.812894 15.8672 0.482422 16.1977 0.482422 16.6052V22.9105C0.482422 23.3181 0.812894 23.6486 1.22052 23.6486H3.32537L6.0598 20.9141Z" stroke="white" stroke-width="0.75" stroke-miterlimit="10" stroke-linecap="round" stroke-linejoin="round"/>
<path d="M10.9994 11.1924V15.7393M18.7273 15.7393V14.0426C18.7273 13.724 18.4691 13.4658 18.1506 13.4658H3.84819C3.52967 13.4658 3.27148 13.724 3.27148 14.0426V15.7393M3.32577 21.6524V23.6487L6.06015 20.9143H4.06382C3.65619 20.9143 3.32577 21.2447 3.32577 21.6524ZM18.7816 21.6524V23.6487L21.516 20.9143H19.5196C19.1121 20.9143 18.7816 21.2447 18.7816 21.6524Z" stroke="white" stroke-width="0.75" stroke-miterlimit="10" stroke-linecap="round" stroke-linejoin="round"/>
<path d="M21.516 17.6943V16.6053C21.516 16.1976 21.1855 15.8672 20.7779 15.8672H16.6768C16.2691 15.8672 15.9387 16.1977 15.9387 16.6053V22.9104C15.9387 23.3181 16.2691 23.6485 16.6768 23.6485H18.7816L21.516 20.9142V19.335M15.7332 8.19591V8.00527C15.7332 6.77132 14.7236 5.76172 13.4896 5.76172H8.50913C7.27518 5.76172 6.26562 6.77128 6.26562 8.00523V10.5297C6.26562 10.7921 6.4783 11.0047 6.74066 11.0047H15.2582C15.5205 11.0047 15.7332 10.7921 15.7332 10.5297V9.83651" stroke="white" stroke-width="0.75" stroke-miterlimit="10" stroke-linecap="round" stroke-linejoin="round"/>
</svg>
