<svg width="24" height="24" viewBox="0 0 24 24" fill="none" xmlns="http://www.w3.org/2000/svg">
<path d="M17.5717 12.4287C16.6393 12.4287 15.7279 12.7052 14.9526 13.2232C14.1773 13.7412 13.5731 14.4775 13.2163 15.3389C12.8595 16.2003 12.7661 17.1482 12.948 18.0627C13.1299 18.9772 13.5789 19.8172 14.2382 20.4765C14.8975 21.1358 15.7375 21.5848 16.652 21.7667C17.5665 21.9486 18.5144 21.8552 19.3758 21.4984C20.2372 21.1416 20.9735 20.5374 21.4915 19.7621C22.0095 18.9869 22.286 18.0754 22.286 17.143C22.286 15.8927 21.7893 14.6936 20.9052 13.8095C20.0211 12.9254 18.822 12.4287 17.5717 12.4287ZM17.5717 21.0001C16.8088 21.0001 16.0631 20.7739 15.4288 20.3501C14.7945 19.9263 14.3001 19.3239 14.0082 18.6191C13.7162 17.9143 13.6399 17.1387 13.7887 16.3905C13.9375 15.6423 14.3049 14.955 14.8443 14.4156C15.3837 13.8762 16.071 13.5088 16.8192 13.36C17.5674 13.2111 18.343 13.2875 19.0478 13.5795C19.7526 13.8714 20.355 14.3658 20.7788 15.0001C21.2026 15.6344 21.4289 16.3801 21.4289 17.143C21.4289 18.166 21.0225 19.1471 20.2991 19.8704C19.5758 20.5938 18.5947 21.0001 17.5717 21.0001Z" fill="white"/>
<path d="M18.9348 15.6512L16.8563 17.7254L16.2091 17.0783C16.1693 17.0381 16.1219 17.0062 16.0697 16.9845C16.0174 16.9627 15.9614 16.9515 15.9048 16.9515C15.8483 16.9515 15.7922 16.9627 15.74 16.9845C15.6878 17.0062 15.6404 17.0381 15.6006 17.0783C15.5207 17.1586 15.4759 17.2672 15.4759 17.3804C15.4759 17.4937 15.5207 17.6023 15.6006 17.6826L16.5563 18.634C16.6366 18.7138 16.7452 18.7586 16.8584 18.7586C16.9716 18.7586 17.0803 18.7138 17.1606 18.634L19.5434 16.2554C19.6235 16.1747 19.6683 16.0655 19.6679 15.9518C19.6675 15.8381 19.622 15.7291 19.5413 15.649C19.4606 15.5689 19.3513 15.5241 19.2376 15.5245C19.1239 15.5249 19.015 15.5704 18.9348 15.6512ZM11.7134 19.2854H3.42913C3.2018 19.2854 2.98378 19.1951 2.82304 19.0344C2.66229 18.8736 2.57199 18.6556 2.57199 18.4283V8.99972H15.0006C15.1142 8.99972 15.2232 8.95457 15.3036 8.8742C15.384 8.79382 15.4291 8.68481 15.4291 8.57115C15.4291 8.45749 15.384 8.34848 15.3036 8.2681C15.2232 8.18773 15.1142 8.14258 15.0006 8.14258H2.57199V5.57115C2.57199 5.34382 2.66229 5.1258 2.82304 4.96506C2.98378 4.80431 3.2018 4.71401 3.42913 4.71401H5.3577V5.14258C5.3577 5.48357 5.49316 5.8106 5.73428 6.05172C5.9754 6.29283 6.30242 6.42829 6.64342 6.42829H7.07199C7.41298 6.42829 7.74001 6.29283 7.98112 6.05172C8.22224 5.8106 8.3577 5.48357 8.3577 5.14258V4.71401H13.9291V5.14258C13.9291 5.48357 14.0646 5.8106 14.3057 6.05172C14.5468 6.29283 14.8739 6.42829 15.2148 6.42829H15.6434C15.9844 6.42829 16.3114 6.29283 16.5526 6.05172C16.7937 5.8106 16.9291 5.48357 16.9291 5.14258V4.71401H18.8577C19.085 4.71401 19.303 4.80431 19.4638 4.96506C19.6245 5.1258 19.7148 5.34382 19.7148 5.57115V8.14258H17.7948C17.6812 8.14258 17.5722 8.18773 17.4918 8.2681C17.4114 8.34848 17.3663 8.45749 17.3663 8.57115C17.3663 8.68481 17.4114 8.79382 17.4918 8.8742C17.5722 8.95457 17.6812 8.99972 17.7948 8.99972H19.7148V11.5454C19.7148 11.6591 19.76 11.7681 19.8404 11.8485C19.9207 11.9289 20.0298 11.974 20.1434 11.974C20.2571 11.974 20.3661 11.9289 20.4465 11.8485C20.5268 11.7681 20.572 11.6591 20.572 11.5454V5.57115C20.572 5.11649 20.3914 4.68046 20.0699 4.35897C19.7484 4.03748 19.3124 3.85686 18.8577 3.85686H16.9291V3.42829C16.9291 3.0873 16.7937 2.76027 16.5526 2.51916C16.3114 2.27804 15.9844 2.14258 15.6434 2.14258H15.2148C14.8739 2.14258 14.5468 2.27804 14.3057 2.51916C14.0646 2.76027 13.9291 3.0873 13.9291 3.42829V3.85686H8.3577V3.42829C8.3577 3.0873 8.22224 2.76027 7.98112 2.51916C7.74001 2.27804 7.41298 2.14258 7.07199 2.14258H6.64342C6.30242 2.14258 5.9754 2.27804 5.73428 2.51916C5.49316 2.76027 5.3577 3.0873 5.3577 3.42829V3.85686H3.42913C2.97447 3.85686 2.53844 4.03748 2.21695 4.35897C1.89546 4.68046 1.71484 5.11649 1.71484 5.57115V18.4283C1.71484 18.8829 1.89546 19.319 2.21695 19.6405C2.53844 19.962 2.97447 20.1426 3.42913 20.1426H11.7134C11.8271 20.1426 11.9361 20.0974 12.0165 20.0171C12.0968 19.9367 12.142 19.8277 12.142 19.714C12.142 19.6003 12.0968 19.4913 12.0165 19.411C11.9361 19.3306 11.8271 19.2854 11.7134 19.2854ZM14.7863 3.42829C14.7863 3.31463 14.8314 3.20562 14.9118 3.12525C14.9922 3.04487 15.1012 2.99972 15.2148 2.99972H15.6434C15.7571 2.99972 15.8661 3.04487 15.9465 3.12525C16.0268 3.20562 16.072 3.31463 16.072 3.42829V5.14258C16.072 5.25624 16.0268 5.36525 15.9465 5.44562C15.8661 5.526 15.7571 5.57115 15.6434 5.57115H15.2148C15.1012 5.57115 14.9922 5.526 14.9118 5.44562C14.8314 5.36525 14.7863 5.25624 14.7863 5.14258V3.42829ZM6.21484 3.42829C6.21484 3.31463 6.26 3.20562 6.34037 3.12525C6.42074 3.04487 6.52975 2.99972 6.64342 2.99972H7.07199C7.18565 2.99972 7.29466 3.04487 7.37503 3.12525C7.45541 3.20562 7.50056 3.31463 7.50056 3.42829V5.14258C7.50056 5.25624 7.45541 5.36525 7.37503 5.44562C7.29466 5.526 7.18565 5.57115 7.07199 5.57115H6.64342C6.52975 5.57115 6.42074 5.526 6.34037 5.44562C6.26 5.36525 6.21484 5.25624 6.21484 5.14258V3.42829Z" fill="white"/>
<path d="M11.1423 12.4282C11.6157 12.4282 11.9994 12.0444 11.9994 11.571C11.9994 11.0976 11.6157 10.7139 11.1423 10.7139C10.6689 10.7139 10.2852 11.0976 10.2852 11.571C10.2852 12.0444 10.6689 12.4282 11.1423 12.4282Z" fill="white"/>
<path d="M5.99972 12.4282C6.47311 12.4282 6.85686 12.0444 6.85686 11.571C6.85686 11.0976 6.47311 10.7139 5.99972 10.7139C5.52633 10.7139 5.14258 11.0976 5.14258 11.571C5.14258 12.0444 5.52633 12.4282 5.99972 12.4282Z" fill="white"/>
<path d="M5.99972 17.143C6.47311 17.143 6.85686 16.7592 6.85686 16.2859C6.85686 15.8125 6.47311 15.4287 5.99972 15.4287C5.52633 15.4287 5.14258 15.8125 5.14258 16.2859C5.14258 16.7592 5.52633 17.143 5.99972 17.143Z" fill="white"/>
</svg>
