<svg width="24" height="24" viewBox="0 0 24 24" fill="none" xmlns="http://www.w3.org/2000/svg">
<g clip-path="url(#clip0_23518_83410)">
<path d="M14.0479 16.6312C13.9776 16.5469 13.8745 16.5 13.7667 16.5H10.2604C10.1526 16.5 10.0495 16.5469 9.97918 16.6266L8.18856 18.6844C8.07137 18.8203 8.06668 19.0219 8.17918 19.1625L11.7089 23.5781C11.7792 23.6672 11.887 23.7188 11.9995 23.7188C12.112 23.7188 12.2198 23.6672 12.2901 23.5781L15.8198 19.1906C15.9323 19.05 15.9276 18.8531 15.8151 18.7172L14.0479 16.6312ZM11.9995 22.7531L8.95262 18.9422L10.4292 17.2453H13.5932L15.0511 18.9656L11.9995 22.7531Z" fill="white"/>
<path d="M13.1062 18.7545L12.6046 18.6748L12.3562 18.1545C12.2906 18.0186 12.1499 17.9295 11.9999 17.9295C11.8499 17.9295 11.7093 18.0186 11.6437 18.1545L11.3953 18.6748L10.8937 18.7545C10.7484 18.7779 10.6265 18.8811 10.5796 19.0217C10.5656 19.0592 10.5609 19.1014 10.5609 19.1436C10.5609 19.2514 10.6031 19.3498 10.6781 19.4248L11.0531 19.7998L10.9453 20.3389C10.9171 20.4889 10.9781 20.6436 11.0999 20.7373C11.2218 20.8264 11.3906 20.8357 11.5265 20.7654L12.0046 20.4982L12.4828 20.7654C12.539 20.7982 12.6093 20.817 12.6749 20.817C12.7593 20.817 12.839 20.7889 12.9093 20.742C13.0312 20.6529 13.0921 20.4982 13.064 20.3436L12.9562 19.8045L13.3265 19.4295C13.4015 19.3545 13.4437 19.2561 13.4437 19.1482C13.4437 19.1061 13.439 19.0639 13.4249 19.0264C13.3734 18.8764 13.2562 18.7779 13.1062 18.7545ZM12.4171 19.6357L12.5343 20.2311L11.9953 19.9311L11.4562 20.2311L11.5734 19.6357L11.1468 19.2092L11.7187 19.1201L11.9906 18.5482L12.2624 19.1201L12.8343 19.2092L12.4171 19.6357ZM16.8749 17.0154L15.0374 14.8451C14.9671 14.7607 14.864 14.7139 14.7515 14.7139H9.29526C9.18745 14.7139 9.08432 14.7607 9.01401 14.8404L7.12963 17.0154C6.9187 17.2545 7.09213 17.6295 7.41088 17.6295C7.5187 17.6295 7.62182 17.5826 7.69213 17.5029L9.4687 15.4592H14.5781L16.3031 17.4982C16.3734 17.5826 16.4765 17.6295 16.589 17.6295C16.9078 17.6295 17.0812 17.2592 16.8749 17.0154Z" fill="white"/>
<path d="M19.5836 13.0503C18.993 12.0565 17.7321 11.7471 16.5086 11.4471C16.1477 11.3581 15.8102 11.2784 15.4961 11.1799L15.2571 10.9971C15.1446 10.9128 14.9946 10.8987 14.868 10.9596C14.7415 11.0206 14.6618 11.1518 14.6618 11.2924V12.2768C14.6618 12.4456 14.5868 12.6143 14.4602 12.7128C14.3524 12.7971 14.2165 12.8346 14.0852 12.8065C13.9071 12.769 13.5133 12.6284 13.1336 12.4362C12.9883 12.3659 12.8149 12.394 12.7024 12.5112C12.6555 12.5581 12.5758 12.619 12.4586 12.619H11.5446C11.4274 12.619 11.3477 12.5628 11.3008 12.5112C11.1883 12.394 11.0149 12.3659 10.8696 12.4362C10.4852 12.6284 10.1008 12.7643 9.91333 12.8065C9.79614 12.8346 9.65083 12.8018 9.54302 12.7128C9.41645 12.6096 9.34145 12.4456 9.34145 12.2721V11.2878C9.34145 11.1471 9.26177 11.0159 9.1352 10.9549C9.00864 10.894 8.85864 10.9081 8.74614 10.9924L8.50708 11.1753C8.19302 11.2737 7.85552 11.3581 7.49458 11.4424C6.27114 11.7424 5.00552 12.0518 4.41958 13.0456C3.59927 14.4284 3.3227 17.4284 3.23364 19.0971C3.21958 19.3784 3.32739 19.6268 3.5477 19.819C3.74927 19.9971 4.00708 20.0909 4.28833 20.0909H5.68052H6.9977C7.20395 20.0909 7.36802 19.9221 7.36802 19.7206C7.36802 19.5143 7.19927 19.3503 6.9977 19.3503H5.68052H4.28364C4.18052 19.3503 4.10083 19.3221 4.03052 19.2659C3.96958 19.2143 3.96489 19.1768 3.96958 19.144C4.11958 16.4253 4.51333 14.344 5.05239 13.4299C5.48364 12.7034 6.58989 12.4315 7.66333 12.169C7.9727 12.094 8.29145 12.0143 8.59145 11.9253V12.2721C8.59145 12.6659 8.76958 13.0456 9.06958 13.2893C9.2852 13.4628 9.5477 13.5565 9.81958 13.5565C9.90395 13.5565 9.98833 13.5471 10.0633 13.5284C10.2883 13.4815 10.6399 13.3549 10.9774 13.2003C11.1461 13.3034 11.3383 13.3549 11.5352 13.3549H12.4493C12.6508 13.3549 12.843 13.2987 13.0071 13.2003C13.3446 13.3549 13.6961 13.4815 13.9258 13.5284C14.2774 13.5987 14.6383 13.5096 14.9149 13.2846C15.2149 13.0456 15.393 12.6659 15.393 12.2674V11.9206C15.693 12.0096 16.0118 12.0893 16.3211 12.1643C17.3946 12.4268 18.5055 12.6987 18.9321 13.4253C19.4711 14.3346 19.8649 16.4159 20.0149 19.1346C20.0149 19.1674 20.0149 19.2049 19.954 19.2565C19.8883 19.3128 19.8086 19.3409 19.7008 19.3409H18.3086H16.9915C16.7852 19.3409 16.6211 19.5096 16.6211 19.7112C16.6211 19.9174 16.7899 20.0815 16.9915 20.0815H18.3086H19.7008C19.9868 20.0815 20.2399 19.9878 20.4415 19.8143C20.6618 19.6221 20.7743 19.369 20.7555 19.0924C20.6805 17.4331 20.404 14.4331 19.5836 13.0503ZM8.40395 8.55025C8.46489 8.72838 8.88208 9.37994 9.19145 9.83463C9.33208 10.0409 9.64145 10.0034 9.7352 9.77369L9.75395 9.72682C9.79145 9.62369 9.7727 9.51119 9.70708 9.42682C9.26177 8.83151 9.08364 8.23619 9.08364 8.2315C9.0602 8.15651 9.01802 8.09557 8.96177 8.044C7.61645 6.9565 8.46958 5.72838 8.5727 5.59244C8.61958 5.52682 8.6477 5.44713 8.6477 5.36744V2.83619C9.98364 0.895567 11.8915 1.02213 11.9711 1.02682C11.9946 1.02682 12.0133 1.02682 12.0368 1.02682C12.0555 1.02682 14.0149 0.881505 15.3602 2.83619V5.36744C15.3602 5.44713 15.3883 5.52682 15.4352 5.59244C15.5383 5.72838 16.3915 6.96119 15.0461 8.04869C14.9852 8.09557 14.943 8.16119 14.9243 8.23619C14.9243 8.24088 14.7461 8.83619 14.3008 9.4315C14.2352 9.51588 14.2165 9.63307 14.254 9.73151L14.2727 9.77838C14.3618 10.0081 14.6758 10.0456 14.8118 9.83932C15.1211 9.38463 15.5383 8.72838 15.5993 8.55494C16.968 7.37838 16.5649 5.94869 16.1008 5.25025V2.72369C16.1008 2.65338 16.0821 2.58307 16.0399 2.52213C14.5305 0.225255 12.304 0.267442 11.9993 0.286192C11.6946 0.267442 9.46802 0.225255 7.96333 2.52213C7.92583 2.58307 7.90239 2.65338 7.90239 2.72369V5.25025C7.43833 5.944 7.0352 7.37838 8.40395 8.55025Z" fill="white"/>
</g>
<defs>
<clipPath id="clip0_23518_83410">
<rect width="24" height="24" fill="white"/>
</clipPath>
</defs>
</svg>
