<svg width="23" height="24" viewBox="0 0 23 24" fill="none" xmlns="http://www.w3.org/2000/svg">
<g clip-path="url(#clip0_23746_11052)">
<path d="M20.0292 11.617C19.9333 11.5212 19.9333 11.4253 19.8375 11.3295L16.9625 8.45449C16.5792 8.07116 16.0042 8.07116 15.6208 8.45449C15.2375 8.83783 15.2375 9.41283 15.6208 9.79616L16.8667 11.042H12.4583C11.8833 11.042 11.5 11.4253 11.5 12.0003C11.5 12.5753 11.8833 12.9587 12.4583 12.9587H16.8667L15.6208 14.2045C15.2375 14.5878 15.2375 15.1628 15.6208 15.5462C15.8125 15.7378 16.1 15.8337 16.2917 15.8337C16.4833 15.8337 16.7708 15.7378 16.9625 15.5462L19.8375 12.6712C19.9333 12.5753 20.0292 12.4795 20.0292 12.3837C20.125 12.0962 20.125 11.9045 20.0292 11.617Z" fill="white" stroke="#425645"/>
<path d="M14.8542 17.8458C13.8 18.4208 12.65 18.7083 11.5 18.7083C7.7625 18.7083 4.79167 15.7375 4.79167 12C4.79167 8.2625 7.7625 5.29167 11.5 5.29167C12.65 5.29167 13.8 5.57917 14.8542 6.15417C15.3333 6.44167 15.9083 6.25 16.1958 5.77083C16.4833 5.29167 16.2917 4.71667 15.8125 4.42917C14.4708 3.75833 13.0333 3.375 11.5 3.375C6.70833 3.375 2.875 7.20833 2.875 12C2.875 16.7917 6.70833 20.625 11.5 20.625C13.0333 20.625 14.4708 20.2417 15.8125 19.475C16.2917 19.1875 16.3875 18.6125 16.1958 18.1333C15.9083 17.75 15.3333 17.5583 14.8542 17.8458Z" fill="white" stroke="#425645"/>
</g>
<defs>
<clipPath id="clip0_23746_11052">
<rect width="23" height="23" fill="white" transform="translate(0 0.5)"/>
</clipPath>
</defs>
</svg>
