<svg width="24" height="24" viewBox="0 0 24 24" fill="none" xmlns="http://www.w3.org/2000/svg">
<path fill-rule="evenodd" clip-rule="evenodd" d="M12.3872 3.05762C7.45176 3.05762 3.44531 7.06407 3.44531 11.9996C3.44531 13.7415 3.92918 15.406 4.87757 16.8576L3.52273 19.8576C3.4066 20.1286 3.44531 20.4576 3.63886 20.6899C3.7937 20.8641 4.0066 20.9608 4.23886 20.9608C4.31628 20.9608 4.37434 20.9608 4.45176 20.9415L8.2066 19.9157C9.50338 20.6125 10.955 20.9802 12.426 20.9802C17.3614 20.9802 21.3679 16.9737 21.3679 12.0383C21.3292 7.06407 17.3227 3.05762 12.3872 3.05762ZM12.3872 19.3931C11.0711 19.3931 9.7937 19.0447 8.67112 18.3866C8.55499 18.3092 8.41951 18.2705 8.28402 18.2705C8.2066 18.2705 8.14854 18.2705 8.07112 18.2899L5.61305 18.9673L6.46467 17.0899C6.5808 16.8383 6.54209 16.5286 6.38725 16.3157C5.47757 15.0576 4.9937 13.5673 4.9937 11.9996C4.9937 7.93504 8.32273 4.606 12.3872 4.606C16.4518 4.606 19.7808 7.91568 19.7808 11.9996C19.7808 16.0641 16.4711 19.3931 12.3872 19.3931Z" fill="white"/>
<path fill-rule="evenodd" clip-rule="evenodd" d="M15.8326 13.3355C15.4648 13.1032 14.9616 12.8516 14.5358 13.0451C14.2068 13.1806 13.9745 13.7226 13.7616 13.9935C13.6455 14.129 13.51 14.1484 13.3358 14.0903C12.0584 13.5871 11.0906 12.7355 10.3939 11.5742C10.2777 11.4 10.2971 11.2451 10.4326 11.0709C10.6455 10.8193 10.9164 10.529 10.9745 10.2C11.0326 9.87095 10.8777 9.4645 10.7422 9.17417C10.5681 8.78708 10.3745 8.24514 9.98741 8.03224C9.63902 7.83869 9.17451 7.93546 8.86483 8.20643C8.32289 8.65159 8.05193 9.34837 8.07128 10.0258C8.07128 10.2193 8.09064 10.4129 8.1487 10.6064C8.26483 11.0516 8.45838 11.4774 8.70999 11.8839C8.88418 12.1935 9.07773 12.4839 9.29064 12.7548C9.96805 13.6839 10.8197 14.4774 11.7874 15.0774C12.2713 15.3677 12.8132 15.6387 13.3552 15.8129C13.9745 16.0064 14.5164 16.2193 15.1745 16.1032C15.8713 15.9677 16.5487 15.5419 16.8197 14.8839C16.8971 14.6903 16.9358 14.458 16.8971 14.2645C16.7616 13.8 16.181 13.5484 15.8326 13.3355Z" fill="white"/>
</svg>
