<svg width="24" height="24" viewBox="0 0 24 24" fill="none" xmlns="http://www.w3.org/2000/svg">
<g clip-path="url(#clip0_23518_83396)">
<path d="M17.1071 7.21708L17.4869 7.00004L17.1071 6.78297L11.6271 3.65097L11.6271 3.65091L11.6219 3.64809C11.534 3.60055 11.4564 3.5359 11.3938 3.45795C11.3312 3.38 11.2848 3.29031 11.2573 3.19417C11.2299 3.09802 11.2219 2.99736 11.234 2.8981C11.246 2.79884 11.2777 2.70299 11.3273 2.61618C11.3769 2.52936 11.4434 2.45335 11.5228 2.3926C11.6022 2.33185 11.693 2.28759 11.7898 2.26242C11.8865 2.23726 11.9873 2.2317 12.0863 2.24607C12.1852 2.26043 12.2803 2.29444 12.3659 2.34609L12.3659 2.34615L12.371 2.34908L19.3709 6.34902C19.371 6.34904 19.371 6.34906 19.371 6.34907C19.4857 6.4147 19.581 6.50945 19.6473 6.62374C19.7136 6.73805 19.7485 6.86786 19.7485 7.00002C19.7485 7.13218 19.7136 7.26199 19.6473 7.37631C19.581 7.49059 19.4857 7.58534 19.371 7.65096C19.371 7.65098 19.371 7.651 19.3709 7.65102L12.3711 11.6509C12.3711 11.6509 12.371 11.651 12.371 11.651C12.2577 11.7157 12.1295 11.7497 11.9991 11.7497C11.8686 11.7497 11.7404 11.7157 11.6271 11.6509L4.6272 7.65102C4.51249 7.5854 4.41716 7.49063 4.35085 7.37631C4.28455 7.26199 4.24963 7.13218 4.24963 7.00002C4.24963 6.86787 4.28455 6.73806 4.35085 6.62374C4.41714 6.50944 4.51244 6.41469 4.62712 6.34907C4.62714 6.34906 4.62717 6.34904 4.6272 6.34902L8.49212 4.14007L8.49213 4.14009L8.49491 4.13845C8.58053 4.08804 8.67531 4.05514 8.77374 4.04167C8.87218 4.02819 8.97231 4.03441 9.06833 4.05996C9.16434 4.08551 9.25432 4.12989 9.33304 4.1905C9.41177 4.25112 9.47766 4.32678 9.52689 4.41308C9.57613 4.49938 9.60773 4.5946 9.61985 4.69321C9.63198 4.79182 9.62439 4.89186 9.59752 4.98752C9.57066 5.08317 9.52506 5.17254 9.46337 5.25042C9.40168 5.3283 9.32513 5.39315 9.23816 5.4412L9.23815 5.44118L9.23499 5.44298L6.89099 6.78298L6.51125 7.00007L6.89103 7.21708L11.875 10.0651L11.9991 10.136L12.1231 10.0651L17.1071 7.21708ZM18.6271 11.3491L18.6271 11.3492L18.6322 11.3461C18.7178 11.2944 18.8129 11.2604 18.9118 11.2461C19.0108 11.2317 19.1116 11.2373 19.2084 11.2624C19.3051 11.2876 19.3959 11.3318 19.4753 11.3926C19.5547 11.4534 19.6212 11.5294 19.6708 11.6162C19.7204 11.703 19.7521 11.7988 19.7642 11.8981C19.7762 11.9974 19.7682 12.098 19.7408 12.1942C19.7133 12.2903 19.667 12.38 19.6043 12.4579C19.5417 12.5359 19.4642 12.6005 19.3762 12.6481L19.3762 12.648L19.371 12.651L12.3711 16.6509C12.3711 16.6509 12.371 16.651 12.371 16.651C12.2577 16.7157 12.1295 16.7497 11.9991 16.7497C11.8686 16.7497 11.7404 16.7157 11.6271 16.6509L4.6271 12.651L4.62713 12.6509L4.62193 12.6481C4.53396 12.6005 4.4564 12.5359 4.39378 12.4579C4.33117 12.38 4.28478 12.2903 4.25733 12.1942C4.22988 12.098 4.22193 11.9974 4.23396 11.8981C4.24598 11.7988 4.27773 11.703 4.32733 11.6162C4.37694 11.5294 4.4434 11.4533 4.52282 11.3926C4.60223 11.3318 4.69299 11.2876 4.78975 11.2624C4.88652 11.2373 4.98734 11.2317 5.08629 11.2461C5.18524 11.2604 5.28031 11.2944 5.36592 11.3461L5.36589 11.3461L5.37104 11.3491L11.875 15.0651L11.9991 15.1359L12.1231 15.0651L18.6271 11.3491ZM18.6271 16.3491L18.6271 16.3492L18.6322 16.3461C18.7178 16.2944 18.8129 16.2604 18.9118 16.2461C19.0108 16.2317 19.1116 16.2373 19.2084 16.2624C19.3051 16.2876 19.3959 16.3318 19.4753 16.3926C19.5547 16.4534 19.6212 16.5294 19.6708 16.6162C19.7204 16.703 19.7521 16.7988 19.7642 16.8981C19.7762 16.9974 19.7682 17.098 19.7408 17.1942C19.7133 17.2903 19.667 17.38 19.6043 17.4579C19.5417 17.5359 19.4642 17.6005 19.3762 17.6481L19.3762 17.648L19.371 17.651L12.3711 21.6509C12.2578 21.7157 12.1295 21.7497 11.9991 21.7497C11.8686 21.7497 11.7404 21.7157 11.6271 21.6509L4.6271 17.651L4.62713 17.6509L4.62193 17.6481C4.53397 17.6005 4.4564 17.5359 4.39378 17.4579C4.33117 17.38 4.28478 17.2903 4.25733 17.1942C4.22988 17.098 4.22193 16.9974 4.23396 16.8981C4.24598 16.7988 4.27773 16.703 4.32733 16.6162C4.37694 16.5294 4.4434 16.4533 4.52282 16.3926C4.60223 16.3318 4.69299 16.2876 4.78975 16.2624C4.88652 16.2373 4.98734 16.2317 5.08629 16.2461C5.18524 16.2604 5.28031 16.2944 5.36592 16.3461L5.36589 16.3461L5.37104 16.3491L11.875 20.0651L11.9991 20.136L12.1231 20.0651L18.6271 16.3491Z" fill="white" stroke="#425645" stroke-width="0.5"/>
</g>
<defs>
<clipPath id="clip0_23518_83396">
<rect width="24" height="24" fill="white"/>
</clipPath>
</defs>
</svg>
