
<svg width="450" height="220" viewBox="0 0 450 220" fill="none" xmlns="http://www.w3.org/2000/svg">
    <path d="M34.6608 219.442C34.6608 219.442 -13.5086 169.096 26.5126 114.577C62.0371 66.2101 103.443 69.5197 133.824 89.1436C146.756 97.5076 195.088 90.6546 237.357 49.608C282.343 5.91741 402.712 27.376 381.829 117.815C370.21 168.161 422.139 169.6 394.852 219.55L34.6608 219.442Z" fill="#F7F8F7"/>
    <path d="M449.821 220H0.179608C0.161621 220 0.161621 220 0.161621 219.982V218.83C0.161621 218.812 0.179608 218.813 0.179608 218.813H449.821C449.839 218.813 449.839 218.83 449.839 218.83V219.982C449.839 220 449.839 220 449.821 220Z" fill="#1E2F2B"/>
    <path d="M423.721 3.77734L357.223 25.7576L370.588 36.8916L313.047 97.1303L262.611 53.8174L61.2817 218.777L63.0625 218.813H113.21L262.108 96.8065L315.277 142.458L395.931 58.0264L410.339 70.0238L423.721 3.77734Z" fill="#BBEBDA"/>
    <path d="M187.911 178.668L172.64 177.354C172.64 177.354 173.521 167.929 170.841 155.374C168.862 146.093 164.923 135.103 157.261 124.922C144.166 107.565 105.314 97.8516 105.314 97.8516V95.6032L106.717 95.4593C106.717 95.4593 106.123 95.0456 105.314 94.7938V89.4876C106.465 89.4696 108.102 89.5415 109.739 89.9193C108.821 89.6854 106.879 89.2538 105.314 89.1278V86.3398C161.596 87.8508 179.96 121.846 185.716 148.161C189.404 164.979 187.911 178.668 187.911 178.668Z" fill="#516765"/>
    <path d="M254.769 173.738L187.911 178.685C187.569 168.396 184.871 157.748 182.281 149.671C179.691 141.595 177.172 136.091 177.172 136.091C157.171 92.2566 105.314 86.3209 105.314 86.3209L162.873 62.7578C190.681 64.8443 210.179 78.2087 223.831 94.9727C250.56 127.799 254.769 173.738 254.769 173.738Z" fill="#8AA5A7"/>
    <path d="M254.769 173.738L187.911 178.684L172.64 177.371C172.64 177.371 173.521 167.946 170.841 155.391C174.025 153.466 177.82 151.56 182.281 149.671C183.45 149.167 184.601 148.664 185.716 148.16C228.274 128.518 224.316 97.9041 223.831 94.9902C250.56 127.799 254.769 173.738 254.769 173.738Z" fill="#516765"/>
    <path d="M249.517 178.882L189.943 177.731L190.159 176.58C190.195 176.4 193.253 158.935 186.112 139.077C181.903 127.439 175.086 117.259 165.823 108.823C154.203 98.2464 138.68 90.386 119.686 85.4396L116.754 84.6841L163.251 66.1754H163.43C163.934 66.1575 175.913 65.9776 191.31 73.2623C200.34 77.5253 208.65 83.497 216.007 90.9796C225.198 100.333 232.914 112.096 238.976 125.964C239.462 127.026 250.776 152.441 250.164 167.695V167.713L249.517 178.882ZM192.264 175.789L247.646 176.868L248.186 167.605C248.419 161.507 246.603 152.531 242.897 141.631C240.091 133.357 237.177 126.846 237.159 126.774C231.206 113.158 223.633 101.61 214.658 92.4366C207.481 85.1158 199.369 79.288 190.573 75.115C181.022 70.5823 172.712 68.9994 167.891 68.4598C165.355 68.172 162.801 68.5138 160.445 69.4491L128.212 82.2739C126.539 82.9394 126.611 85.3497 128.338 85.9073C144.004 90.9616 157.063 98.1745 167.208 107.42C176.723 116.09 183.72 126.558 188.001 138.519C191.814 149.15 192.731 159.025 192.821 165.428C192.893 170.375 192.516 174.044 192.264 175.789Z" fill="#516765"/>
    <path d="M217.463 110.423C217.463 120.244 211.708 126.162 201.905 126.162C192.084 126.162 181.921 120.226 181.921 110.423C181.921 100.602 187.353 94.7383 197.174 94.7383C206.995 94.7383 217.463 100.602 217.463 110.423Z" fill="#516765"/>
    <path d="M364.31 183.056C364.31 183.056 358.572 176.364 363.95 172.119C363.95 172.119 367.89 169.745 371.091 169.925C371.091 169.925 366.558 177.533 368.015 178.307C369.49 179.062 372.458 169.457 372.458 169.457C372.458 169.457 381.398 168.594 384.276 169.979C384.276 169.979 376.631 176.238 378.232 176.616C379.851 176.994 388.107 170.842 388.107 170.842C388.107 170.842 396.435 172.263 395.985 177.336C395.536 182.408 392.676 183.991 391.417 183.847C390.158 183.703 382.783 180.897 382.621 181.922C382.459 182.948 386.902 186.329 390.014 186.491C390.014 186.491 384.15 192.966 380.247 191.096C376.343 189.225 376.02 186.257 373.573 185.16C371.145 184.045 369.059 184.045 370.066 185.178C371.073 186.311 375.462 187.408 376.865 189.873C378.25 192.337 379.509 193.992 375.462 193.38C371.433 192.769 364.868 189.819 364.58 186.437C364.31 183.056 364.31 183.056 364.31 183.056Z" fill="#F0BAAF"/>
    <path d="M391.921 177.462C391.921 177.462 369.311 176.599 364.31 183.056C364.31 183.056 363.213 186.366 359.814 189.37L359.292 190.809C359.292 190.809 363.213 186.672 364.616 186.42C364.598 186.438 362.404 178.434 391.921 177.462Z" fill="#F0BAAF"/>
    <path d="M359.795 189.387C359.795 189.387 354.939 192.985 354.597 199.388L355.479 199.46C355.479 199.46 357.025 192.823 359.831 190.233C362.637 187.643 359.795 189.387 359.795 189.387Z" fill="#F0BAAF"/>
    <path d="M344.254 174.655C344.254 174.655 353.374 169.547 349.129 162.604C349.129 162.604 345.729 158.341 342.078 157.244C342.078 157.244 344.021 167.586 342.078 167.82C340.135 168.072 340.747 156.146 340.747 156.146C340.747 156.146 331.142 151.524 327.364 151.883C327.364 151.883 333.318 161.974 331.376 161.74C329.433 161.488 322.742 151.272 322.742 151.272C322.742 151.272 312.885 149.455 311.302 155.283C309.719 161.129 312.273 164.043 313.73 164.402C315.187 164.762 324.559 164.654 324.307 165.859C324.055 167.082 317.741 169.025 314.216 167.928C314.216 167.928 318.101 177.533 323.209 177.047C328.318 176.562 329.901 173.396 333.066 173.162C336.232 172.91 338.534 173.774 336.952 174.619C335.369 175.464 330.027 174.907 327.454 177.065C324.9 179.242 322.832 180.573 327.58 181.544C332.329 182.515 340.837 181.904 342.546 178.252C344.254 174.655 344.254 174.655 344.254 174.655Z" fill="#CE7C64"/>
    <path d="M315.781 157.135C315.781 157.135 341.322 165.409 344.254 174.654C344.254 174.654 344.128 178.791 346.683 183.54V185.357C346.683 185.357 344.003 179.151 342.546 178.306C342.546 178.288 348.265 170.265 315.781 157.135Z" fill="#F0BAAF"/>
    <path d="M346.683 183.521C346.683 183.521 350.622 189.511 348.373 196.778L347.366 196.508C347.366 196.508 348.355 188.486 346.287 184.457C344.218 180.428 346.683 183.521 346.683 183.521Z" fill="#F0BAAF"/>
    <path d="M358.77 167.604C358.77 167.604 346.736 160.877 352.348 151.722C352.348 151.722 356.845 146.11 361.648 144.671C361.648 144.671 359.076 158.305 361.648 158.629C364.22 158.953 363.41 143.232 363.41 143.232C363.41 143.232 376.073 137.134 381.056 137.62C381.056 137.62 373.195 150.93 375.768 150.607C378.34 150.283 387.153 136.81 387.153 136.81C387.153 136.81 400.14 134.4 402.227 142.099C404.313 149.797 400.949 153.646 399.025 154.132C397.1 154.618 384.761 154.456 385.067 156.057C385.391 157.658 393.719 160.23 398.377 158.791C398.377 158.791 393.251 171.454 386.506 170.824C379.761 170.195 377.692 166.022 373.519 165.698C369.346 165.374 366.306 166.507 368.393 167.622C370.479 168.738 377.53 167.982 380.894 170.86C384.257 173.72 386.991 175.483 380.732 176.778C374.472 178.055 363.249 177.263 361 172.443C358.77 167.604 358.77 167.604 358.77 167.604Z" fill="#CE7C64"/>
    <path d="M396.291 144.51C396.291 144.51 362.619 155.41 358.77 167.605C358.77 167.605 358.932 173.055 355.568 179.315V181.725C355.568 181.725 359.094 173.541 361.018 172.426C361.018 172.408 353.482 161.831 396.291 144.51Z" fill="#F0BAAF"/>
    <path d="M355.55 179.315C355.55 179.315 350.352 187.193 353.32 196.798L354.651 196.438C354.651 196.438 353.356 185.862 356.072 180.556C358.806 175.231 355.55 179.315 355.55 179.315Z" fill="#F0BAAF"/>
    <path d="M358.356 217.608C371.361 217.608 381.919 207.068 381.919 194.045H334.811C334.811 207.068 345.351 217.608 358.356 217.608Z" fill="#516765"/>
    <path d="M364.166 217.428C363.213 217.554 362.223 217.608 361.234 217.608C348.229 217.608 337.671 207.068 337.671 194.045H343.517C343.535 206.078 352.528 215.989 364.166 217.428Z" fill="#8AA5A7"/>
    <path d="M382.243 218.814H334.469C334.469 217.213 335.764 215.9 337.383 215.9H379.329C380.948 215.9 382.243 217.195 382.243 218.814Z" fill="#516765"/>
    <path opacity="0.2" d="M382.441 194.045H334.02V194.764H382.441V194.045Z" fill="#D9E9FE"/>
    <path d="M151.361 31.4592V32.8802C151.361 32.8802 150.965 37.341 156.469 38.0065C161.973 38.654 166.488 38.5821 166.326 35.1286C165.823 32.4665 164.941 28.3115 164.905 26.099C164.887 25.2716 164.941 24.4083 165.103 23.419L154.437 23.2031L151.289 23.7247L151.361 31.4592Z" fill="#F0BAAF"/>
    <path d="M151.325 23.7423L151.361 31.4768C152.494 31.9984 153.771 32.3222 155.21 32.3222C160.102 32.3222 163.268 28.7247 164.923 26.1166C164.905 25.2892 164.959 24.4258 165.121 23.4365L154.454 23.2207L151.325 23.7423Z" fill="#F3AEA0"/>
    <path d="M165.93 21.7288C164.689 28.3841 156.11 28.1682 152.386 27.7545C151.343 27.6466 150.677 27.5027 150.677 27.5027C149.508 27.1969 148.843 25.3263 148.537 22.898C147.925 18.0955 148.699 11.0265 149.508 9.22783C150.731 6.51178 153.034 3.57988 161.686 5.68437C170.355 7.80685 167.531 13.203 165.93 21.7288Z" fill="#F0BAAF"/>
    <path d="M172.963 218.777H160.786C160.876 218.148 161.182 216.205 161.757 214.407C161.955 213.777 162.189 213.183 162.441 212.662C163.628 210.305 171.147 211.798 171.147 211.798C171.147 211.798 171.848 212.392 172.388 214.676C172.64 215.702 172.855 217.033 172.963 218.777Z" fill="#1E2F2B"/>
    <path d="M136.198 214.946C136.162 216.6 135.964 218.165 135.352 218.795H111.286C111.591 217.931 112.455 216.618 114.937 216.205C117.743 215.755 122.114 214.406 124.686 211.69C125.603 210.737 126.269 209.603 126.575 208.272C127.708 203.236 135.946 209.819 135.946 209.819C135.946 209.819 136.252 212.481 136.198 214.946Z" fill="#1E2F2B"/>
    <path d="M152.206 160.446C151.865 162.298 151.667 163.809 151.595 164.889C150.821 179.818 139.022 213.939 136.917 214.731C133.644 215.972 128.517 213.346 125.819 212.482C124.704 212.123 123.949 211.007 124.2 209.856C130.046 183.002 132.187 144.311 132.978 121.414C133.374 109.884 135.352 101.916 135.352 101.916C135.352 101.916 164.132 94.2353 164.294 103.948C164.456 112.546 154.76 146.254 152.206 160.446Z" fill="#16221F"/>
    <path d="M152.206 160.445L132.978 121.431C133.374 109.902 135.352 101.933 135.352 101.933C135.352 101.933 164.132 94.2529 164.294 103.966C164.455 112.546 154.76 146.254 152.206 160.445Z" fill="#121B18"/>
    <path d="M145.803 104.001L161.02 214.262C161.02 214.262 167.693 215.881 172.891 214.586C172.891 214.586 177.352 155.948 176.974 141.774C176.597 127.6 180.176 103.839 176.165 101.213C172.154 98.5869 145.803 104.001 145.803 104.001Z" fill="#16221F"/>
    <path d="M146.882 2.89625C146.882 2.89625 150.696 2.60845 155.174 0.647862C158.826 -0.935002 163.412 0.809745 164.905 1.60118C164.869 1.36734 164.761 1.02559 164.546 0.701823C164.546 0.701823 165.211 1.16949 165.319 1.83501C165.391 1.88897 165.427 1.92494 165.409 1.92494C165.409 1.92494 166.164 1.78105 166.65 1.99689C166.65 1.99689 166.308 1.94293 166.182 2.15878C166.164 2.17676 166.146 2.19475 166.128 2.21274C171.812 4.96476 172.334 13.9403 170.517 16.0268C168.323 18.527 165.679 24.157 165.679 24.157C165.679 24.157 164.725 22.8259 165.121 20.6315C165.517 18.4371 163.628 18.4371 161.218 17.4298C158.826 16.4225 160.822 13.6345 158.718 11.9258C156.613 10.217 148.915 11.2243 149.005 9.9292C146.145 8.90393 146.882 3.18404 146.882 2.89625Z" fill="#1E2F2B"/>
    <path d="M167.639 37.0547L164.132 112.205C164.132 112.205 134.903 112.69 135.73 106.071C136.558 99.4519 146.271 39.357 146.271 39.357L167.639 37.0547Z" fill="#E4E7E6"/>
    <path d="M178.09 79.6479C176.345 84.8641 179.637 102.366 180.806 108.301C181.058 109.56 181.238 110.298 181.238 110.298C177.19 116.881 162.369 116.791 162.369 116.791C159.509 104.182 158.034 84.1086 158.034 84.1086L169.402 34.2305L183.72 47.469C183.72 47.469 182.641 55.5452 181.291 63.7473C180.212 70.2766 179.025 76.8958 178.09 79.6479Z" fill="#516765"/>
    <path d="M153.753 22.8255C153.753 22.8255 153.483 23.6889 151.307 23.3651C151.307 23.3651 149.49 23.0953 149.616 22.142C149.616 22.142 151.451 21.6024 153.753 22.8255Z" fill="white"/>
    <path d="M137.313 38.1335C137.313 38.1335 137.313 38.1515 137.313 38.1695C136.629 38.835 117.113 57.7934 113.318 65.204C109.469 72.7226 130.928 87.7239 130.928 87.7239C130.928 87.7239 132.313 88.2635 133.266 88.0476C132.259 96.3757 131.125 104.056 131.791 107.33C133.014 113.248 138.482 115.244 138.482 114.794C138.482 114.651 139.903 93.1919 141.576 82.1119C145.299 57.5056 149.76 34.4102 149.76 34.4102C143.375 35.0757 137.313 38.1335 137.313 38.1335ZM125.693 68.4417C125.657 68.4057 125.657 68.3518 125.657 68.3338C125.657 67.2546 129.794 64.8623 134.273 62.0383C134.327 61.9844 134.363 61.9484 134.363 61.9484C134.291 64.2507 134.291 66.5171 134.435 68.6216C134.687 72.5248 134.399 77.2014 133.931 81.95C131.809 78.6224 126.125 69.6648 125.693 68.4417Z" fill="#516765"/>
    <path d="M168.467 34.1756C168.503 33.4561 165.103 32.4668 165.103 32.4668C165.103 32.4668 161.218 37.8629 154.814 37.9529C154.814 37.9529 156.631 41.5143 158.79 42.4316C158.79 42.4137 168.269 38.4205 168.467 34.1756Z" fill="#E4E7E6"/>
    <path d="M145.821 88.7305C145.983 90.4932 146.774 92.112 148.087 93.3172L150.12 95.1878C150.624 95.6555 151.433 95.6015 151.865 95.0439L154.383 91.8422C155.066 90.9788 155.372 89.8996 155.282 88.8024C155.048 86.3742 154.599 81.6975 154.257 77.1828C153.969 73.5314 153.735 69.9699 153.717 67.8115C153.663 60.9044 155.03 38.9062 155.03 38.9062L153.376 38.9962C153.376 38.9962 149.275 47.54 147.116 59.1597C146.577 62.0196 146.181 65.0595 145.965 68.2252C145.983 68.2432 145.12 80.7982 145.821 88.7305Z" fill="#516765"/>
    <path d="M145.821 88.7309C145.983 90.4937 146.774 92.1125 148.087 93.3176L150.12 95.1883C150.624 95.656 151.433 95.602 151.865 95.0444L154.383 91.8427C155.066 90.9793 155.372 89.9001 155.282 88.8029C155.048 86.3746 154.599 81.698 154.257 77.1832C149.688 72.0569 147.836 64.952 147.116 59.1602C146.577 62.0201 146.181 65.0599 145.965 68.2256C145.983 68.2436 145.12 80.7986 145.821 88.7309Z" fill="#1E2F2B"/>
    <path d="M154.815 37.8271C154.815 37.8271 151.415 35.8126 151.415 33.6361C151.415 33.6361 149.221 33.3663 148.267 34.4276C148.267 34.4276 147.458 38.1689 148.537 40.3453C148.519 40.3273 153.412 39.5719 154.815 37.8271Z" fill="#E4E7E6"/>
    <path d="M157.117 37.5035L152.512 36.4062C152.512 36.4062 151.918 36.4602 151.936 37.2157C151.954 37.9711 153.232 40.1476 153.807 40.3274C154.365 40.4893 158.214 39.0144 157.117 37.5035Z" fill="#1E2F2B"/>
    <path d="M167.945 33.7979C167.981 33.0785 165.679 31.6035 165.679 31.6035C165.679 31.6035 161.236 36.8018 154.814 36.8917C154.814 36.8917 156.631 40.4532 158.79 41.3705C158.79 41.3705 167.729 38.0609 167.945 33.7979Z" fill="#8AA5A7"/>
    <path d="M154.814 36.8916C154.814 36.8916 151.379 35.0749 151.379 32.8984C151.379 32.8984 149.31 33.8158 148.357 34.877C148.357 34.877 147.476 37.2333 148.537 39.4098C148.519 39.4098 153.411 38.6543 154.814 36.8916Z" fill="#8AA5A7"/>
    <path d="M129.561 88.9464C129.561 87.0398 131.251 85.4929 133.14 85.7807C133.662 85.8526 134.147 86.0685 134.471 86.5182C135.766 88.2449 137.007 93.2993 134.705 93.5331C133.77 93.6231 132.564 92.9755 131.629 92.2561C130.676 91.5366 129.561 90.4214 129.561 89.2342V88.9464Z" fill="#F0BAAF"/>
    <path opacity="0.5" d="M180.788 108.3C176.597 103.929 169.348 95.349 169.618 88.316C169.959 78.4591 181.273 63.7637 181.273 63.7637C180.212 70.257 179.025 76.8763 178.072 79.6463C176.345 84.8625 179.618 102.382 180.788 108.3Z" fill="#1E2F2B"/>
    <path d="M180.662 91.1406C180.662 91.1406 177.64 92.6515 175.823 91.8961C173.988 91.1406 171.848 90.583 169.797 92.9034C167.747 95.2237 167.315 96.8425 167.747 97.7059C168.179 98.5693 172.945 98.2455 173.737 97.7059C174.528 97.1663 175.787 95.8352 176.579 96.0691C178.773 96.6986 180.608 95.0438 181.651 93.7128C182.262 92.9213 180.572 92.5256 180.662 91.1406Z" fill="#F0BAAF"/>
    <path d="M169.384 34.2656C169.384 34.2656 181.381 35.5967 184.223 40.8129C187.047 46.0472 201.779 67.218 201.293 76.0316C200.807 84.8273 181.219 94.7022 181.219 94.7022C181.219 94.7022 176.884 92.8675 176.812 90.889C176.741 88.9104 190.357 77.1288 189.529 74.9164C188.702 72.722 173.719 55.3105 172.262 49.5726C170.823 43.8348 169.384 34.2656 169.384 34.2656Z" fill="#516765"/>
    <path d="M134.363 61.947C134.363 61.947 134.327 61.983 134.273 62.037C129.794 64.8609 125.657 67.2532 125.657 68.3324C125.064 66.4258 130.873 58.4395 132.762 56.8207C134.687 55.1659 134.363 61.947 134.363 61.947Z" fill="#1E2F2B"/>
    <path d="M165.679 31.6035C165.679 31.6035 156.559 69.7721 158.016 84.1438C158.016 84.1438 161.362 68.7828 169.42 56.1919C169.42 56.1919 166.47 53.6017 166.632 52.6484C166.632 52.6484 168.808 52.0009 170.931 52.4326C170.931 52.4326 170.697 35.9744 169.384 34.2476C168.071 32.5209 165.679 31.6035 165.679 31.6035Z" fill="#1E2F2B"/>
    <path d="M151.379 32.8984C151.505 32.9524 142.349 70.1857 141.576 82.1111C141.576 82.1111 142.493 60.8504 142.403 54.7168C142.403 54.7168 146.18 52.7202 146.18 52.0187C146.18 51.3172 142.151 49.4106 142.151 49.4106C142.151 49.4106 144.705 36.316 146.108 34.877C147.493 33.4201 151.379 32.8984 151.379 32.8984Z" fill="#1E2F2B"/>
    <path d="M218.974 219.173C242.071 219.173 260.794 200.45 260.794 177.353C260.794 154.257 242.071 135.533 218.974 135.533C195.878 135.533 177.154 154.257 177.154 177.353C177.154 200.45 195.878 219.173 218.974 219.173Z" fill="#CA8024"/>
    <path opacity="0.5" d="M268.007 183.9C268.007 185.213 267.953 186.508 267.863 187.803V187.821C267.791 188.702 267.701 189.566 267.593 190.429C267.36 192.192 267.054 193.937 266.64 195.628C266.388 196.671 266.118 197.678 265.813 198.685C265.327 200.25 264.769 201.779 264.14 203.272C264.122 203.344 264.086 203.398 264.05 203.47C263.474 204.837 262.827 206.15 262.125 207.427C261.442 208.686 260.704 209.909 259.913 211.096C259.859 211.168 259.805 211.24 259.751 211.33C259.445 211.78 259.122 212.23 258.798 212.679C257.143 214.946 255.29 217.032 253.276 218.921H229.803C228.975 218.921 228.274 218.381 228.058 217.662C228.04 217.608 228.022 217.536 228.004 217.482C227.986 217.428 227.986 217.374 227.986 217.32V212.715C227.986 212.661 227.986 212.607 228.004 212.553C228.022 212.481 228.04 212.427 228.058 212.373C228.274 211.654 228.975 211.114 229.803 211.114H220.845C220.018 211.114 219.316 210.575 219.1 209.855C219.082 209.801 219.064 209.729 219.046 209.675C219.028 209.621 219.028 209.568 219.028 209.514C219.028 209.478 219.028 209.46 219.028 209.424V204.999C219.028 204.963 219.028 204.945 219.028 204.909C219.028 204.855 219.028 204.801 219.046 204.747C219.064 204.675 219.082 204.621 219.1 204.567C219.298 203.848 220.018 203.308 220.845 203.308H224.335C223.813 203.056 223.435 202.553 223.363 201.959C223.363 201.941 223.363 201.905 223.363 201.887C223.363 201.851 223.363 201.833 223.363 201.797V197.372C223.363 197.336 223.363 197.318 223.363 197.282C223.363 197.228 223.363 197.174 223.381 197.12C223.399 197.049 223.417 196.995 223.435 196.941C223.633 196.221 224.352 195.681 225.18 195.681H227.194C226.367 195.681 225.666 195.142 225.45 194.422C225.432 194.368 225.414 194.296 225.396 194.243C225.378 194.189 225.378 194.135 225.378 194.081C225.378 194.045 225.378 194.027 225.378 193.991V189.566C225.378 189.53 225.378 189.512 225.378 189.476C225.378 189.422 225.378 189.368 225.396 189.314C225.504 188.559 226.169 187.947 226.979 187.857H221.025C220.197 187.857 219.496 187.317 219.28 186.598C219.262 186.544 219.244 186.472 219.226 186.418C219.208 186.364 219.208 186.31 219.208 186.256V181.652C219.208 181.634 219.208 181.598 219.208 181.58C219.28 180.842 219.856 180.231 220.611 180.087C219.802 179.997 219.154 179.385 219.046 178.63C219.046 178.576 219.028 178.54 219.028 178.486C219.028 178.45 219.028 178.432 219.028 178.396V173.971C219.028 173.935 219.028 173.917 219.028 173.881C219.028 173.827 219.028 173.773 219.046 173.719C219.064 173.647 219.082 173.593 219.1 173.539C219.298 172.82 220.018 172.28 220.845 172.28H224.335C223.813 172.028 223.435 171.525 223.363 170.931C223.363 170.913 223.363 170.877 223.363 170.859C223.363 170.823 223.363 170.805 223.363 170.769V166.345C223.363 166.309 223.363 166.291 223.363 166.255C223.363 166.201 223.363 166.147 223.381 166.093C223.399 166.021 223.417 165.967 223.435 165.913C223.633 165.193 224.352 164.654 225.18 164.654H232.033C231.206 164.654 230.504 164.114 230.288 163.395C230.27 163.341 230.252 163.269 230.234 163.215C230.216 163.161 230.216 163.107 230.216 163.053C230.216 163.017 230.216 162.999 230.216 162.963V158.538C230.216 158.502 230.216 158.484 230.216 158.448C230.216 158.376 230.234 158.286 230.252 158.214C230.396 157.495 231.026 156.919 231.817 156.829H221.025C220.197 156.829 219.496 156.29 219.28 155.57C219.262 155.516 219.244 155.444 219.226 155.39C219.208 155.336 219.208 155.282 219.208 155.229V150.552C219.208 150.498 219.208 150.444 219.226 150.39C219.244 150.318 219.262 150.264 219.28 150.21C219.478 149.491 220.197 148.951 221.025 148.951H226.385C225.863 148.717 225.504 148.25 225.414 147.692C225.414 147.656 225.396 147.62 225.396 147.584C225.396 147.566 225.396 147.53 225.396 147.512C225.396 147.476 225.396 147.458 225.396 147.422V142.997C225.396 142.961 225.396 142.943 225.396 142.907C225.396 142.853 225.396 142.799 225.414 142.745C225.522 141.99 226.187 141.378 226.997 141.289C227.069 141.289 227.14 141.271 227.212 141.271H229.641C228.831 141.181 228.166 140.587 228.04 139.832C228.022 139.778 228.022 139.724 228.022 139.67V137.961C232.932 138.195 237.609 139.346 241.944 141.289C241.944 141.289 241.962 141.289 241.962 141.307C246.135 143.177 249.984 145.767 253.366 148.951C253.438 149.005 253.492 149.077 253.564 149.131C255.182 150.678 256.693 152.351 258.078 154.131C258.402 154.545 258.726 154.977 259.032 155.408C259.355 155.858 259.661 156.308 259.967 156.757C259.967 156.757 259.967 156.757 259.967 156.775C260.327 157.333 260.686 157.891 261.046 158.466C261.37 159.006 261.694 159.563 261.999 160.121C262.791 161.56 263.528 163.053 264.176 164.6C265.201 167.028 266.047 169.582 266.676 172.226C266.694 172.28 266.712 172.352 266.73 172.424C266.802 172.694 266.856 172.982 266.91 173.252C267.36 175.338 267.683 177.479 267.863 179.673C267.863 179.781 267.881 179.889 267.899 179.997C267.899 180.015 267.899 180.033 267.899 180.051C267.953 181.31 268.007 182.605 268.007 183.9Z" fill="#CA8024"/>
    <path d="M315.907 212.787V217.212C315.907 217.571 315.781 217.895 315.565 218.165C315.331 218.453 315.007 218.669 314.612 218.795C314.486 218.831 314.36 218.867 314.234 218.885C314.108 218.903 314 218.92 313.874 218.92H230.036C229.029 218.92 228.184 218.291 228.022 217.464C228.004 217.41 228.004 217.356 228.004 217.302V212.697C228.004 212.643 228.004 212.589 228.022 212.535C228.166 211.726 229.011 211.078 230.036 211.078H313.874C314 211.078 314.108 211.078 314.234 211.096C314.36 211.114 314.486 211.15 314.612 211.186C315.007 211.312 315.331 211.546 315.565 211.834C315.781 212.121 315.907 212.445 315.907 212.787Z" fill="#ECB74A"/>
    <path d="M274.734 218.92H229.821C228.993 218.92 228.292 218.38 228.076 217.661C228.058 217.607 228.04 217.535 228.022 217.481C228.004 217.427 228.004 217.373 228.004 217.319V212.714C228.004 212.66 228.004 212.606 228.022 212.552C228.04 212.48 228.058 212.426 228.076 212.372C228.292 211.653 228.993 211.113 229.821 211.113H269.23C269.842 213.398 271.317 216.581 274.734 218.92Z" fill="#E8A22C"/>
    <path d="M305.708 211.096H304.755V218.92H305.708V211.096Z" fill="#E8A22C"/>
    <path d="M302.47 211.096H301.517V218.92H302.47V211.096Z" fill="#E8A22C"/>
    <path d="M298.603 211.096H297.65V218.92H298.603V211.096Z" fill="#E8A22C"/>
    <path d="M292.686 211.096H291.732V218.92H292.686V211.096Z" fill="#E8A22C"/>
    <path d="M286.408 211.096H285.455V218.92H286.408V211.096Z" fill="#E8A22C"/>
    <path d="M276.803 211.096H275.85V218.92H276.803V211.096Z" fill="#E8A22C"/>
    <path d="M267.791 211.096H266.838V218.92H267.791V211.096Z" fill="#E8A22C"/>
    <path d="M259.751 211.096H258.798V218.92H259.751V211.096Z" fill="#E8A22C"/>
    <path d="M308.766 211.096H307.812V218.92H308.766V211.096Z" fill="#E8A22C"/>
    <path d="M310.799 211.096H309.845V218.92H310.799V211.096Z" fill="#E8A22C"/>
    <path d="M312.759 211.096H311.806V218.92H312.759V211.096Z" fill="#E8A22C"/>
    <path d="M314.234 211.114V218.884C314.126 218.902 314 218.92 313.874 218.92H313.281V211.096H313.874C314 211.096 314.108 211.096 314.234 211.114Z" fill="#E8A22C"/>
    <path d="M315.547 211.85V218.182C315.313 218.469 314.989 218.685 314.594 218.811V211.221C314.989 211.329 315.331 211.562 315.547 211.85Z" fill="#E8A22C"/>
    <path d="M306.931 204.963V209.387C306.931 209.747 306.805 210.071 306.589 210.341C306.356 210.629 306.032 210.862 305.636 210.988C305.51 211.024 305.384 211.06 305.258 211.078C305.204 211.078 305.15 211.096 305.079 211.096C305.025 211.096 304.953 211.096 304.899 211.096H221.061C220.054 211.096 219.208 210.467 219.046 209.639C219.028 209.585 219.028 209.531 219.028 209.477C219.028 209.441 219.028 209.423 219.028 209.387V204.963C219.028 204.927 219.028 204.909 219.028 204.873C219.028 204.819 219.028 204.765 219.046 204.711C219.19 203.883 220.036 203.254 221.061 203.254H304.899C304.953 203.254 305.007 203.254 305.061 203.254C305.079 203.254 305.097 203.254 305.114 203.254C305.132 203.254 305.168 203.254 305.186 203.254C305.204 203.254 305.222 203.254 305.24 203.254C305.366 203.272 305.492 203.308 305.618 203.344C305.636 203.344 305.654 203.362 305.672 203.362C305.69 203.362 305.708 203.38 305.726 203.38C305.744 203.38 305.744 203.398 305.762 203.398C305.78 203.398 305.798 203.416 305.834 203.416C305.852 203.416 305.87 203.434 305.888 203.452H305.906C305.924 203.452 305.924 203.47 305.942 203.47C305.978 203.488 306.014 203.506 306.032 203.524C306.122 203.578 306.194 203.632 306.266 203.686C306.302 203.722 306.338 203.74 306.356 203.776C306.428 203.847 306.499 203.919 306.553 203.991C306.805 204.279 306.931 204.621 306.931 204.963Z" fill="#ECB74A"/>
    <path d="M265.759 211.095H220.845C220.018 211.095 219.316 210.556 219.1 209.836C219.082 209.782 219.064 209.71 219.046 209.656C219.028 209.603 219.028 209.549 219.028 209.495C219.028 209.459 219.028 209.441 219.028 209.405V204.98C219.028 204.944 219.028 204.926 219.028 204.89C219.028 204.836 219.028 204.782 219.046 204.728C219.064 204.656 219.082 204.602 219.1 204.548C219.298 203.829 220.018 203.289 220.845 203.289H260.237C260.255 203.361 260.273 203.415 260.291 203.487C260.632 204.674 261.19 206.059 262.107 207.444C262.989 208.721 264.158 209.998 265.759 211.095Z" fill="#E8A22C"/>
    <path d="M296.733 203.271H295.779V211.096H296.733V203.271Z" fill="#E8A22C"/>
    <path d="M293.513 203.271H292.56V211.096H293.513V203.271Z" fill="#E8A22C"/>
    <path d="M289.646 203.271H288.692V211.096H289.646V203.271Z" fill="#E8A22C"/>
    <path d="M283.71 203.271H282.757V211.096H283.71V203.271Z" fill="#E8A22C"/>
    <path d="M277.45 203.271H276.497V211.096H277.45V203.271Z" fill="#E8A22C"/>
    <path d="M267.827 203.271H266.874V211.096H267.827V203.271Z" fill="#E8A22C"/>
    <path d="M258.834 203.271H257.88V211.096H258.834V203.271Z" fill="#E8A22C"/>
    <path d="M250.794 203.271H249.84V211.096H250.794V203.271Z" fill="#E8A22C"/>
    <path d="M299.808 203.271H298.855V211.096H299.808V203.271Z" fill="#E8A22C"/>
    <path d="M301.841 203.271H300.888V211.096H301.841V203.271Z" fill="#E8A22C"/>
    <path d="M303.801 203.271H302.848V211.096H303.801V203.271Z" fill="#E8A22C"/>
    <path d="M305.277 203.289V211.06C305.169 211.078 305.043 211.096 304.917 211.096H304.323V203.271H304.917C305.025 203.271 305.151 203.271 305.277 203.289Z" fill="#E8A22C"/>
    <path d="M306.59 204.008V210.34C306.356 210.628 306.032 210.844 305.636 210.969V203.379C306.032 203.505 306.356 203.721 306.59 204.008Z" fill="#E8A22C"/>
    <path d="M311.266 197.338V201.762C311.266 202.122 311.14 202.446 310.924 202.716C310.691 203.004 310.367 203.219 309.971 203.345C309.845 203.381 309.719 203.417 309.593 203.435C309.486 203.453 309.36 203.471 309.234 203.471H225.396C225.054 203.471 224.748 203.399 224.461 203.273C223.867 203.022 223.435 202.518 223.381 201.924C223.381 201.906 223.381 201.87 223.381 201.852C223.381 201.816 223.381 201.798 223.381 201.762V197.338C223.381 197.302 223.381 197.284 223.381 197.248C223.381 197.194 223.381 197.14 223.399 197.086C223.543 196.276 224.389 195.629 225.414 195.629H309.252C309.378 195.629 309.486 195.647 309.611 195.665C309.737 195.683 309.863 195.719 309.989 195.755C310.385 195.881 310.709 196.115 310.942 196.402C311.14 196.654 311.266 196.978 311.266 197.338Z" fill="#ECB74A"/>
    <path d="M270.094 203.453H225.18C224.874 203.453 224.586 203.381 224.353 203.255C223.831 203.004 223.453 202.5 223.381 201.906C223.381 201.888 223.381 201.852 223.381 201.834C223.381 201.798 223.381 201.78 223.381 201.745V197.32C223.381 197.284 223.381 197.266 223.381 197.23C223.381 197.176 223.381 197.122 223.399 197.068C223.417 196.996 223.435 196.942 223.453 196.888C223.651 196.169 224.371 195.629 225.198 195.629H264.608C264.86 196.546 265.237 197.607 265.831 198.687C266.676 200.27 267.953 201.888 269.86 203.273C269.914 203.327 270.004 203.399 270.094 203.453Z" fill="#E8A22C"/>
    <path d="M301.068 195.629H300.114V203.453H301.068V195.629Z" fill="#E8A22C"/>
    <path d="M297.848 195.629H296.895V203.453H297.848V195.629Z" fill="#E8A22C"/>
    <path d="M293.981 195.629H293.027V203.453H293.981V195.629Z" fill="#E8A22C"/>
    <path d="M288.045 195.629H287.092V203.453H288.045V195.629Z" fill="#E8A22C"/>
    <path d="M281.767 195.629H280.814V203.453H281.767V195.629Z" fill="#E8A22C"/>
    <path d="M272.162 195.629H271.209V203.453H272.162V195.629Z" fill="#E8A22C"/>
    <path d="M263.169 195.629H262.215V203.453H263.169V195.629Z" fill="#E8A22C"/>
    <path d="M255.129 195.629H254.175V203.453H255.129V195.629Z" fill="#E8A22C"/>
    <path d="M304.143 195.629H303.19V203.453H304.143V195.629Z" fill="#E8A22C"/>
    <path d="M306.176 195.629H305.223V203.453H306.176V195.629Z" fill="#E8A22C"/>
    <path d="M308.118 195.629H307.165V203.453H308.118V195.629Z" fill="#E8A22C"/>
    <path d="M309.593 195.664V203.435C309.486 203.453 309.36 203.47 309.234 203.47H308.64V195.646H309.234C309.36 195.628 309.486 195.646 309.593 195.664Z" fill="#E8A22C"/>
    <path d="M310.924 196.383V202.715C310.691 203.003 310.367 203.219 309.971 203.344V195.754C310.367 195.862 310.691 196.096 310.924 196.383Z" fill="#E8A22C"/>
    <path d="M313.281 189.512V193.937C313.281 194.297 313.155 194.621 312.939 194.89C312.885 194.962 312.813 195.034 312.741 195.088C312.525 195.286 312.274 195.43 311.986 195.52C311.86 195.556 311.734 195.592 311.608 195.61C311.554 195.61 311.482 195.628 311.428 195.628C311.374 195.628 311.302 195.628 311.248 195.628H227.41C226.403 195.628 225.558 194.998 225.396 194.171C225.378 194.117 225.378 194.063 225.378 194.009C225.378 193.973 225.378 193.955 225.378 193.919V189.494C225.378 189.458 225.378 189.44 225.378 189.404C225.378 189.35 225.378 189.296 225.396 189.243C225.522 188.487 226.259 187.875 227.159 187.786C227.231 187.786 227.321 187.768 227.392 187.768H311.23C311.356 187.768 311.464 187.768 311.59 187.804C311.716 187.822 311.842 187.858 311.968 187.893C312.363 188.019 312.687 188.253 312.921 188.523C313.155 188.829 313.281 189.153 313.281 189.512Z" fill="#ECB74A"/>
    <path d="M272.108 195.628H227.195C226.367 195.628 225.666 195.088 225.45 194.368C225.432 194.314 225.414 194.243 225.396 194.189C225.378 194.135 225.378 194.081 225.378 194.027C225.378 193.991 225.378 193.973 225.378 193.937V189.512C225.378 189.476 225.378 189.458 225.378 189.422C225.378 189.368 225.378 189.314 225.396 189.26C225.504 188.505 226.169 187.893 226.979 187.803C227.051 187.803 227.123 187.785 227.195 187.785H266.604C266.604 187.785 266.604 187.785 266.604 187.803C266.82 188.595 267.144 189.494 267.594 190.411C268.457 192.192 269.86 194.099 272.108 195.628Z" fill="#E8A22C"/>
    <path d="M303.082 187.803H302.129V195.627H303.082V187.803Z" fill="#E8A22C"/>
    <path d="M299.844 187.803H298.891V195.627H299.844V187.803Z" fill="#E8A22C"/>
    <path d="M295.977 187.803H295.024V195.627H295.977V187.803Z" fill="#E8A22C"/>
    <path d="M290.06 187.803H289.106V195.627H290.06V187.803Z" fill="#E8A22C"/>
    <path d="M283.782 187.803H282.829V195.627H283.782V187.803Z" fill="#E8A22C"/>
    <path d="M274.177 187.803H273.224V195.627H274.177V187.803Z" fill="#E8A22C"/>
    <path d="M265.166 187.803H264.212V195.627H265.166V187.803Z" fill="#E8A22C"/>
    <path d="M257.143 187.803H256.19V195.627H257.143V187.803Z" fill="#E8A22C"/>
    <path d="M306.14 187.803H305.187V195.627H306.14V187.803Z" fill="#E8A22C"/>
    <path d="M308.173 187.803H307.219V195.627H308.173V187.803Z" fill="#E8A22C"/>
    <path d="M310.133 187.803H309.18V195.627H310.133V187.803Z" fill="#E8A22C"/>
    <path d="M311.608 187.821V195.591C311.5 195.609 311.374 195.627 311.248 195.627H310.655V187.803H311.248C311.374 187.803 311.5 187.803 311.608 187.821Z" fill="#E8A22C"/>
    <path d="M312.939 188.557V194.889C312.705 195.177 312.382 195.392 311.986 195.518V187.928C312.364 188.036 312.705 188.269 312.939 188.557Z" fill="#E8A22C"/>
    <path d="M307.111 181.688V186.113C307.111 186.472 306.985 186.796 306.769 187.066C306.535 187.354 306.212 187.569 305.816 187.695C305.69 187.731 305.564 187.767 305.438 187.785C305.402 187.785 305.366 187.803 305.312 187.803H305.294C305.258 187.803 305.222 187.803 305.186 187.803C305.15 187.803 305.114 187.803 305.078 187.803H221.241C220.233 187.803 219.388 187.174 219.226 186.346C219.208 186.292 219.208 186.238 219.208 186.184V181.58C219.208 181.562 219.208 181.526 219.208 181.508C219.298 180.788 219.91 180.195 220.737 180.015C220.755 180.015 220.773 180.015 220.791 179.997C220.935 179.979 221.079 179.961 221.223 179.961H305.06C305.114 179.961 305.186 179.961 305.24 179.961C305.276 179.961 305.294 179.961 305.312 179.961C305.348 179.961 305.384 179.961 305.402 179.979C305.528 179.997 305.654 180.033 305.78 180.069C306.176 180.195 306.499 180.429 306.733 180.716C306.985 181.004 307.111 181.346 307.111 181.688Z" fill="#ECB74A"/>
    <path d="M265.938 187.822H221.025C220.197 187.822 219.496 187.282 219.28 186.563C219.262 186.509 219.244 186.437 219.226 186.383C219.208 186.329 219.208 186.275 219.208 186.221V181.616C219.208 181.598 219.208 181.563 219.208 181.545C219.28 180.807 219.856 180.195 220.611 180.052C220.629 180.052 220.665 180.034 220.683 180.034C220.791 180.016 220.899 180.016 221.007 180.016H260.434C260.434 180.034 260.452 180.052 260.452 180.07C261.082 182.336 262.539 185.484 265.938 187.822C265.938 187.804 265.938 187.804 265.938 187.822Z" fill="#E8A22C"/>
    <path d="M296.912 179.979H295.959V187.803H296.912V179.979Z" fill="#E8A22C"/>
    <path d="M293.693 179.979H292.739V187.803H293.693V179.979Z" fill="#E8A22C"/>
    <path d="M289.825 179.979H288.872V187.803H289.825V179.979Z" fill="#E8A22C"/>
    <path d="M283.89 179.979H282.937V187.803H283.89V179.979Z" fill="#E8A22C"/>
    <path d="M277.612 179.979H276.659V187.803H277.612V179.979Z" fill="#E8A22C"/>
    <path d="M268.007 179.979H267.054V187.803H268.007V179.979Z" fill="#E8A22C"/>
    <path d="M259.013 179.979H258.06V187.803H259.013V179.979Z" fill="#E8A22C"/>
    <path d="M250.973 179.979H250.02V187.803H250.973V179.979Z" fill="#E8A22C"/>
    <path d="M299.988 179.979H299.035V187.803H299.988V179.979Z" fill="#E8A22C"/>
    <path d="M302.021 179.979H301.067V187.803H302.021V179.979Z" fill="#E8A22C"/>
    <path d="M303.963 179.979H303.01V187.803H303.963V179.979Z" fill="#E8A22C"/>
    <path d="M305.438 180.014V187.784C305.33 187.802 305.204 187.82 305.078 187.82H304.485V179.996H305.078C305.204 179.978 305.33 179.996 305.438 180.014Z" fill="#E8A22C"/>
    <path d="M306.769 180.733V187.065C306.535 187.352 306.212 187.568 305.816 187.694V180.104C306.212 180.229 306.535 180.445 306.769 180.733Z" fill="#E8A22C"/>
    <path d="M306.931 173.918V178.343C306.931 178.702 306.805 179.026 306.59 179.296C306.356 179.584 306.032 179.8 305.636 179.925C305.546 179.961 305.438 179.979 305.348 179.997C305.33 179.997 305.294 179.997 305.276 180.015C305.169 180.033 305.043 180.051 304.917 180.051H221.079C220.989 180.051 220.899 180.051 220.809 180.033C220.773 180.033 220.737 180.033 220.719 180.015C219.874 179.889 219.19 179.296 219.064 178.576C219.064 178.522 219.046 178.486 219.046 178.433C219.046 178.397 219.046 178.379 219.046 178.343V173.918C219.046 173.882 219.046 173.864 219.046 173.828C219.046 173.774 219.046 173.72 219.064 173.666C219.208 172.839 220.054 172.209 221.079 172.209H304.917C304.971 172.209 305.025 172.209 305.079 172.209H305.097C305.115 172.209 305.133 172.209 305.151 172.209C305.169 172.209 305.205 172.209 305.222 172.209C305.24 172.209 305.258 172.209 305.276 172.209C305.402 172.227 305.528 172.263 305.654 172.299C305.672 172.299 305.69 172.317 305.708 172.317C305.726 172.317 305.744 172.335 305.762 172.335C305.78 172.335 305.78 172.353 305.798 172.353C305.816 172.353 305.834 172.371 305.87 172.371C305.888 172.371 305.906 172.389 305.924 172.389C306.068 172.461 306.194 172.533 306.32 172.623C306.356 172.659 306.392 172.677 306.41 172.713C306.446 172.749 306.464 172.767 306.5 172.803C306.518 172.821 306.518 172.839 306.536 172.839C306.572 172.875 306.59 172.892 306.607 172.928C306.805 173.234 306.931 173.576 306.931 173.918Z" fill="#ECB74A"/>
    <path d="M265.759 180.051H220.845C220.809 180.051 220.773 180.051 220.737 180.051C220.701 180.051 220.665 180.051 220.629 180.033C219.82 179.943 219.172 179.331 219.064 178.576C219.064 178.522 219.046 178.486 219.046 178.432C219.046 178.396 219.046 178.378 219.046 178.342V173.917C219.046 173.881 219.046 173.863 219.046 173.827C219.046 173.773 219.046 173.719 219.064 173.666C219.082 173.594 219.1 173.54 219.118 173.486C219.316 172.766 220.036 172.227 220.863 172.227H260.255C260.273 172.281 260.291 172.352 260.309 172.424C260.956 174.691 262.413 177.731 265.687 179.997C265.705 179.997 265.741 180.015 265.759 180.051Z" fill="#E8A22C"/>
    <path d="M296.733 172.209H295.779V180.033H296.733V172.209Z" fill="#E8A22C"/>
    <path d="M293.513 172.209H292.56V180.033H293.513V172.209Z" fill="#E8A22C"/>
    <path d="M289.646 172.209H288.692V180.033H289.646V172.209Z" fill="#E8A22C"/>
    <path d="M283.71 172.209H282.757V180.033H283.71V172.209Z" fill="#E8A22C"/>
    <path d="M277.45 172.209H276.497V180.033H277.45V172.209Z" fill="#E8A22C"/>
    <path d="M267.827 172.209H266.874V180.033H267.827V172.209Z" fill="#E8A22C"/>
    <path d="M258.834 172.209H257.88V180.033H258.834V172.209Z" fill="#E8A22C"/>
    <path d="M250.794 172.209H249.84V180.033H250.794V172.209Z" fill="#E8A22C"/>
    <path d="M299.808 172.209H298.855V180.033H299.808V172.209Z" fill="#E8A22C"/>
    <path d="M301.841 172.209H300.888V180.033H301.841V172.209Z" fill="#E8A22C"/>
    <path d="M303.801 172.209H302.848V180.033H303.801V172.209Z" fill="#E8A22C"/>
    <path d="M305.277 172.244V180.015C305.169 180.033 305.043 180.051 304.917 180.051H304.323V172.226H304.917C305.025 172.208 305.151 172.226 305.277 172.244Z" fill="#E8A22C"/>
    <path d="M306.59 172.964V179.295C306.356 179.583 306.032 179.799 305.636 179.925V172.334C306.032 172.46 306.356 172.676 306.59 172.964Z" fill="#E8A22C"/>
    <path d="M311.266 166.291V170.698C311.266 171.058 311.14 171.382 310.924 171.651C310.691 171.939 310.367 172.173 309.971 172.299C309.845 172.335 309.719 172.371 309.593 172.389C309.539 172.407 309.468 172.407 309.414 172.407C309.36 172.407 309.288 172.407 309.234 172.407H225.396C225.054 172.407 224.748 172.335 224.461 172.209C223.867 171.957 223.435 171.454 223.381 170.86C223.381 170.842 223.381 170.806 223.381 170.788C223.381 170.752 223.381 170.734 223.381 170.698V166.273C223.381 166.237 223.381 166.219 223.381 166.183C223.381 166.129 223.381 166.075 223.399 166.021C223.543 165.194 224.389 164.564 225.414 164.564H309.252C309.378 164.564 309.486 164.564 309.611 164.6C309.737 164.618 309.863 164.654 309.989 164.69C310.385 164.816 310.709 165.05 310.942 165.32C311.14 165.608 311.266 165.931 311.266 166.291Z" fill="#ECB74A"/>
    <path d="M270.094 172.406H225.18C224.874 172.406 224.586 172.334 224.353 172.209C223.831 171.957 223.453 171.453 223.381 170.86C223.381 170.842 223.381 170.806 223.381 170.788C223.381 170.752 223.381 170.734 223.381 170.698V166.273C223.381 166.237 223.381 166.219 223.381 166.183C223.381 166.129 223.381 166.075 223.399 166.021C223.417 165.949 223.435 165.895 223.453 165.841C223.651 165.122 224.371 164.582 225.198 164.582H264.608C265.219 166.83 266.622 169.906 269.842 172.209C269.914 172.281 270.004 172.334 270.094 172.406Z" fill="#E8A22C"/>
    <path d="M301.068 164.582H300.114V172.406H301.068V164.582Z" fill="#E8A22C"/>
    <path d="M297.848 164.582H296.895V172.406H297.848V164.582Z" fill="#E8A22C"/>
    <path d="M293.981 164.582H293.027V172.406H293.981V164.582Z" fill="#E8A22C"/>
    <path d="M288.045 164.582H287.092V172.406H288.045V164.582Z" fill="#E8A22C"/>
    <path d="M281.767 164.582H280.814V172.406H281.767V164.582Z" fill="#E8A22C"/>
    <path d="M272.162 164.582H271.209V172.406H272.162V164.582Z" fill="#E8A22C"/>
    <path d="M263.169 164.582H262.215V172.406H263.169V164.582Z" fill="#E8A22C"/>
    <path d="M255.129 164.582H254.175V172.406H255.129V164.582Z" fill="#E8A22C"/>
    <path d="M304.143 164.582H303.19V172.406H304.143V164.582Z" fill="#E8A22C"/>
    <path d="M306.176 164.582H305.223V172.406H306.176V164.582Z" fill="#E8A22C"/>
    <path d="M308.118 164.582H307.165V172.406H308.118V164.582Z" fill="#E8A22C"/>
    <path d="M309.593 164.6V172.37C309.486 172.388 309.36 172.406 309.234 172.406H308.64V164.582H309.234C309.36 164.582 309.486 164.582 309.593 164.6Z" fill="#E8A22C"/>
    <path d="M310.924 165.337V171.668C310.691 171.956 310.367 172.172 309.971 172.298V164.707C310.367 164.815 310.691 165.049 310.924 165.337Z" fill="#E8A22C"/>
    <path d="M318.119 158.449V162.873C318.119 163.233 317.993 163.557 317.777 163.827C317.741 163.863 317.723 163.899 317.688 163.935C317.472 164.168 317.166 164.366 316.824 164.474C316.698 164.51 316.59 164.546 316.446 164.564C316.32 164.582 316.213 164.6 316.087 164.6H232.249C231.242 164.6 230.396 163.971 230.234 163.143C230.216 163.089 230.216 163.035 230.216 162.981C230.216 162.945 230.216 162.927 230.216 162.891V158.467C230.216 158.431 230.216 158.413 230.216 158.377C230.27 157.549 231.026 156.866 231.997 156.776C232.069 156.776 232.159 156.758 232.231 156.758H316.069C316.195 156.758 316.302 156.758 316.428 156.794C316.554 156.812 316.68 156.848 316.806 156.884C317.148 156.992 317.436 157.172 317.669 157.423C317.705 157.459 317.741 157.495 317.759 157.531C317.993 157.783 318.119 158.107 318.119 158.449Z" fill="#ECB74A"/>
    <path d="M276.947 164.583H232.033C231.206 164.583 230.504 164.043 230.288 163.324C230.27 163.27 230.252 163.198 230.234 163.144C230.216 163.09 230.216 163.036 230.216 162.982C230.216 162.946 230.216 162.928 230.216 162.892V158.467C230.216 158.431 230.216 158.413 230.216 158.377C230.216 158.305 230.234 158.215 230.252 158.143C230.396 157.424 231.026 156.848 231.817 156.758C231.889 156.758 231.961 156.74 232.033 156.74H271.443C271.443 156.74 271.443 156.74 271.443 156.758C272.072 159.061 273.529 162.244 276.947 164.583Z" fill="#E8A22C"/>
    <path d="M307.921 156.758H306.967V164.582H307.921V156.758Z" fill="#E8A22C"/>
    <path d="M304.701 156.758H303.748V164.582H304.701V156.758Z" fill="#E8A22C"/>
    <path d="M300.834 156.758H299.88V164.582H300.834V156.758Z" fill="#E8A22C"/>
    <path d="M294.898 156.758H293.945V164.582H294.898V156.758Z" fill="#E8A22C"/>
    <path d="M288.62 156.758H287.667V164.582H288.62V156.758Z" fill="#E8A22C"/>
    <path d="M279.015 156.758H278.062V164.582H279.015V156.758Z" fill="#E8A22C"/>
    <path d="M270.022 156.758H269.068V164.582H270.022V156.758Z" fill="#E8A22C"/>
    <path d="M261.982 156.758H261.028V164.582H261.982V156.758Z" fill="#E8A22C"/>
    <path d="M310.996 156.758H310.043V164.582H310.996V156.758Z" fill="#E8A22C"/>
    <path d="M313.011 156.758H312.058V164.582H313.011V156.758Z" fill="#E8A22C"/>
    <path d="M314.971 156.758H314.018V164.582H314.971V156.758Z" fill="#E8A22C"/>
    <path d="M316.446 156.776V164.546C316.339 164.564 316.213 164.582 316.087 164.582H315.493V156.758H316.087C316.213 156.758 316.339 156.758 316.446 156.776Z" fill="#E8A22C"/>
    <path d="M317.778 157.512V163.844C317.544 164.132 317.22 164.347 316.824 164.473V156.883C317.22 156.991 317.544 157.225 317.778 157.512Z" fill="#E8A22C"/>
    <path d="M307.111 150.642V155.067C307.111 155.427 306.985 155.751 306.77 156.021C306.536 156.308 306.212 156.542 305.816 156.668C305.69 156.704 305.564 156.74 305.438 156.758C305.403 156.758 305.367 156.776 305.313 156.776C305.295 156.776 305.277 156.776 305.259 156.776C305.241 156.776 305.241 156.776 305.223 156.776C305.205 156.776 305.187 156.776 305.169 156.776H221.223C220.216 156.776 219.37 156.146 219.208 155.319C219.19 155.265 219.19 155.211 219.19 155.157V150.552C219.19 150.498 219.19 150.445 219.208 150.391C219.352 149.581 220.198 148.934 221.223 148.934H305.061C305.097 148.934 305.133 148.934 305.169 148.934H305.187C305.223 148.934 305.259 148.934 305.277 148.934C305.331 148.934 305.367 148.934 305.421 148.952C305.546 148.97 305.672 149.006 305.798 149.042C305.852 149.059 305.888 149.077 305.942 149.095C305.96 149.095 305.96 149.095 305.978 149.113C306.302 149.239 306.554 149.437 306.752 149.689C306.985 149.959 307.111 150.283 307.111 150.642Z" fill="#ECB74A"/>
    <path d="M265.939 156.758H221.025C220.198 156.758 219.496 156.218 219.28 155.498C219.262 155.445 219.244 155.373 219.226 155.319C219.208 155.265 219.208 155.211 219.208 155.157V150.552C219.208 150.498 219.208 150.444 219.226 150.39C219.244 150.318 219.262 150.264 219.28 150.21C219.478 149.491 220.198 148.951 221.025 148.951H260.435C260.453 149.005 260.471 149.077 260.489 149.131C261.136 151.397 262.611 154.473 265.939 156.758Z" fill="#E8A22C"/>
    <path d="M296.913 148.934H295.959V156.758H296.913V148.934Z" fill="#E8A22C"/>
    <path d="M293.693 148.934H292.74V156.758H293.693V148.934Z" fill="#E8A22C"/>
    <path d="M289.826 148.934H288.873V156.758H289.826V148.934Z" fill="#E8A22C"/>
    <path d="M283.89 148.934H282.937V156.758H283.89V148.934Z" fill="#E8A22C"/>
    <path d="M277.613 148.934H276.659V156.758H277.613V148.934Z" fill="#E8A22C"/>
    <path d="M268.008 148.934H267.054V156.758H268.008V148.934Z" fill="#E8A22C"/>
    <path d="M259.014 148.934H258.061V156.758H259.014V148.934Z" fill="#E8A22C"/>
    <path d="M250.974 148.934H250.021V156.758H250.974V148.934Z" fill="#E8A22C"/>
    <path d="M299.988 148.934H299.035V156.758H299.988V148.934Z" fill="#E8A22C"/>
    <path d="M302.021 148.934H301.068V156.758H302.021V148.934Z" fill="#E8A22C"/>
    <path d="M303.964 148.934H303.01V156.758H303.964V148.934Z" fill="#E8A22C"/>
    <path d="M305.439 148.97V156.74C305.331 156.758 305.205 156.776 305.079 156.776H304.485V148.934H305.079C305.205 148.934 305.331 148.952 305.439 148.97Z" fill="#E8A22C"/>
    <path d="M306.77 149.688V156.02C306.536 156.307 306.212 156.523 305.816 156.649V149.059C306.212 149.185 306.536 149.4 306.77 149.688Z" fill="#E8A22C"/>
    <path d="M313.28 142.998V147.423C313.28 147.783 313.154 148.107 312.939 148.376C312.705 148.664 312.381 148.898 311.985 149.024C311.859 149.06 311.734 149.096 311.608 149.114C311.5 149.132 311.374 149.15 311.248 149.15H227.41C227.086 149.15 226.781 149.078 226.511 148.97C225.935 148.736 225.521 148.268 225.414 147.711C225.414 147.675 225.396 147.639 225.396 147.603C225.396 147.585 225.396 147.549 225.396 147.531C225.396 147.495 225.396 147.477 225.396 147.441V142.998C225.396 142.962 225.396 142.944 225.396 142.908C225.396 142.854 225.396 142.8 225.414 142.746C225.539 141.991 226.277 141.379 227.176 141.289C227.248 141.289 227.338 141.271 227.41 141.271H311.248C311.32 141.271 311.392 141.271 311.482 141.289C311.518 141.289 311.572 141.289 311.608 141.307C311.734 141.325 311.859 141.361 311.985 141.397C312.381 141.523 312.705 141.757 312.939 142.027C313.154 142.315 313.28 142.638 313.28 142.998Z" fill="#ECB74A"/>
    <path d="M272.108 149.114H227.194C226.906 149.114 226.637 149.042 226.385 148.934C225.863 148.7 225.503 148.232 225.414 147.675C225.414 147.639 225.396 147.603 225.396 147.567C225.396 147.549 225.396 147.513 225.396 147.495C225.396 147.459 225.396 147.441 225.396 147.405V142.998C225.396 142.962 225.396 142.944 225.396 142.908C225.396 142.854 225.396 142.8 225.414 142.746C225.521 141.991 226.187 141.379 226.996 141.289C227.068 141.289 227.14 141.271 227.212 141.271H266.622C266.622 141.271 266.622 141.271 266.622 141.289C267.233 143.538 268.654 146.614 271.874 148.934C271.928 149.006 272.018 149.06 272.108 149.114Z" fill="#E8A22C"/>
    <path d="M303.082 141.289H302.128V149.113H303.082V141.289Z" fill="#E8A22C"/>
    <path d="M299.844 141.289H298.891V149.113H299.844V141.289Z" fill="#E8A22C"/>
    <path d="M295.977 141.289H295.023V149.113H295.977V141.289Z" fill="#E8A22C"/>
    <path d="M290.059 141.289H289.106V149.113H290.059V141.289Z" fill="#E8A22C"/>
    <path d="M283.781 141.289H282.828V149.113H283.781V141.289Z" fill="#E8A22C"/>
    <path d="M274.176 141.289H273.223V149.113H274.176V141.289Z" fill="#E8A22C"/>
    <path d="M265.165 141.289H264.212V149.113H265.165V141.289Z" fill="#E8A22C"/>
    <path d="M257.143 141.289H256.189V149.113H257.143V141.289Z" fill="#E8A22C"/>
    <path d="M306.139 141.289H305.186V149.113H306.139V141.289Z" fill="#E8A22C"/>
    <path d="M308.172 141.289H307.219V149.113H308.172V141.289Z" fill="#E8A22C"/>
    <path d="M310.133 141.289H309.179V149.113H310.133V141.289Z" fill="#E8A22C"/>
    <path d="M311.608 141.324V149.095C311.5 149.113 311.374 149.131 311.248 149.131H310.654V141.306H311.248C311.374 141.288 311.5 141.306 311.608 141.324Z" fill="#E8A22C"/>
    <path d="M312.939 142.044V148.375C312.705 148.663 312.381 148.879 311.985 149.005V141.414C312.363 141.54 312.705 141.756 312.939 142.044Z" fill="#E8A22C"/>
    <path d="M315.907 135.174V139.598C315.907 139.958 315.781 140.282 315.565 140.552C315.511 140.624 315.439 140.696 315.367 140.75C315.151 140.947 314.9 141.091 314.612 141.181C314.486 141.217 314.36 141.253 314.234 141.271C314.198 141.271 314.162 141.289 314.108 141.289C314.09 141.289 314.072 141.289 314.054 141.289C313.982 141.289 313.928 141.289 313.856 141.289H230.037C229.965 141.289 229.893 141.289 229.821 141.271C228.903 141.181 228.166 140.588 228.04 139.832C228.022 139.778 228.022 139.724 228.022 139.67V135.084C228.022 135.03 228.022 134.976 228.04 134.922C228.184 134.094 229.029 133.465 230.054 133.465H313.892C314.018 133.465 314.126 133.465 314.252 133.501C314.378 133.519 314.504 133.555 314.63 133.591C315.025 133.717 315.349 133.95 315.583 134.22C315.781 134.508 315.907 134.832 315.907 135.174Z" fill="#ECB74A"/>
    <path d="M274.734 141.306H229.821C229.749 141.306 229.695 141.306 229.623 141.288C228.813 141.198 228.148 140.605 228.022 139.849C228.004 139.795 228.004 139.742 228.004 139.688V135.101C228.004 135.047 228.004 134.993 228.022 134.939C228.04 134.867 228.058 134.813 228.076 134.759C228.292 134.04 228.993 133.5 229.821 133.5H269.23C269.842 135.766 271.299 138.95 274.734 141.306C274.716 141.306 274.716 141.288 274.734 141.306Z" fill="#E8A22C"/>
    <path d="M305.708 133.482H304.755V141.307H305.708V133.482Z" fill="#E8A22C"/>
    <path d="M302.47 133.482H301.517V141.307H302.47V133.482Z" fill="#E8A22C"/>
    <path d="M298.603 133.482H297.65V141.307H298.603V133.482Z" fill="#E8A22C"/>
    <path d="M292.686 133.482H291.732V141.307H292.686V133.482Z" fill="#E8A22C"/>
    <path d="M286.408 133.482H285.455V141.307H286.408V133.482Z" fill="#E8A22C"/>
    <path d="M276.803 133.482H275.85V141.307H276.803V133.482Z" fill="#E8A22C"/>
    <path d="M267.791 133.482H266.838V141.307H267.791V133.482Z" fill="#E8A22C"/>
    <path d="M259.751 133.482H258.798V141.307H259.751V133.482Z" fill="#E8A22C"/>
    <path d="M308.766 133.482H307.812V141.307H308.766V133.482Z" fill="#E8A22C"/>
    <path d="M310.799 133.482H309.845V141.307H310.799V133.482Z" fill="#E8A22C"/>
    <path d="M312.759 133.482H311.806V141.307H312.759V133.482Z" fill="#E8A22C"/>
    <path d="M314.234 133.5V141.271C314.126 141.289 314 141.307 313.874 141.307H313.281V133.482H313.874C314 133.482 314.108 133.482 314.234 133.5Z" fill="#E8A22C"/>
    <path d="M315.547 134.219V140.551C315.313 140.839 314.989 141.054 314.594 141.18V133.59C314.989 133.716 315.331 133.95 315.547 134.219Z" fill="#E8A22C"/>
    <path d="M215.323 219.173C238.419 219.173 257.143 200.45 257.143 177.353C257.143 154.257 238.419 135.533 215.323 135.533C192.226 135.533 173.503 154.257 173.503 177.353C173.503 200.45 192.226 219.173 215.323 219.173Z" fill="#ECB74A"/>
    <path d="M215.323 215.953C205.142 215.953 195.573 211.996 188.378 204.801C181.183 197.606 177.226 188.037 177.226 177.856C177.226 167.676 181.183 158.107 188.378 150.912C195.573 143.717 205.142 139.76 215.323 139.76C225.503 139.76 235.073 143.717 242.267 150.912C249.462 158.107 253.419 167.676 253.419 177.856C253.419 188.037 249.462 197.606 242.267 204.801C235.073 211.978 225.503 215.953 215.323 215.953ZM215.323 142.008C195.573 142.008 179.492 158.089 179.492 177.838C179.492 197.588 195.573 213.669 215.323 213.669C235.073 213.669 251.153 197.588 251.153 177.838C251.153 158.089 235.073 142.008 215.323 142.008Z" fill="#E8A22C"/>
    <path d="M220.557 188.901C220.647 188.073 220.629 187.336 220.467 186.688C220.305 186.041 220 185.429 219.532 184.854C219.064 184.278 218.435 183.739 217.661 183.199C216.888 182.677 215.917 182.12 214.765 181.58C212.787 180.609 211.006 179.638 209.405 178.63C207.822 177.641 206.473 176.544 205.394 175.375C204.315 174.187 203.523 172.874 203.038 171.399C202.534 169.925 202.408 168.234 202.624 166.327C202.822 164.672 203.29 163.179 204.045 161.884C204.801 160.589 205.79 159.492 206.995 158.611C208.218 157.729 209.621 157.046 211.222 156.596C212.823 156.146 214.585 155.931 216.492 155.985L217.23 149.707L222.284 150.301L221.529 156.668C223.309 157.118 224.892 157.801 226.295 158.683C227.68 159.582 228.831 160.661 229.713 161.938C230.612 163.215 231.242 164.672 231.619 166.309C231.997 167.946 232.069 169.745 231.835 171.705L222.698 170.626C222.967 168.27 222.662 166.453 221.762 165.176C220.863 163.881 219.532 163.143 217.787 162.928C216.834 162.82 216.006 162.856 215.287 163.035C214.568 163.215 213.956 163.521 213.47 163.917C212.967 164.331 212.589 164.834 212.301 165.428C212.013 166.021 211.833 166.687 211.744 167.424C211.654 168.144 211.69 168.809 211.833 169.421C211.977 170.032 212.265 170.626 212.733 171.184C213.183 171.741 213.812 172.299 214.621 172.838C215.431 173.378 216.42 173.954 217.643 174.583C219.604 175.59 221.367 176.598 222.949 177.587C224.532 178.594 225.863 179.691 226.925 180.879C228.004 182.066 228.795 183.397 229.281 184.872C229.785 186.347 229.91 188.02 229.695 189.926C229.497 191.653 229.011 193.164 228.238 194.459C227.482 195.754 226.493 196.833 225.27 197.715C224.065 198.578 222.644 199.225 221.025 199.657C219.406 200.071 217.643 200.269 215.719 200.215L215.017 206.061L209.999 205.467L210.682 199.657C208.956 199.279 207.301 198.686 205.754 197.912C204.189 197.139 202.84 196.114 201.707 194.855C200.574 193.596 199.728 192.085 199.171 190.304C198.613 188.523 198.469 186.473 198.757 184.116L207.894 185.196C207.732 186.581 207.786 187.768 208.074 188.739C208.362 189.71 208.794 190.52 209.369 191.149C209.963 191.779 210.646 192.264 211.456 192.588C212.265 192.912 213.093 193.128 213.956 193.236C214.945 193.362 215.827 193.326 216.6 193.164C217.374 193.002 218.039 192.714 218.597 192.336C219.154 191.941 219.604 191.455 219.928 190.879C220.269 190.286 220.485 189.62 220.557 188.901Z" fill="#E8A22C"/>
    <path d="M294.268 88.3715C294.268 88.3715 289.825 94.631 285.76 94.7209C281.695 94.8108 275.49 91.825 275.49 91.825C275.49 91.825 271.748 83.497 274.285 80.2233C274.285 80.2233 276.821 79.1081 279.483 81.0867C279.933 81.4284 280.4 81.8601 280.868 82.3998C281.515 83.1732 282.235 83.6229 283.008 83.8567C285.922 84.7381 289.358 82.6696 290.653 84.6661C291.408 85.8353 292.218 86.7167 292.901 87.3282C293.693 88.0297 294.268 88.3715 294.268 88.3715Z" fill="#F9EBDB"/>
    <path d="M236.35 133.483C236.35 133.483 252.052 95.4406 280.31 94.7031C280.31 94.7031 306.409 97.599 307.848 133.483H236.35Z" fill="#F9EBDB"/>
    <path d="M272.576 95.8729C272.576 95.8729 283.907 98.3911 287.397 96.9162C287.397 96.9162 287.919 92.1856 283.152 92.8511C279.878 93.3008 277.756 91.7359 276.515 91.1064C274.752 90.189 272.108 93.8944 272.576 95.8729Z" fill="#CE7C64"/>
    <path d="M282.432 88.7309C281.713 89.2705 279.482 81.0684 279.482 81.0684C279.932 81.4101 280.4 81.8418 280.867 82.3814C281.515 83.1549 282.234 83.6045 283.008 83.8384C283.008 84.0722 283.134 88.2092 282.432 88.7309Z" fill="#DABFA0"/>
    <path d="M292.901 87.3105C292.739 87.4005 287.505 90.5482 286.786 90.5482C286.066 90.5482 290.653 84.6484 290.653 84.6484C291.408 85.8176 292.218 86.699 292.901 87.3105Z" fill="#DABFA0"/>
    <path d="M251.692 122.852C251.405 122.601 262.808 106.07 265.938 105.945C269.086 105.819 276.137 109.56 281.245 110.046C286.353 110.531 291.3 109.074 292.271 112.096C293.243 115.118 295.887 125.82 294.268 127.529C292.649 129.256 257.97 128.213 251.692 122.852Z" fill="#F0DBBE"/>
</svg>
