
<svg width="352" height="352" viewBox="0 0 352 352" fill="none" xmlns="http://www.w3.org/2000/svg">
    <path d="M294.808 148.031C294.808 148.031 251.454 172.816 279.711 250.567C304.807 319.618 214.857 329.001 179.884 314.452C134.582 295.605 119.645 230.445 79.7104 241.988C39.776 253.531 21.481 160.615 80.3898 139.802C153.67 113.913 116.409 82.5939 128.131 55.0498C136.544 35.2811 202.935 15.5971 227.816 58.5566C248.752 94.707 264.311 86.4702 277.564 84.9157C296.679 82.673 329.533 121.3 294.808 148.031Z" fill="#E4E7E6" fill-opacity="0.5"/>
    <path d="M183.087 142.717C183.087 142.717 114.64 219.601 113.849 228.127C113.849 228.127 116.94 229.497 120.389 233.494C124.38 238.121 129.164 239.886 131.56 238.583C135.011 236.707 134.714 234.124 134.714 234.124L187.54 253.259C187.54 253.259 206.196 247.41 244.031 207.972L254.094 193.593L183.087 142.717Z" fill="#CE7C64"/>
    <path d="M104.649 153.822C104.649 153.822 113.074 159.865 123.142 154.168L154.807 135.993C154.807 135.993 165.589 128.036 176.676 135.69C176.676 135.69 166.603 160.159 187.356 164.347C187.356 164.347 207.611 173.629 218.328 183.158C223.716 187.953 235.241 196.084 240.721 200.675C242.192 201.906 245.2 203.746 246.727 205.59C248.846 208.151 252.897 213.736 246.398 219.154C246.398 219.154 242.066 224.243 233.387 218.887C225.32 213.91 211.257 202.364 202.734 196.993C202.271 196.702 200.159 196.271 203.105 199.146C206.74 202.689 223.715 215.236 223.715 215.236C223.715 215.236 230.064 219.645 231.573 221.883C232.897 223.846 234.937 228.156 231.14 232.837C231.14 232.837 225.747 239.945 216.503 234.297L195.277 219.48C195.277 219.48 190.763 216.567 194.393 220.82C194.393 220.82 215.934 235.954 216.781 238.257C219.196 244.822 214.523 253.266 204.026 249.19L179.706 235.893C179.706 235.893 177.484 235.568 179.303 237.341C179.303 237.341 201.867 248.986 203.431 250.265C205.475 251.938 200.511 259.824 190.225 256.666C175.553 252.162 145.898 244.054 131.558 238.582C126.513 236.657 116.149 231.514 112.155 229.097C112.155 229.097 96.1318 219.014 74.1904 218.594L89.9982 151.216L104.649 153.822Z" fill="#FFDCD5"/>
    <path d="M129.158 243.124C129.158 243.124 133.791 237.003 136.655 234.789C142.466 230.299 152.95 234.65 153.46 240.153C153.46 240.153 155.72 245.559 146.347 253.533C144.614 255.006 139.108 258.507 131.057 251.891C131.057 251.892 126.253 247.474 129.158 243.124Z" fill="#F0BAAF"/>
    <path d="M138.444 188.719C138.444 188.719 151.87 199.351 165.768 167.72C165.768 167.72 173.162 170.297 184.651 163.635L187.044 159.912C187.044 159.912 163.712 162.395 163.815 162.854C163.918 163.313 138.444 188.719 138.444 188.719Z" fill="#CE7C64"/>
    <path d="M149.123 255.094C148.958 251.035 154.648 243.588 157.139 240.959C160.073 237.862 171.629 234.901 172.972 247.203C172.972 247.203 172.255 255.825 165.836 260.74C162.784 263.077 149.472 263.7 149.123 255.094Z" fill="#F0BAAF"/>
    <path d="M175.025 248.955C176.992 245.827 186.74 244.335 186.958 253.318C187.04 256.719 185.269 262.326 180.217 264.549C176.545 266.164 166.853 263.534 168.695 259.596C169.961 256.888 170.58 256.023 175.025 248.955Z" fill="#F0BAAF"/>
    <path d="M113.791 234.917C114.639 233.055 116.039 231.27 118.835 229.018C120.526 227.656 125.277 227.128 128.135 228.912C130.187 230.194 134.229 233.197 133.322 235.87C131.6 240.945 128.677 247.823 122.351 245.836C122.351 245.835 110.014 243.219 113.791 234.917Z" fill="#CE7C64"/>
    <path d="M111.933 235.103C112.78 233.241 114.18 231.456 116.975 229.203C118.666 227.842 123.418 227.313 126.276 229.098C128.327 230.38 132.37 233.383 131.464 236.055C129.74 241.131 126.817 248.009 120.49 246.021C120.49 246.021 108.156 243.404 111.933 235.103Z" fill="#F0BAAF"/>
    <path d="M102.122 147.193L89.2084 231.145L47.7412 223.164L66.119 137.643L102.122 147.193Z" fill="#1E2F2B"/>
    <path d="M116.5 232.274C116.5 232.274 114.472 238.027 118.072 240.444C118.072 240.444 122.704 246.003 128.438 236.82C129.394 235.29 127.257 232.589 123.473 231.579C123.473 231.579 119.888 230.198 116.5 232.274Z" fill="#FFF5F5"/>
    <path d="M134.85 242.618C134.85 242.618 137.21 237.335 139.214 236.524C141.279 235.688 147.481 235.552 150.087 241.645C150.535 242.693 148.917 244.881 148.188 246.04C146.845 248.182 143.377 251.387 139.346 249.186C139.345 249.185 134.188 247.323 134.85 242.618Z" fill="#FFF5F5"/>
    <path d="M155.954 247.14C156.514 245.605 158.687 242.808 160.666 242.611C163.92 242.287 171.434 244.7 169.448 249.511C169.448 249.511 167.743 253.591 164.085 254.542C164.085 254.542 157.74 256.817 155.393 250.913C155.04 250.026 155.629 248.036 155.954 247.14Z" fill="#FFF5F5"/>
    <path d="M173.182 256.366C174.119 258.703 178.137 261.118 180.59 258.891C181.584 257.989 183.632 254.973 183.744 253.636C183.931 251.375 179.483 246.602 175.585 251.047C174.666 252.097 172.663 255.071 173.182 256.366Z" fill="#FFF5F5"/>
    <path d="M192.259 133.513C192.259 133.513 178.69 129.233 168.311 139.654L150.914 150.306C150.914 150.306 143.495 152.766 141.199 162.693L133.297 179.124C133.297 179.124 126.912 190.398 145.531 188.854C145.531 188.854 156.187 184.351 164.648 167.239L164.589 165.055C164.589 165.055 165.794 167.749 171.944 166.667C171.944 166.667 178.295 164.469 187.079 161.56C187.079 161.56 188.504 163.295 196.942 167.929C196.942 167.929 217.572 178.723 222.368 184.478L247.083 203.288C247.083 203.288 250.92 201.756 260.467 186.91L281.768 179.338L259.421 118.369C259.421 118.369 225.397 131.694 215.406 132.69L192.259 133.513Z" fill="#F0BAAF"/>
    <path d="M244.552 119.851L273.988 189.147L305.313 176.989L274.541 106.85L244.552 119.851Z" fill="#1E2F2B"/>
    <path d="M137.222 170.962C137.222 170.962 144.7 168.131 146.905 173.308C146.905 173.308 144.633 182.537 142.077 184.583C140.101 186.167 133.541 186.815 132.251 183.438C132.251 183.438 131.439 179.959 137.222 170.962Z" fill="#FFF5F5"/>
    <path d="M204.646 172.173C204.646 172.173 218.557 177.888 232.609 166.631C232.609 166.631 222.956 179.639 209.963 175.314L204.646 172.173Z" fill="#CE7C64"/>
    <path d="M75.1642 214.974C75.2551 215.884 75.0742 216.799 74.6444 217.606C74.2146 218.413 73.5553 219.074 72.7498 219.506C71.9443 219.938 71.0288 220.121 70.1192 220.033C69.2095 219.944 68.3464 219.588 67.6392 219.009C66.9319 218.43 66.4123 217.654 66.1459 216.78C65.8795 215.906 65.8784 214.972 66.1427 214.097C66.407 213.222 66.9248 212.445 67.6307 211.865C68.3366 211.284 69.1988 210.926 70.1082 210.835C71.3275 210.714 72.545 211.082 73.4931 211.858C74.4412 212.634 75.0423 213.755 75.1642 214.974Z" fill="#FFE66D"/>
    <path d="M290.147 170.242C290.238 171.152 290.057 172.067 289.627 172.874C289.197 173.68 288.538 174.341 287.733 174.772C286.927 175.204 286.012 175.387 285.102 175.299C284.193 175.21 283.33 174.854 282.623 174.275C281.916 173.696 281.397 172.921 281.13 172.047C280.864 171.173 280.863 170.239 281.127 169.365C281.391 168.49 281.909 167.713 282.614 167.132C283.32 166.552 284.182 166.194 285.091 166.103C285.695 166.043 286.305 166.102 286.886 166.277C287.466 166.453 288.007 166.741 288.477 167.125C288.946 167.51 289.335 167.983 289.622 168.518C289.909 169.052 290.087 169.638 290.147 170.242Z" fill="#FFE66D"/>
</svg>
