
<svg width="480" height="825" viewBox="0 0 480 825" fill="none" xmlns="http://www.w3.org/2000/svg">
    <path d="M479.742 47.1494L479.742 17.4754L478.489 17.4754L478.489 16.6141L477.706 16.1679L478.348 15.0719L452.677 0.0389948L449.217 0.0389948L424.305 14.6254L399.393 0.0389948L395.933 0.0389948L371.013 14.5864L346.101 3.04483e-09L342.649 3.01472e-09L318.058 14.3983L293.506 2.5861e-09L290.054 2.55599e-09L265.142 14.5864L240.222 2.12136e-09L236.77 2.09125e-09L211.858 14.5864L186.946 1.6567e-09L183.494 1.62658e-09L158.574 14.5864L133.662 1.19196e-09L130.21 1.16184e-09L105.298 14.5864L80.3785 7.2722e-10L76.9258 6.97105e-10L52.0141 14.5864L27.0945 2.62481e-10L23.6418 2.32367e-10L-2.77293 15.471L-2.77293 48.1361L-2.98433 48.2611L-2.77293 48.3865L-2.77293 81.0515L21.1287 95.0427L-2.77293 109.034L-2.77293 141.707L-2.98433 141.832L-2.77293 141.958L-2.77293 174.622L21.1287 188.614L-2.77293 202.605L-2.77293 235.278L-2.98433 235.395L-2.77293 235.521L-2.77293 268.194L21.1287 282.185L-2.78096 296.208L-2.78096 328.873L-2.99235 328.998L-2.78096 329.123L-2.78096 361.796L21.1054 375.779L-2.78096 389.763L-2.78096 422.428L-2.99235 422.553L-2.78096 422.678L-2.78096 455.343L21.1211 469.342L-2.78096 483.334L-2.78096 515.999L-3 516.124L-2.78096 516.249L-2.78096 548.914L21.1211 562.905L-2.78096 576.905L-2.78096 609.57L-3 609.695L-2.78096 609.82L-2.78096 642.485L21.1211 656.477L-2.78096 670.46L-2.78096 703.125L-3 703.25L-2.78096 703.376L-2.78096 736.04L21.0817 750.016L-2.78096 763.984L-2.78096 796.649L-3 796.774L-2.78096 796.9L-2.78096 829.572L23.3367 844.863L23.9786 843.767L24.4874 844.057L24.4874 845.059L25.3643 844.542L25.8731 844.848L25.2313 845.944L50.6127 860.82L51.2546 859.716L52.0375 860.154L52.7814 859.724L53.4232 860.82L78.6796 846.038L103.928 860.82L104.57 859.716L105.353 860.154L106.097 859.724L106.739 860.82L131.987 846.038L157.235 860.82L157.885 859.716L158.668 860.154L159.451 859.724L160.093 860.82L185.341 846.038L210.59 860.82L211.239 859.716L211.983 860.154L212.766 859.724L213.408 860.82L238.657 846.038L263.905 860.82L264.555 859.716L265.299 860.154L266.042 859.724L266.692 860.82L291.94 846.038L317.189 860.82L318.254 859.004L319.319 860.82L320.814 859.943L322.802 861L324.212 858.338L323.867 858.158L344.567 846.038L369.815 860.82L370.465 859.724L371.209 860.154L371.992 859.724L372.633 860.82L397.882 846.038L423.13 860.82L423.78 859.724L424.563 860.154L425.307 859.716L425.957 860.82L451.338 845.944L450.688 844.848L451.205 844.542L452.082 845.059L452.082 844.033L452.583 843.744L453.225 844.84L478.607 829.964L477.964 828.86L478.747 828.414L478.747 827.552L480 827.552L480 797.8L478.747 797.8L478.747 797.182L479.593 796.688L478.747 796.195L478.747 795.584L480 795.584L480 765.981L478.747 765.981L478.747 765.112L477.964 764.673L478.607 763.577L455.48 750.04L478.607 736.503L477.964 735.398L478.747 734.952L478.747 734.091L480 734.091L480 704.378L478.747 704.378L478.747 703.767L479.585 703.274L478.747 702.78L478.747 702.162L480 702.162L480 672.449L478.747 672.449L478.747 671.588L477.964 671.141L478.607 670.045L455.448 656.484L478.607 642.931L477.964 641.828L478.747 641.389L478.747 640.52L480 640.52L480 610.807L478.747 610.807L478.747 610.173L479.585 609.679L478.747 609.186L478.747 608.568L480 608.568L480 578.815L478.747 578.815L478.747 577.954L477.964 577.516L478.607 576.411L455.448 562.851L478.607 549.298L477.964 548.202L478.747 547.755L478.747 546.894L480 546.894L480 517.142L478.747 517.142L478.747 516.531L479.593 516.038L478.747 515.545L478.747 514.934L480 514.934L480 485.181L478.747 485.181L478.747 484.313L477.964 483.874L478.607 482.77L455.448 469.217L478.607 455.656L477.964 454.56L478.747 454.114L478.747 453.253L480 453.253L480 423.539L478.747 423.539L478.747 423.046L479.585 422.553L478.747 422.06L478.747 421.449L480 421.449L480 391.728L478.747 391.728L478.747 390.859L477.964 390.421L478.607 389.316L455.456 375.772L478.607 362.219L477.964 361.122L478.747 360.676L478.747 359.815L480 359.815L480 330.102L478.747 330.102L478.747 329.483L479.585 328.99L478.747 328.497L478.747 327.886L480 327.886L480 298.134L478.747 298.134L478.747 297.272L477.964 296.826L478.607 295.722L455.448 282.169L478.607 268.608L477.964 267.512L478.747 267.066L478.747 266.205L480 266.205L480 236.491L478.747 236.491L478.747 235.92L479.585 235.427L478.747 234.941L478.747 234.323L480 234.323L480 204.602L478.747 204.602L478.747 203.74L477.964 203.294L478.607 202.19L455.448 188.637L478.607 175.084L477.964 173.98L478.747 173.534L478.747 172.673L480 172.673L480 142.96L478.747 142.96L478.747 142.349L479.585 141.856L478.747 141.362L478.747 140.744L480 140.744L480 111.031L478.747 111.031L478.747 110.17L477.964 109.723L478.607 108.627L455.448 95.0664L478.607 81.5134L477.964 80.4093L478.747 79.9631L478.747 79.1018L480 79.1018L480 49.3495L478.747 49.3495L478.747 48.7936L479.585 48.3005L478.747 47.8073L478.747 47.1887L479.742 47.1494ZM450.97 35.1466L473.369 48.2611L450.97 61.3679L428.572 48.2611L450.97 35.1466ZM424.352 763.092L401.984 750L424.352 736.91L446.719 750L424.352 763.092ZM448.857 753.696L448.857 779.917L426.489 793.016L426.489 766.787L448.857 753.696ZM342.289 65.0713L342.289 91.2923L332.181 85.3811L319.945 78.2172L319.945 51.9958L342.289 65.0713ZM448.857 746.242L426.489 733.151L426.489 706.93L448.857 720.021L448.857 746.242ZM319.945 699.445L319.945 673.224L342.289 660.141L342.289 686.362L319.945 699.445ZM316.281 699.445L293.937 686.362L293.937 660.141L316.281 673.224L316.281 699.445ZM319.945 605.874L319.945 579.653L342.289 566.57L342.289 592.799L319.945 605.874ZM316.281 605.874L293.937 592.799L293.937 566.57L316.281 579.653L316.281 605.874ZM56.2887 516.093L78.6796 502.986L101.078 516.093L78.6796 529.207L56.2887 516.093ZM76.55 532.918L76.55 559.147L54.1828 546.049L54.1828 519.827L76.55 532.918ZM54.1828 512.358L54.1828 486.137L76.55 473.046L76.55 499.267L54.1828 512.358ZM80.8012 379.475L103.161 392.566L103.161 418.787L80.8012 405.696L80.8012 379.475ZM101.055 422.537L78.6559 435.652L56.2574 422.537L78.6559 409.431L101.055 422.537ZM103.161 426.272L103.161 452.493L80.8012 465.592L80.8012 439.363L103.161 426.272ZM80.8012 532.934L103.161 519.843L103.161 546.064L80.8012 559.163L80.8012 532.934ZM80.8012 499.267L80.8012 473.046L103.161 486.137L103.161 512.358L80.8012 499.267ZM82.9072 469.311L105.306 456.196L127.705 469.311L105.306 482.418L82.9072 469.311ZM134.077 439.347L156.445 426.256L156.445 452.477L134.077 465.576L134.077 439.347ZM131.94 435.636L109.526 422.522L131.924 409.415L154.323 422.522L131.94 435.636ZM134.077 405.696L134.077 379.475L156.445 392.566L156.445 418.787L134.077 405.696ZM129.811 405.696L107.435 418.787L107.435 392.566L129.811 379.475L129.811 405.696ZM129.811 439.363L129.811 465.592L107.435 452.493L107.435 426.256L129.811 439.363ZM129.811 473.03L129.811 499.251L107.435 512.342L107.435 486.121L129.811 473.03ZM107.435 519.812L129.811 532.903L129.811 559.132L107.435 546.033L107.435 519.812ZM109.549 516.077L131.94 502.97L154.339 516.077L131.94 529.191L109.549 516.077ZM134.077 532.903L156.445 519.812L156.445 546.033L134.077 559.132L134.077 532.903ZM134.077 499.236L134.077 473.014L156.445 486.105L156.445 512.326L134.077 499.236ZM136.183 469.28L158.582 456.165L180.981 469.28L158.582 482.386L136.183 469.28ZM187.361 439.316L209.736 426.256L209.736 452.477L187.369 465.576L187.361 439.316ZM185.224 435.605L162.825 422.49L185.224 409.384L207.622 422.49L185.224 435.605ZM187.361 405.664L187.361 379.444L209.729 392.534L209.729 418.756L187.361 405.664ZM183.087 405.664L160.719 418.756L160.719 392.534L183.087 379.444L183.087 405.664ZM183.087 439.332L183.087 465.561L160.719 452.462L160.719 426.256L183.087 439.332ZM183.087 472.999L183.087 499.22L160.719 512.311L160.719 486.09L183.087 472.999ZM160.719 519.78L183.087 532.871L183.087 559.1L160.719 546.002L160.719 519.78ZM162.825 516.046L185.224 502.939L207.622 516.046L185.224 529.16L162.825 516.046ZM187.361 532.871L209.729 519.78L209.729 546.002L187.361 559.1L187.361 532.871ZM187.361 499.204L187.361 472.983L209.729 486.074L209.729 512.296L187.361 499.204ZM189.467 469.248L211.866 456.134L234.265 469.248L211.866 482.355L189.467 469.248ZM240.645 439.285L262.973 426.256L262.973 452.477L240.606 465.576L240.645 439.285ZM238.508 435.574L216.109 422.459L238.508 409.352L260.906 422.459L238.508 435.574ZM240.645 405.633L240.645 379.412L263.012 392.503L263.012 418.724L240.645 405.633ZM236.371 405.633L214.003 418.724L214.003 392.503L236.371 379.412L236.371 405.633ZM236.371 439.3L236.371 465.529L214.003 452.43L214.003 426.256L236.371 439.3ZM236.371 472.967L236.371 499.189L214.003 512.28L214.003 486.059L236.371 472.967ZM214.003 519.749L236.371 532.84L236.371 559.069L214.003 545.97L214.003 519.749ZM216.109 516.015L238.508 502.908L260.906 516.015L238.508 529.129L216.109 516.015ZM240.645 532.84L263.012 519.749L263.012 545.97L240.645 559.069L240.645 532.84ZM240.645 499.173L240.645 472.952L263.012 486.043L263.012 512.264L240.645 499.173ZM242.751 469.217L265.15 456.103L287.549 469.217L265.15 482.324L242.751 469.217ZM316.273 332.623L316.273 358.844L293.929 371.927L293.929 345.698L316.273 332.623ZM318.105 362.735L340.167 375.654L318.105 388.565L296.043 375.654L318.105 362.735ZM319.937 512.28L319.937 486.059L342.281 472.983L342.281 499.204L319.937 512.28ZM319.937 418.717L319.937 392.488L342.281 379.412L342.281 405.633L319.937 418.717ZM319.937 426.209L342.281 439.285L342.281 465.514L332.174 459.595L319.937 452.43L319.937 426.209ZM322.019 422.459L344.418 409.352L366.817 422.459L344.395 435.636L322.019 422.459ZM346.555 439.285L368.923 426.194L368.923 452.415L346.555 465.514L346.555 439.285ZM346.555 405.618L346.555 379.397L368.923 392.488L368.923 418.709L346.555 405.618ZM342.281 371.951L319.937 358.867L319.937 332.646L342.281 345.722L342.281 371.951ZM319.937 325.154L319.937 298.925L342.281 285.849L342.281 312.07L319.937 325.154ZM316.273 512.28L293.929 499.204L293.929 472.983L316.273 486.059L316.273 512.28ZM291.792 502.923L314.19 516.03L291.792 529.144L269.393 516.03L291.792 502.923ZM267.287 512.319L267.287 486.097L289.655 473.007L289.655 499.228L267.287 512.319ZM316.273 418.74L293.929 405.657L293.929 379.436L316.273 392.511L316.273 418.74ZM291.792 409.345L314.19 422.451L291.792 435.566L269.393 422.451L291.792 409.345ZM293.929 439.277L316.273 426.201L316.273 452.423L293.929 465.506L293.929 439.277ZM289.655 405.61L267.287 418.701L267.287 392.48L289.655 379.389L289.655 405.61ZM289.655 439.277L289.655 465.506L267.287 452.407L267.287 426.256L289.655 439.277ZM267.287 519.757L289.655 532.848L289.655 559.077L267.287 545.978L267.287 519.757ZM291.792 596.487L314.19 609.601L291.792 622.716L269.393 609.601L291.792 596.487ZM267.287 605.882L267.287 579.661L289.655 566.562L289.655 592.791L267.287 605.882ZM293.905 532.871L316.249 519.796L316.249 546.017L293.905 559.1L293.905 532.871ZM296.012 469.264L318.082 456.338L340.151 469.264L318.082 482.183L296.012 469.264ZM319.913 519.796L342.257 532.871L342.257 559.1L319.913 546.017L319.913 519.796ZM321.996 516.046L344.395 502.986L366.793 516.093L344.395 529.207L321.996 516.046ZM346.532 532.871L368.899 519.78L368.899 546.002L346.532 559.1L346.532 532.871ZM346.532 499.204L346.532 472.983L368.899 486.074L368.899 512.296L346.532 499.204ZM348.638 469.248L371.036 456.134L393.435 469.248L371.013 482.418L348.638 469.248ZM373.174 452.415L373.174 426.256L395.541 439.347L395.541 465.576L373.174 452.415ZM395.541 472.983L395.541 499.204L373.174 512.296L373.174 486.074L395.541 472.983ZM373.174 519.765L395.541 532.856L395.541 559.085L373.174 545.986L373.174 519.765ZM375.28 516.03L397.679 502.923L420.077 516.03L397.679 529.144L375.28 516.03ZM399.816 532.856L422.183 519.765L422.183 545.986L399.816 559.085L399.816 532.856ZM399.816 499.189L399.816 472.967L422.183 486.059L422.183 512.28L399.816 499.189ZM397.679 435.558L375.28 422.443L397.679 409.337L420.077 422.443L397.679 435.558ZM422.183 426.162L422.183 452.384L399.816 465.483L399.816 439.254L422.183 426.162ZM373.174 418.693L373.174 392.472L395.541 379.381L395.541 405.602L373.174 418.693ZM375.28 328.873L397.679 315.766L420.077 328.873L397.679 341.987L375.28 328.873ZM395.541 312.047L373.174 325.138L373.174 298.917L395.541 285.826L395.541 312.047ZM395.541 345.714L395.541 371.943L373.174 358.852L373.174 332.623L395.541 345.714ZM393.42 375.67L371.013 388.847L348.63 375.748L371.013 362.641L393.42 375.67ZM346.532 371.943L346.532 345.714L368.899 332.623L368.899 358.852L346.532 371.943ZM368.899 325.154L346.532 312.062L346.532 285.841L368.899 298.932L368.899 325.154ZM366.793 328.888L344.395 342.081L321.996 328.966L344.395 315.86L366.793 328.888ZM342.257 278.372L332.15 272.453L319.913 265.288L319.913 239.067L342.257 252.151L342.257 278.372ZM319.913 231.575L319.913 205.346L342.257 192.27L342.257 218.492L319.913 231.575ZM340.151 282.107L318.082 295.025L296.012 282.107L318.082 269.188L340.151 282.107ZM316.249 239.044L316.249 265.265L293.905 278.348L293.905 252.127L316.249 239.044ZM316.249 298.893L316.249 325.122L293.905 312.039L293.905 285.818L316.249 298.893ZM314.167 328.865L291.768 341.979L269.37 328.865L291.768 315.758L314.167 328.865ZM289.631 312.039L267.264 325.13L267.264 298.909L289.631 285.818L289.631 312.039ZM289.631 345.706L289.631 371.935L267.264 358.844L267.264 332.615L289.631 345.706ZM287.509 375.662L265.126 388.761L242.735 375.662L265.126 362.555L287.509 375.662ZM240.622 371.935L240.622 345.706L262.989 332.615L262.989 358.844L240.622 371.935ZM262.989 325.146L240.622 312.055L240.622 285.833L262.989 298.925L262.989 325.146ZM260.883 328.88L238.485 341.995L216.086 328.88L238.485 315.774L260.883 328.88ZM236.355 312.141L213.988 325.232L213.988 299.011L236.355 285.919L236.355 312.141ZM236.355 345.808L236.355 372.037L213.988 358.946L213.988 332.717L236.355 345.808ZM234.233 375.763L211.85 388.862L189.467 375.763L211.85 362.657L234.233 375.763ZM187.345 372.037L187.345 345.808L209.713 332.717L209.713 358.946L187.345 372.037ZM209.713 325.247L187.345 312.156L187.345 285.935L209.713 299.026L209.713 325.247ZM207.607 328.982L185.208 342.096L162.81 328.982L185.208 315.875L207.607 328.982ZM183.071 312.156L160.704 325.247L160.704 299.026L183.071 285.935L183.071 312.156ZM183.071 345.823L183.071 372.052L160.704 358.961L160.704 332.732L183.071 345.823ZM180.949 375.779L158.566 388.878L136.183 375.779L158.566 362.673L180.949 375.779ZM134.062 372.052L134.062 345.823L156.429 332.732L156.429 358.961L134.062 372.052ZM156.429 325.263L134.062 312.172L134.062 285.951L156.429 299.042L156.429 325.263ZM154.323 328.998L131.924 342.112L109.526 328.966L131.924 315.86L154.323 328.998ZM129.795 312.172L107.42 325.263L107.42 299.042L129.795 285.951L129.795 312.172ZM129.795 345.839L129.795 372.068L107.42 358.977L107.42 332.748L129.795 345.839ZM127.673 375.795L105.29 388.894L82.8996 375.795L105.29 362.688L127.673 375.795ZM80.7856 372.068L80.7856 345.839L103.145 332.748L103.145 358.977L80.7856 372.068ZM103.145 325.279L80.7856 312.188L80.7856 285.966L103.145 299.058L103.145 325.279ZM101.039 329.013L78.6403 342.128L56.2417 329.013L78.6403 315.907L101.039 329.013ZM76.511 312.188L54.1434 325.279L54.1434 299.058L76.511 285.966L76.511 312.188ZM76.511 345.855L76.511 372.084L54.1434 358.993L54.1434 332.764L76.511 345.855ZM76.511 405.759L54.1434 418.85L54.1434 392.628L76.511 379.538L76.511 405.759ZM76.511 439.426L76.511 465.655L54.1434 452.556L54.1434 426.256L76.511 439.426ZM74.405 469.389L52.0061 482.496L29.6076 469.389L52.0061 456.275L74.405 469.389ZM74.405 562.953L52.0061 576.067L29.6076 562.953L52.0061 549.846L74.405 562.953ZM76.511 566.687L76.511 592.916L54.1434 606.007L54.1434 579.786L76.511 566.687ZM54.1434 613.477L76.511 626.568L76.511 652.797L54.1434 639.698L54.1434 613.477ZM78.6403 690.206L101.039 703.321L78.6403 716.427L56.2417 703.321L78.6403 690.206ZM54.1434 699.602L54.1434 673.279L76.511 660.18L76.511 686.401L54.1434 699.602ZM56.2417 609.765L78.6403 596.651L101.039 609.765L78.6403 622.88L56.2417 609.765ZM80.7856 626.591L103.145 613.5L103.145 639.721L80.7856 652.82L80.7856 626.591ZM93.0848 599.994L80.8246 592.822L80.8246 566.593L103.184 579.692L103.184 605.913L93.0848 599.994ZM82.9072 562.858L105.306 549.752L127.705 562.858L105.306 575.973L82.9072 562.858ZM129.811 566.593L129.811 592.822L107.435 605.913L107.435 579.692L129.811 566.593ZM107.435 613.383L129.811 626.474L129.811 652.703L107.435 639.604L107.435 613.383ZM131.94 690.112L154.339 703.227L131.94 716.333L109.549 703.227L131.94 690.112ZM107.435 699.508L107.435 673.279L129.811 660.18L129.811 686.401L107.435 699.508ZM109.549 609.671L131.94 596.557L154.339 609.671L131.94 622.786L109.549 609.671ZM134.077 626.497L156.445 613.406L156.445 639.627L134.077 652.726L134.077 626.497ZM146.322 599.994L134.062 592.822L134.062 566.593L156.429 579.692L156.429 605.913L146.322 599.994ZM136.144 562.858L158.543 549.752L180.942 562.858L158.543 575.973L136.144 562.858ZM183.048 566.593L183.048 592.822L160.68 605.913L160.68 579.692L183.048 566.593ZM160.68 613.383L183.048 626.474L183.048 652.703L160.68 639.604L160.68 613.383ZM185.185 690.112L207.583 703.227L185.185 716.333L162.786 703.227L185.185 690.112ZM160.68 699.508L160.68 673.279L183.048 660.18L183.048 686.401L160.68 699.508ZM162.786 609.671L185.185 596.557L207.583 609.671L185.185 622.786L162.786 609.671ZM187.322 626.497L209.689 613.406L209.689 639.627L187.322 652.726L187.322 626.497ZM199.582 600.017L187.322 592.846L187.322 566.617L209.689 579.716L209.689 605.937L199.582 600.017ZM189.404 562.882L211.803 549.775L234.202 562.882L211.803 575.997L189.404 562.882ZM236.308 566.617L236.308 592.846L213.941 605.937L213.941 579.716L236.308 566.617ZM213.941 613.406L236.308 626.497L236.308 652.726L213.941 639.627L213.941 613.406ZM238.445 690.136L260.844 703.25L238.445 716.357L216.047 703.25L238.445 690.136ZM213.941 699.531L213.941 673.279L236.308 660.18L236.308 686.401L213.941 699.531ZM216.047 609.695L238.445 596.581L260.844 609.695L238.445 622.81L216.047 609.695ZM240.582 626.521L262.95 613.43L262.95 639.651L240.582 652.75L240.582 626.521ZM252.843 600.041L240.582 592.869L240.582 566.64L262.95 579.739L262.95 605.96L252.843 600.041ZM242.665 562.905L265.064 549.799L287.462 562.905L265.064 576.02L242.665 562.905ZM267.201 613.43L289.568 626.521L289.568 652.75L267.201 639.651L267.201 613.43ZM291.706 690.159L314.104 703.274L291.706 716.38L269.307 703.274L291.706 690.159ZM267.201 699.555L267.201 673.279L289.568 660.18L289.568 686.401L267.201 699.555ZM293.819 626.544L316.163 613.469L316.163 639.69L293.819 652.773L293.819 626.544ZM295.925 562.929L317.995 550.01L340.065 562.929L317.995 575.856L295.925 562.929ZM319.827 613.469L342.171 626.544L342.171 652.773L332.064 646.854L319.827 639.69L319.827 613.469ZM344.309 690.198L366.707 703.313L344.395 716.341L321.996 703.235L344.309 690.198ZM321.91 609.742L344.395 596.549L366.793 609.664L344.395 622.778L321.91 609.742ZM346.446 626.568L368.813 613.477L368.813 639.698L346.446 652.797L346.446 626.568ZM358.8 599.994L346.54 592.822L346.54 566.593L368.907 579.692L368.907 605.913L358.8 599.994ZM348.622 562.858L371.021 549.752L393.42 562.858L371.013 575.989L348.622 562.858ZM395.526 566.593L395.526 592.822L373.158 605.913L373.158 579.692L395.526 566.593ZM373.158 613.383L395.526 626.474L395.526 652.703L373.158 639.604L373.158 613.383ZM397.663 690.112L420.061 703.227L397.663 716.333L375.264 703.227L397.663 690.112ZM373.158 699.508L373.158 673.279L395.526 660.18L395.526 686.401L373.158 699.508ZM375.264 609.671L397.663 596.557L420.061 609.671L397.663 622.786L375.264 609.671ZM399.8 626.497L422.167 613.406L422.167 639.627L399.8 652.726L399.8 626.497ZM412.06 600.017L399.8 592.846L399.8 566.617L422.167 579.716L422.167 605.937L412.06 600.017ZM401.883 562.882L424.281 549.775L446.68 562.882L424.281 575.997L401.883 562.882ZM401.883 469.319L424.281 456.204L446.68 469.319L424.281 482.425L401.883 469.319ZM422.144 418.795L399.777 405.704L399.777 379.483L422.144 392.574L422.144 418.795ZM399.777 345.8L422.144 332.709L422.144 358.938L399.777 372.029L399.777 345.8ZM399.777 312.133L399.777 285.912L422.144 299.003L422.144 325.224L399.777 312.133ZM401.883 282.177L424.281 269.063L446.68 282.177L424.281 295.292L401.883 282.177ZM399.777 278.442L399.777 252.221L422.144 239.122L422.144 265.351L399.777 278.442ZM422.144 231.661L412.037 225.742L399.777 218.562L399.777 192.341L422.144 205.432L422.144 231.661ZM420.038 235.387L397.639 248.502L375.241 235.387L397.639 222.281L420.038 235.387ZM395.502 218.562L373.135 231.661L373.135 205.432L395.502 192.341L395.502 218.562ZM395.502 252.229L395.502 278.45L373.135 265.359L373.135 239.13L395.502 252.229ZM393.396 282.185L371.013 295.299L348.614 282.185L371.013 269.07L393.396 282.185ZM346.493 278.45L346.493 252.229L368.86 239.13L368.86 265.359L346.493 278.45ZM368.86 231.668L358.8 225.742L346.54 218.562L346.54 192.341L368.907 205.432L368.86 231.668ZM366.754 235.395L344.395 248.51L321.996 235.395L344.395 222.289L366.754 235.395ZM342.218 184.879L332.111 178.96L319.874 171.796L319.874 145.575L342.218 158.658L342.218 184.879ZM319.921 138.051L319.921 111.829L342.265 98.746L342.265 124.967L319.921 138.051ZM340.159 188.583L318.089 201.501L296.019 188.583L318.089 175.664L340.159 188.583ZM316.257 145.52L316.257 171.741L293.913 184.824L293.913 158.603L316.257 145.52ZM316.257 205.369L316.257 231.598L293.913 218.515L293.913 192.294L316.257 205.369ZM314.175 235.34L291.776 248.455L269.378 235.34L291.776 222.234L314.175 235.34ZM289.639 218.515L267.272 231.614L267.272 205.385L289.639 192.294L289.639 218.515ZM289.639 252.182L289.639 278.403L267.272 265.312L267.272 239.083L289.639 252.182ZM287.533 282.138L265.134 295.252L242.735 282.138L265.134 269.023L287.533 282.138ZM240.629 278.403L240.629 252.182L262.973 239.13L262.973 265.359L240.629 278.403ZM262.997 231.621L252.89 225.703L240.629 218.523L240.629 192.302L262.997 205.392L262.997 231.621ZM260.891 235.348L238.492 248.463L216.094 235.348L238.492 222.242L260.891 235.348ZM236.355 218.57L213.988 231.668L213.988 205.439L236.355 192.349L236.355 218.57ZM236.355 252.237L236.355 278.458L213.988 265.367L213.988 239.138L236.355 252.237ZM234.249 282.193L211.85 295.307L189.451 282.193L211.85 269.078L234.249 282.193ZM187.345 278.458L187.345 252.237L209.736 239.13L209.736 265.359L187.345 278.458ZM209.713 231.676L199.606 225.757L187.345 218.578L187.345 192.356L209.713 205.447L209.713 231.676ZM207.607 235.403L185.208 248.518L162.81 235.403L185.208 222.297L207.607 235.403ZM183.071 218.578L160.704 231.676L160.704 205.447L183.071 192.356L183.071 218.578ZM183.071 252.245L183.071 278.466L160.704 265.375L160.704 239.146L183.071 252.245ZM180.965 282.2L158.566 295.315L136.144 282.185L158.543 269.07L180.965 282.2ZM134.062 278.466L134.062 252.245L156.429 239.146L156.429 265.375L134.062 278.466ZM156.429 231.684L146.322 225.742L134.062 218.562L134.062 192.341L156.429 205.432L156.429 231.684ZM154.323 235.411L131.924 248.526L109.526 235.395L131.924 222.289L154.323 235.411ZM129.795 218.585L107.42 231.684L107.42 205.455L129.795 192.364L129.795 218.585ZM129.795 252.252L129.795 278.474L107.42 265.382L107.42 239.153L129.795 252.252ZM127.689 282.208L105.29 295.323L82.9072 282.185L105.306 269.07L127.689 282.208ZM80.7856 278.474L80.7856 252.252L103.145 239.153L103.145 265.382L80.7856 278.474ZM103.145 231.692L93.0848 225.742L80.8246 218.562L80.8246 192.341L103.184 205.432L103.145 231.692ZM101.039 235.419L78.6403 248.533L56.2417 235.419L78.6403 222.312L101.039 235.419ZM76.511 218.593L54.1434 231.692L54.1434 205.463L76.511 192.372L76.511 218.593ZM76.511 252.26L76.511 278.481L54.1434 265.391L54.1434 239.161L76.511 252.26ZM74.405 282.216L52.0061 295.331L29.6076 282.216L52.0061 269.102L74.405 282.216ZM49.8688 231.7L39.7619 225.781L27.5016 218.601L27.5016 192.38L49.8688 205.471L49.8688 231.7ZM49.8688 265.367L27.5016 278.458L27.5016 252.237L49.8688 239.138L49.8688 265.367ZM49.8688 299.034L49.8688 325.255L27.5016 312.164L27.5016 285.943L49.8688 299.034ZM52.0061 362.665L74.3894 375.772L52.0061 388.87L29.6156 375.772L52.0061 362.665ZM27.5016 372.06L27.5016 345.831L49.8688 332.74L49.8688 358.969L27.5016 372.06ZM27.5016 379.514L49.8688 392.605L49.8688 418.826L27.5016 405.735L27.5016 379.514ZM49.8688 452.517L27.5016 465.616L27.5016 439.387L49.8688 426.295L49.8688 452.517ZM49.8688 486.184L49.8688 512.405L27.5016 499.314L27.5016 473.093L49.8688 486.184ZM49.8688 546.096L27.5016 559.194L27.5016 532.965L49.8688 519.874L49.8688 546.096ZM49.8688 579.763L49.8688 605.984L39.7619 600.065L27.5016 592.893L27.5016 566.664L49.8688 579.763ZM29.6076 656.492L52.0061 643.385L74.405 656.492L52.0061 669.607L29.6076 656.492ZM49.8688 673.326L49.8688 699.547L27.5016 686.448L27.5016 660.227L49.8688 673.326ZM27.5016 652.765L27.5016 626.536L49.8688 613.445L49.8688 639.666L27.5016 652.765ZM54.1201 707.016L76.4873 720.107L76.4873 746.328L54.1201 733.238L54.1201 707.016ZM80.7386 720.107L103.098 707.016L103.098 733.238L80.7386 746.328L80.7386 720.107ZM80.7386 686.44L80.7386 660.219L103.098 673.318L103.098 699.539L80.7386 686.44ZM82.8445 656.484L105.243 643.378L127.642 656.484L105.243 669.599L82.8445 656.484ZM107.373 707.009L129.748 720.099L129.748 746.321L107.373 733.23L107.373 707.009ZM133.991 720.099L156.358 707.009L156.358 733.23L133.991 746.321L133.991 720.099ZM133.991 686.432L133.991 660.211L156.358 673.31L156.358 699.531L133.991 686.432ZM136.097 656.477L158.496 643.37L180.895 656.477L158.496 669.591L136.097 656.477ZM160.633 707.001L183.001 720.092L183.001 746.313L160.633 733.222L160.633 707.001ZM187.251 720.092L209.619 707.001L209.619 733.222L187.251 746.313L187.251 720.092ZM187.251 686.425L187.251 660.203L209.736 673.279L209.736 699.5L187.251 686.425ZM189.358 656.469L211.756 643.362L234.155 656.469L211.756 669.583L189.358 656.469ZM213.894 706.993L236.261 720.084L236.261 746.305L213.894 733.214L213.894 706.993ZM240.512 720.084L262.879 706.993L262.879 733.214L240.512 746.305L240.512 720.084ZM240.512 686.417L240.512 660.196L262.973 673.279L262.973 699.5L240.512 686.417ZM242.618 656.461L265.017 643.354L287.416 656.461L265.017 669.576L242.618 656.461ZM267.154 706.985L289.521 720.076L289.521 746.297L267.154 733.206L267.154 706.985ZM293.772 720.076L316.116 706.993L316.116 733.222L293.772 746.297L293.772 720.076ZM295.878 656.461L317.948 643.542L340.018 656.461L317.948 669.387L295.878 656.461ZM319.78 706.993L342.124 720.076L342.124 746.297L319.78 733.222L319.78 706.993ZM346.399 720.076L368.766 706.985L368.766 733.206L346.399 746.297L346.399 720.076ZM346.399 686.409L346.399 660.188L368.766 673.286L368.766 699.508L346.399 686.409ZM348.505 656.453L370.903 643.346L393.302 656.453L371.013 669.56L348.505 656.453ZM373.041 706.977L395.408 720.068L395.408 746.289L373.041 733.198L373.041 706.977ZM399.659 720.068L422.027 706.977L422.027 733.198L399.659 746.289L399.659 720.068ZM399.659 686.401L399.659 660.18L422.027 673.279L422.027 699.5L399.659 686.401ZM401.765 656.445L424.164 643.338L446.563 656.445L424.164 669.56L401.765 656.445ZM426.301 673.279L448.668 660.18L448.668 686.401L426.301 699.5L426.301 673.279ZM426.301 639.612L426.301 613.39L448.668 626.482L448.668 652.711L426.301 639.612ZM426.301 579.7L448.668 566.601L448.668 592.83L426.301 605.921L426.301 579.7ZM426.301 546.033L426.301 519.812L448.668 532.903L448.668 559.132L426.301 546.033ZM426.301 486.121L448.668 473.03L448.668 499.251L426.301 512.342L426.301 486.121ZM426.301 452.454L426.301 426.256L448.668 439.347L448.668 465.576L426.301 452.454ZM424.164 388.823L401.781 375.724L424.164 362.618L446.547 375.724L424.164 388.823ZM448.668 379.428L448.668 405.649L426.301 418.74L426.301 392.519L448.668 379.428ZM448.668 371.974L426.301 358.883L426.301 332.654L448.668 345.745L448.668 371.974ZM426.301 298.964L448.668 285.872L448.668 312.094L426.301 325.185L426.301 298.964ZM426.301 265.296L426.301 239.067L448.668 252.166L448.668 278.388L426.301 265.296ZM446.563 188.567L424.164 201.681L401.765 188.567L424.164 175.452L446.563 188.567ZM426.301 171.741L426.301 145.567L448.668 158.658L448.668 184.879L426.301 171.741ZM448.668 192.302L448.668 218.523L426.301 231.621L426.301 205.392L448.668 192.302ZM399.659 184.832L399.659 158.611L422.027 145.52L422.027 171.741L399.659 184.832ZM422.027 138.051L399.659 124.952L399.659 98.7304L422.027 111.822L422.027 138.051ZM419.921 141.785L397.522 154.892L375.123 141.785L397.522 128.671L419.921 141.785ZM395.384 124.952L373.017 138.051L373.017 111.822L395.384 98.7304L395.384 124.952ZM395.384 158.619L395.384 184.84L373.017 171.749L373.017 145.567L395.384 158.619ZM393.279 188.574L371.013 201.728L348.614 188.614L371.013 175.499L393.279 188.574ZM346.375 184.84L346.375 158.619L368.743 145.528L368.743 171.749L346.375 184.84ZM368.743 138.058L346.375 124.959L346.375 98.7384L368.743 111.829L368.743 138.058ZM366.637 141.793L344.395 154.939L321.996 141.832L344.395 128.718L366.637 141.793ZM340.018 95.0037L317.948 107.922L295.878 95.0037L317.948 82.0849L340.018 95.0037ZM316.116 51.9411L316.116 78.1621L293.772 91.2376L293.772 65.0166L316.116 51.9411ZM316.116 111.79L316.116 138.051L293.772 124.967L293.772 98.746L316.116 111.79ZM314.034 141.762L291.635 154.868L269.237 141.762L291.635 128.647L314.034 141.762ZM289.498 124.928L267.131 138.027L267.131 111.798L289.498 98.707L289.498 124.928ZM289.498 158.595L289.498 184.816L267.131 171.725L267.131 145.567L289.498 158.595ZM287.392 188.551L264.993 201.666L242.595 188.551L264.993 175.437L287.392 188.551ZM240.488 184.816L240.488 158.595L262.973 145.567L262.973 171.788L240.488 184.816ZM262.856 138.035L240.488 124.936L240.488 98.7147L262.856 111.806L262.856 138.035ZM260.75 141.77L238.351 154.876L215.953 141.77L238.351 128.655L260.75 141.77ZM236.214 124.936L213.847 138.035L213.847 111.806L236.214 98.7147L236.214 124.936ZM236.214 158.603L236.214 184.824L213.847 171.733L213.847 145.567L236.214 158.603ZM234.108 188.559L211.709 201.673L189.311 188.559L211.709 175.444L234.108 188.559ZM187.205 184.824L187.205 158.603L209.736 145.567L209.736 171.788L187.205 184.824ZM209.572 138.043L187.205 124.944L187.205 98.7227L209.572 111.814L209.572 138.043ZM207.466 141.777L185.068 154.884L162.669 141.777L185.068 128.663L207.466 141.777ZM182.93 124.944L160.563 138.043L160.563 111.814L182.93 98.7227L182.93 124.944ZM182.93 158.611L182.93 184.832L160.563 171.741L160.563 145.567L182.93 158.611ZM180.824 188.567L158.425 201.681L136.144 188.614L158.543 175.499L180.824 188.567ZM133.921 184.832L133.921 158.611L156.288 145.52L156.288 171.741L133.921 184.832ZM156.288 138.051L133.921 124.952L133.921 98.7304L156.288 111.822L156.288 138.051ZM154.182 141.785L131.784 154.892L109.526 141.832L131.924 128.718L154.182 141.785ZM129.654 124.952L107.279 138.051L107.279 111.822L129.654 98.7304L129.654 124.952ZM129.654 158.619L129.654 184.84L107.279 171.749L107.279 145.567L129.654 158.619ZM127.548 188.574L105.149 201.689L82.9072 188.614L105.306 175.499L127.548 188.574ZM80.6445 184.84L80.6445 158.619L103.004 145.528L103.004 171.749L80.6445 184.84ZM103.004 138.058L80.6445 124.959L80.6445 98.7384L103.004 111.829L103.004 138.058ZM100.898 141.793L78.4996 154.9L56.1006 141.793L78.4996 128.678L100.898 141.793ZM76.3699 124.959L54.0027 138.058L54.0027 111.829L76.3699 98.7384L76.3699 124.959ZM76.3699 158.626L76.3699 184.848L54.0027 171.757L54.0027 145.567L76.3699 158.626ZM74.264 188.583L51.8654 201.697L29.4669 188.583L51.8654 175.468L74.264 188.583ZM27.3605 184.848L27.3605 158.626L49.7281 145.536L49.7281 171.757L27.3605 184.848ZM49.7281 138.066L27.3605 124.967L27.3605 98.746L49.7281 111.837L49.7281 138.066ZM47.6222 141.801L25.2233 154.907L2.8247 141.801L25.2233 128.686L47.6222 141.801ZM47.6222 235.364L25.2233 248.479L2.8247 235.364L25.2233 222.257L47.6222 235.364ZM47.6222 328.935L25.2233 342.049L2.8247 328.935L25.2233 315.828L47.6222 328.935ZM47.6222 422.49L25.2233 435.605L2.8247 422.49L25.2233 409.384L47.6222 422.49ZM47.6222 516.061L25.2233 529.176L2.8247 516.061L25.2233 502.955L47.6222 516.061ZM47.6222 609.632L25.2233 622.747L2.8247 609.632L25.2233 596.518L47.6222 609.632ZM47.6222 703.203L25.2233 716.31L2.8247 703.203L25.2233 690.089L47.6222 703.203ZM49.7281 706.938L49.7281 733.159L27.3605 746.25L27.3605 720.029L49.7281 706.938ZM27.3605 753.68L49.7281 766.771L49.7281 793L27.3605 779.901L27.3605 753.68ZM29.4978 749.969L51.8654 736.878L74.225 749.969L51.8654 763.06L29.4978 749.969ZM54.0027 766.771L76.3699 753.68L76.3699 779.901L54.0027 793L54.0027 766.771ZM78.4996 783.62L100.898 796.727L78.4996 809.842L56.1087 796.727L78.4996 783.62ZM80.6445 779.901L80.6445 753.68L103.004 766.771L103.004 793L80.6445 779.901ZM82.7818 749.969L105.149 736.878L127.509 749.969L105.149 763.06L82.7818 749.969ZM107.279 766.771L129.654 753.68L129.654 779.901L107.279 793L107.279 766.771ZM131.784 783.62L154.182 796.727L131.784 809.842L109.393 796.727L131.784 783.62ZM133.921 779.901L133.921 753.68L156.288 766.771L156.288 793L133.921 779.901ZM136.066 749.969L158.425 736.878L180.793 749.969L158.425 763.06L136.066 749.969ZM160.563 766.771L182.93 753.68L182.93 779.901L160.563 793L160.563 766.771ZM185.068 783.62L207.466 796.727L185.068 809.842L162.669 796.727L185.068 783.62ZM187.205 779.901L187.205 753.68L209.572 766.771L209.572 793L187.205 779.901ZM189.342 749.969L211.709 736.878L234.077 749.969L211.709 763.06L189.342 749.969ZM213.847 766.771L236.214 753.68L236.214 779.901L213.847 793L213.847 766.771ZM238.351 783.62L260.75 796.727L238.351 809.842L215.953 796.727L238.351 783.62ZM240.488 779.901L240.488 753.68L262.856 766.771L262.856 793L240.488 779.901ZM242.626 749.969L264.993 736.878L287.353 749.969L264.993 763.06L242.626 749.969ZM267.131 766.771L289.498 753.68L289.498 779.901L267.131 793L267.131 766.771ZM291.635 783.62L314.034 796.727L291.635 809.842L269.237 796.727L291.635 783.62ZM293.772 779.901L293.772 753.68L316.116 766.764L316.116 792.985L293.772 779.901ZM295.91 749.969L317.948 737.066L339.987 749.969L317.948 762.865L295.91 749.969ZM319.78 792.985L319.78 766.764L342.124 753.68L342.124 779.901L319.78 792.985ZM344.262 783.59L366.66 796.696L344.395 809.873L321.996 796.759L344.262 783.59ZM346.399 779.87L346.399 753.649L368.766 766.74L368.766 792.969L346.399 779.87ZM348.544 749.938L370.903 736.847L393.271 749.938L371.013 763.092L348.544 749.938ZM373.041 766.74L395.408 753.649L395.408 779.87L373.041 792.969L373.041 766.74ZM397.546 783.59L419.944 796.696L397.546 809.81L375.147 796.696L397.546 783.59ZM399.683 779.87L399.683 753.649L422.05 766.74L422.05 792.969L399.683 779.87ZM428.431 703.141L450.829 690.026L473.228 703.141L450.829 716.247L428.431 703.141ZM428.431 609.57L450.829 596.455L473.228 609.57L450.829 622.684L428.431 609.57ZM428.431 515.999L450.829 502.892L473.228 515.999L450.829 529.113L428.431 515.999ZM428.431 422.428L450.829 409.321L473.228 422.428L450.829 435.542L428.431 422.428ZM428.431 328.873L450.829 315.766L473.228 328.873L450.829 341.987L428.431 328.873ZM428.431 235.301L450.829 222.195L473.228 235.301L450.829 248.416L428.431 235.301ZM428.431 141.738L450.829 128.624L473.228 141.738L450.829 154.845L428.431 141.738ZM426.325 138.004L426.325 111.775L448.692 98.6837L448.692 124.905L426.325 138.004ZM426.325 18.2114L448.692 5.11253L448.692 31.3415L426.325 44.4327L426.325 18.2114ZM426.325 51.8784L448.692 64.9696L448.692 91.1906L426.325 78.0998L426.325 51.8784ZM446.586 94.941L424.187 108.055L401.789 94.941L424.187 81.8345L446.586 94.941ZM399.683 91.2063L399.683 64.9853L422.05 51.8941L422.05 78.1155L399.683 91.2063ZM399.683 5.08118L422.05 18.18L422.05 44.4014L399.683 31.3102L399.683 5.08118ZM397.546 35.0216L419.944 48.1361L397.546 61.2506L375.147 48.1361L397.546 35.0216ZM373.041 18.18L395.408 5.08118L395.408 31.3102L373.041 44.4014L373.041 18.18ZM373.041 51.8471L395.408 64.9383L395.408 91.1592L373.041 78.0684L373.041 51.8471ZM393.302 94.9096L371.013 108.157L348.614 95.0427L371.013 81.9362L393.302 94.9096ZM346.399 91.1749L346.399 64.9539L368.766 51.8628L368.766 78.0841L346.399 91.1749ZM346.399 5.04983L368.766 18.1487L368.766 44.37L346.399 31.2788L346.399 5.04983ZM344.262 34.9902L366.66 48.1047L344.395 61.3756L321.996 48.2611L344.262 34.9902ZM342.124 31.2788L319.78 44.3543L319.78 18.2584L342.124 5.17523L342.124 31.2788ZM293.772 5.04983L316.116 18.133L316.116 44.3543L293.772 31.2788L293.772 5.04983ZM291.635 34.9902L314.034 48.1047L291.635 61.2112L269.237 48.1047L291.635 34.9902ZM267.131 18.1487L289.498 5.04983L289.498 31.2788L267.131 44.37L267.131 18.1487ZM267.131 51.8157L289.498 64.9069L289.498 91.1279L267.131 78.0371L267.131 51.8157ZM287.392 94.8783L264.993 107.993L242.595 94.8783L264.993 81.7718L287.392 94.8783ZM240.488 91.1436L240.488 64.9226L262.856 51.8314L262.856 78.0528L240.488 91.1436ZM240.488 5.01848L262.856 18.1173L262.856 44.3387L240.488 31.2475L240.488 5.01848ZM238.351 34.9589L260.75 48.0734L238.351 61.1799L215.953 48.0734L238.351 34.9589ZM213.847 18.1173L236.214 5.01848L236.214 31.2475L213.847 44.3387L213.847 18.1173ZM213.847 51.7844L236.214 64.8756L236.214 91.0965L213.847 78.0057L213.847 51.7844ZM234.108 94.8469L211.709 107.961L189.311 94.8469L211.709 81.7405L234.108 94.8469ZM187.205 91.1122L187.205 64.8912L209.572 51.8001L209.572 78.0214L187.205 91.1122ZM187.205 4.98713L209.572 18.086L209.572 44.3073L187.205 31.2161L187.205 4.98713ZM185.068 34.9275L207.466 48.042L185.068 61.1485L162.669 48.042L185.068 34.9275ZM160.563 18.086L182.93 4.98713L182.93 31.2161L160.563 44.3073L160.563 18.086ZM160.563 51.753L182.93 64.8442L182.93 91.0656L160.563 77.9744L160.563 51.753ZM180.824 94.8156L158.425 107.93L136.144 95.0427L158.543 81.9362L180.824 94.8156ZM133.921 91.0809L133.921 64.8599L156.288 51.7687L156.288 77.9901L133.921 91.0809ZM133.921 4.95579L156.288 18.055L156.288 44.276L133.921 31.1848L133.921 4.95579ZM131.784 34.8962L154.182 48.0107L131.784 61.1175L109.526 48.2611L131.784 34.8962ZM107.279 18.055L129.654 4.95579L129.654 31.1848L107.279 44.276L107.279 18.055ZM107.279 51.7221L129.654 64.8129L129.654 91.0342L107.279 77.943L107.279 51.7221ZM127.548 94.7846L105.149 107.899L82.9072 95.0427L105.306 81.9362L127.548 94.7846ZM80.6445 91.0499L80.6445 64.8285L103.004 51.7374L103.004 77.9587L80.6445 91.0499ZM80.6445 4.92482L103.004 18.0236L103.004 44.2446L80.6445 31.1538L80.6445 4.92482ZM78.4996 34.8648L100.898 47.9793L78.4996 61.0862L56.1006 47.9793L78.4996 34.8648ZM54.0027 18.0236L76.3699 4.92482L76.3699 31.1538L54.0027 44.2446L54.0027 18.0236ZM54.0027 51.6907L76.3699 64.7815L76.3699 91.0029L54.0027 77.9117L54.0027 51.6907ZM74.264 94.7533L51.8654 107.868L29.4669 94.7533L51.8654 81.6464L74.264 94.7533ZM27.3605 91.0186L27.3605 64.7972L49.7281 51.7064L49.7281 77.9274L27.3605 91.0186ZM27.3605 4.89347L49.7281 17.9923L49.7281 44.2133L27.3605 31.1225L27.3605 4.89347ZM25.2233 34.8335L47.6222 47.948L25.2233 61.0548L2.8247 47.948L25.2233 34.8335ZM0.718757 17.9923L23.086 4.89347L23.086 31.1225L0.718757 44.2133L0.718757 17.9923ZM12.979 85.0837L0.718757 77.9041L0.718757 51.6827L23.086 64.7739L23.086 90.9949L12.979 85.0837ZM0.718757 111.555L23.086 98.4643L23.086 124.686L0.718757 137.784L0.718757 111.555ZM12.979 178.647L0.718757 171.475L0.718757 145.567L23.086 158.658L23.086 184.879L12.979 178.647ZM0.718757 205.126L23.086 192.035L23.086 218.256L0.718757 231.355L0.718757 205.126ZM12.979 272.218L0.718757 265.046L0.718757 238.817L23.086 251.916L23.086 278.137L12.979 272.218ZM0.718757 298.697L23.086 285.606L23.086 311.828L0.718757 324.918L0.718757 298.697ZM0.718757 332.365L23.086 345.455L23.086 371.684L0.718757 358.594L0.718757 332.365ZM0.718757 392.229L23.086 379.138L23.086 405.359L0.718757 418.45L0.718757 392.229ZM12.979 459.321L0.718757 452.141L0.718757 426.256L23.086 439.347L23.086 465.576L12.979 459.321ZM0.718757 485.8L23.086 472.709L23.086 498.93L0.718757 512.021L0.718757 485.8ZM0.718757 545.712L0.718757 519.491L23.086 532.582L23.086 558.811L0.718757 545.712ZM0.718757 579.379L23.086 566.28L23.086 592.509L0.718757 605.6L0.718757 579.379ZM12.979 646.47L0.718757 639.291L0.718757 613.07L23.086 626.16L23.086 652.389L12.979 646.47ZM0.718757 672.95L23.086 659.851L23.086 686.072L0.718757 699.171L0.718757 672.95ZM0.718757 706.617L23.086 719.708L23.086 745.929L0.718757 732.838L0.718757 706.617ZM0.718757 766.451L23.086 753.359L23.086 779.581L0.718757 792.68L0.718757 766.451ZM23.086 839.461L12.979 833.542L0.718757 826.362L0.718757 800.141L23.086 813.24L23.086 839.461ZM25.2233 809.521L2.8247 796.406L25.2233 783.3L47.6222 796.406L25.2233 809.521ZM27.3605 813.24L49.7281 800.141L49.7281 826.362L27.3605 839.461L27.3605 813.24ZM51.8654 856.302L29.4669 843.188L51.8654 830.073L74.264 843.188L51.8654 856.302ZM76.3699 839.453L54.0027 826.354L54.0027 800.133L76.3699 813.232L76.3699 839.453ZM78.4996 845.372L77.9908 844.495L78.4996 844.19L79.016 844.495L78.4996 845.372ZM80.6445 813.271L103.004 800.172L103.004 826.394L80.6445 839.492L80.6445 813.271ZM105.149 856.334L82.9072 843.548L105.306 830.433L127.705 843.548L105.149 856.334ZM129.654 839.484L107.279 826.386L107.279 800.165L129.654 813.263L129.654 839.484ZM131.784 845.404L131.274 844.527L131.784 844.222L132.3 844.527L131.784 845.404ZM133.921 813.302L156.288 800.204L156.288 826.425L133.921 839.524L133.921 813.302ZM158.425 856.365L136.144 843.548L158.543 830.433L180.942 843.548L158.425 856.365ZM182.93 839.516L160.563 826.417L160.563 800.196L182.93 813.295L182.93 839.516ZM185.068 845.435L184.558 844.558L185.068 844.253L185.584 844.558L185.068 845.435ZM187.205 813.334L209.572 800.235L209.572 826.456L187.205 839.555L187.205 813.334ZM211.709 856.396L189.311 843.282L211.709 830.167L234.108 843.282L211.709 856.396ZM236.214 839.547L213.847 826.448L213.847 800.227L236.214 813.326L236.214 839.547ZM238.351 845.466L237.835 844.589L238.351 844.284L238.868 844.589L238.351 845.466ZM240.488 813.365L262.856 800.266L262.856 826.487L240.488 839.586L240.488 813.365ZM264.993 856.428L242.595 843.313L264.993 830.199L287.392 843.313L264.993 856.428ZM289.498 839.578L267.131 826.48L267.131 800.258L289.498 813.357L289.498 839.578ZM291.635 845.498L291.119 844.621L291.604 844.331L292.144 844.621L291.635 845.498ZM293.772 813.396L316.116 800.313L316.116 826.534L293.772 839.617L293.772 813.396ZM319.115 855.59L296.121 843.493L318.089 830.637L340.159 843.556L319.115 855.59ZM342.124 839.617L332.017 833.699L319.78 826.534L319.78 800.509L342.124 813.592L342.124 839.617ZM344.262 845.537L343.753 844.66L344.262 844.355L344.778 844.66L344.262 845.537ZM346.399 813.435L368.766 800.337L368.766 826.558L346.399 839.657L346.399 813.435ZM370.903 856.498L348.505 843.384L370.903 830.269L393.302 843.384L370.903 856.498ZM395.408 839.649L373.041 826.55L373.041 800.329L395.408 813.428L395.408 839.649ZM397.546 845.568L397.037 844.691L397.546 844.386L398.062 844.691L397.546 845.568ZM399.683 813.467L422.05 800.368L422.05 826.589L399.683 839.688L399.683 813.467ZM424.187 856.529L401.789 843.415L424.187 830.3L446.586 843.415L424.187 856.529ZM448.692 839.68L426.325 826.581L426.325 800.36L448.692 813.459L448.692 839.68ZM450.829 809.74L428.431 796.626L450.829 783.519L473.228 796.626L450.829 809.74ZM475.334 826.581L452.967 839.68L452.967 813.459L475.334 800.36L475.334 826.581ZM475.334 792.914L452.967 779.815L452.967 753.594L475.334 766.685L475.334 792.914ZM475.334 733.073L452.967 746.164L452.967 719.943L475.334 706.852L475.334 733.073ZM475.334 673.161L475.334 699.382L452.967 686.284L452.967 660.063L475.334 673.161ZM475.334 639.494L452.967 652.593L452.967 626.364L475.334 613.273L475.334 639.494ZM475.334 579.583L475.334 605.804L465.227 599.884L452.967 592.713L452.967 566.484L475.334 579.583ZM475.334 545.916L452.967 559.014L452.967 532.785L475.334 519.694L475.334 545.916ZM475.334 486.004L475.334 512.225L452.967 499.134L452.967 472.913L475.334 486.004ZM475.334 452.337L452.967 465.436L452.967 439.207L475.334 426.115L475.334 452.337ZM475.334 418.67L452.967 405.578L452.967 379.358L475.334 392.448L475.334 418.67ZM475.334 358.813L452.967 371.904L452.967 345.675L475.334 332.584L475.334 358.813ZM475.334 298.893L475.334 325.114L452.967 312.023L452.967 285.802L475.334 298.893ZM475.334 265.226L452.967 278.317L452.967 252.096L475.334 238.997L475.334 265.226ZM475.334 205.306L475.334 231.535L465.227 225.616L452.967 218.436L452.967 192.216L475.334 205.306ZM475.334 171.639L452.967 184.73L452.967 158.509L475.334 145.418L475.334 171.639ZM475.334 111.72L475.334 137.949L452.967 124.85L452.967 98.6287L475.334 111.72ZM475.334 78.0528L452.967 91.1436L452.967 64.9226L475.334 51.8314L475.334 78.0528ZM475.334 44.3857L452.967 31.2945L452.967 5.06551L475.334 18.1643L475.334 44.3857Z" fill="url(#paint0_linear_27_178)"/>
    <defs>
        <linearGradient id="paint0_linear_27_178" x1="238.5" y1="2.10632e-09" x2="238.5" y2="861" gradientUnits="userSpaceOnUse">
            <stop offset="0.582291" stop-color="#5A7A80" stop-opacity="0"/>
            <stop offset="1" stop-color="#5A7A80" stop-opacity="0.5"/>
        </linearGradient>
    </defs>
</svg>
