<svg xmlns="http://www.w3.org/2000/svg" width="211" height="60" viewBox="0 0 211 60" fill="none">
<g id="Group 11">
<g id="Group 8">
<path id="Vector" d="M33.8068 60H26.3467C19.3619 59.9928 12.6651 57.215 7.72577 52.2762C2.78643 47.3375 0.00797902 40.641 0 33.6561V26.3468C0.00797756 19.3617 2.78634 12.6648 7.72558 7.72555C12.6648 2.7863 19.3616 0.00797756 26.3467 0H33.8068C40.7916 0.00797902 47.4881 2.78651 52.4269 7.72584C57.3657 12.6652 60.1433 19.3619 60.1505 26.3468V33.6441C60.1457 40.6305 57.3691 47.3296 52.4301 52.2709C47.4911 57.2122 40.7932 59.992 33.8068 60ZM26.3467 2.08577C19.9111 2.09216 13.7409 4.65162 9.1902 9.20231C4.63951 13.753 2.08013 19.9232 2.07374 26.3589V33.6561C2.08092 40.0915 4.64053 46.2613 9.19105 50.8118C13.7416 55.3623 19.9113 57.9221 26.3467 57.9292H33.8068C40.2419 57.9213 46.4113 55.3613 50.9616 50.8109C55.512 46.2606 58.0718 40.0913 58.0798 33.6561V26.3468C58.0726 19.9114 55.513 13.7416 50.9625 9.19112C46.412 4.6406 40.2422 2.08089 33.8068 2.07371L26.3467 2.08577Z" fill="#3c4ca3"/>
<path id="Vector_2" d="M53.3322 24.3452C53.0881 23.7996 52.2351 23.7424 51.7317 23.6279C50.8408 23.4381 49.9282 23.3699 49.019 23.4257C47.2168 23.54 45.4644 24.0637 43.8949 24.9569C41.0134 26.5875 38.822 29.246 37.2396 32.1546C35.6572 35.0633 34.6294 38.2342 33.6226 41.384C33.7552 33.2177 33.7552 25.0503 33.6226 16.8819C33.6045 15.6944 33.7161 14.2658 34.759 13.6991C35.0922 13.5407 35.452 13.4457 35.82 13.4189C38.0532 13.1396 40.3202 13.3304 42.4752 13.9793C43.2408 14.2114 44.0697 14.5821 44.3741 15.3116C44.7238 16.1525 44.2445 17.1051 43.6658 17.8074C42.2673 19.4983 40.2689 20.5653 38.5689 21.9518C36.8689 23.3384 35.3588 25.3398 35.5939 27.5251C35.6271 27.8084 35.7356 28.1429 36.0129 28.2092C36.2902 28.2755 36.5675 27.9803 36.7513 27.7241C37.957 26.0512 39.7655 24.9238 41.5438 23.8719C43.3222 22.82 45.1608 21.762 46.4901 20.1916C47.8193 18.6212 48.5518 16.3516 47.7711 14.4406C47.12 12.8491 45.5376 11.7883 43.8798 11.3331C42.222 10.878 40.4708 10.9352 38.7557 10.9955L32.0764 11.2366C31.3499 11.2637 29.8489 10.9352 29.7072 11.8002C29.5656 12.6653 30.1292 14.0999 30.2558 14.9951C30.8798 19.3777 30.9762 23.8145 31.0727 28.2333L31.5881 51.4847C31.5742 51.5874 31.5847 51.692 31.6187 51.7899C31.6528 51.8879 31.7094 51.9761 31.784 52.0481C32.0372 52.2199 32.3688 51.9818 32.5587 51.7467C33.1481 50.9165 33.6084 50.0019 33.924 49.0339L37.541 39.4822C38.4453 37.092 39.3495 34.6897 40.6637 32.4893C41.9779 30.289 43.6779 28.2695 45.9114 27.0156C47.7368 26.014 49.7689 25.4479 51.8493 25.361C52.3828 25.3037 53.712 25.2163 53.3322 24.3452Z" fill="#3c4ca3"/>
<path id="Vector_3" d="M20.8071 22.9737C23.0617 24.6978 26.9559 25.0838 28.0863 27.9503C28.1239 28.0488 28.1902 28.1338 28.2766 28.1943C28.363 28.2548 28.4655 28.2881 28.571 28.2897C28.6764 28.2913 28.7799 28.2612 28.8682 28.2034C28.9564 28.1456 29.0252 28.0626 29.0659 27.9653C29.8345 25.554 27.6341 23.3416 25.8739 22.148C23.8242 20.7585 21.3737 19.7578 19.7581 17.8137C18.5796 16.3971 18.6881 14.7179 18.0461 13.1023C17.8954 12.7256 17.6874 12.0715 17.2202 12.3609C16.753 12.6502 16.8314 13.8682 16.8193 14.26C16.7953 15.3686 16.919 16.4755 17.1871 17.5514C17.6995 19.6915 18.8087 21.8735 20.8071 22.9737Z" fill="#3c4ca3"/>
<path id="Vector_4" d="M29.487 40.5878C29.5081 27.4702 26.8014 35.542 27.3922 41.5974C25.9756 38.7491 25.1497 35.6446 23.724 32.8022C21.9426 29.2576 18.5999 25.8697 14.7086 24.7635C13.0866 24.302 11.3902 24.1607 9.71417 24.3476C9.04201 24.4229 7.23953 24.5555 6.8296 25.2518C6.45886 25.8848 7.49874 26.1983 8.03526 26.1019C21.8371 23.6634 25.867 51.9663 29.6618 52.114C29.6076 48.28 29.7553 44.4098 29.487 40.5878Z" fill="#3c4ca3"/>
</g>
<g id="Group 10">
<path id="Vector_5" d="M93.4932 52.268C93.2218 51.7261 92.7743 51.2924 92.2242 51.0382C91.4547 50.7433 90.6369 50.595 89.8129 50.6011C86.3376 50.4443 82.8562 50.6011 79.3779 50.574C78.5093 50.6107 77.6404 50.5089 76.8038 50.2726C76.1437 50.0435 75.4655 49.4979 75.5439 48.8046C75.574 48.6143 75.648 48.4335 75.7599 48.2766C75.8718 48.1197 76.0187 47.9909 76.1889 47.9004C76.5281 47.7222 76.8987 47.6116 77.28 47.5748C78.3527 47.4431 79.4339 47.3927 80.5142 47.4241L87.2629 47.4483C88.1069 47.4483 88.987 47.4484 89.7466 47.0806C90.5465 46.6394 91.171 45.9374 91.5159 45.0914L91.323 44.9678C89.9636 46.0408 88.0918 46.0921 86.3617 46.0981C84.2789 46.0981 82.1931 46.1162 80.1103 46.0981C78.9649 46.0981 77.7804 46.0619 76.7194 46.499C75.6584 46.936 74.7481 47.9577 74.8265 49.1031C74.8958 50.134 75.7307 50.9778 76.7073 51.3546C77.6839 51.7314 78.7268 51.7376 79.7607 51.7346H88.6494C89.7173 51.6864 90.7866 51.7878 91.8264 52.036C92.1985 52.1098 92.5326 52.3124 92.7698 52.6085C93.1345 53.1632 92.7698 53.956 92.2212 54.2996C91.6726 54.6432 90.9583 54.6583 90.2951 54.6643C85.6734 54.6985 81.0578 54.6895 76.4481 54.6372C76.1428 54.6171 75.8364 54.6528 75.5439 54.7426C75.3972 54.7915 75.2667 54.8798 75.1668 54.9978C75.0669 55.1158 75.0013 55.2589 74.9772 55.4117H90.259C91.1029 55.4117 91.9831 55.4119 92.7306 55.014C93.8519 54.378 93.9724 53.2084 93.4932 52.268Z" fill="#3c4ca3"/>
<path id="Vector_6" d="M103.958 47.9851C104.561 48.0815 104.938 48.2142 104.938 48.7869C104.938 49.1697 104.938 49.5465 104.959 49.9142V50.0287C104.959 50.0287 104.959 50.0738 104.959 50.1853V50.6557C104.962 51.3182 104.928 51.9804 104.856 52.639C104.796 53.1837 104.542 53.6885 104.141 54.0622C103.74 54.436 103.219 54.654 102.671 54.6765H102.578C101.589 54.6765 100.739 53.8928 100.507 52.7715C100.419 52.3431 100.374 51.9067 100.374 51.4693C100.374 49.9622 100.374 48.808 100.374 47.6566C100.374 46.5052 100.374 45.9053 100.374 44.341C100.374 44.341 100.374 44.323 100.374 44.3139C100.424 44.1565 100.524 44.0197 100.659 43.9254C100.794 43.831 100.957 43.7841 101.122 43.7923L101.255 43.3281H97.939L98.0053 43.7923C98.6081 43.8888 98.9879 44.0184 98.9849 44.5941V44.7448C98.9849 44.784 98.9849 44.8233 98.9849 44.8655C98.998 45.0461 98.998 45.2274 98.9849 45.408C98.9849 45.8541 98.9849 46.1734 98.9849 47.0355C98.9849 47.4092 98.9849 47.7832 98.9849 48.157C98.9849 49.4139 98.9849 50.7129 99.0813 51.9909C99.217 54.0586 100.543 55.3458 102.545 55.3518H102.563C104.673 55.3518 106.017 54.2363 106.21 52.2861C106.282 51.5356 106.288 50.6375 106.294 50.0317V49.9864C106.294 49.5794 106.294 49.1725 106.294 48.7807C106.286 48.6754 106.3 48.5695 106.336 48.4701C106.372 48.3708 106.429 48.2804 106.503 48.2049C106.577 48.1295 106.667 48.071 106.765 48.033C106.864 47.9951 106.969 47.9787 107.075 47.9851L107.208 47.5209H103.892L103.958 47.9851Z" fill="#3c4ca3"/>
<path id="Vector_7" d="M94.4487 46.6286C95.0515 46.725 95.4283 46.8577 95.4283 47.4304C95.4283 49.8417 95.802 52.0722 95.371 54.0616C94.8465 56.497 93.6318 57.5399 93.6318 57.5399C93.7806 57.751 93.9426 57.9524 94.1171 58.1427C94.8767 57.3832 95.6724 56.6145 96.1697 55.6469C96.7364 54.5468 96.7726 53.2899 96.7726 52.0782V51.9878C96.7726 50.8666 96.7726 49.7242 96.7726 48.6211C96.7726 48.2141 96.7726 47.8072 96.7726 47.4154C96.7642 47.3101 96.7785 47.2039 96.8145 47.1046C96.8506 47.0052 96.9076 46.9151 96.9816 46.8396C97.0556 46.7642 97.1449 46.7054 97.2435 46.6674C97.3421 46.6295 97.4478 46.6131 97.5533 46.6195L97.6859 46.1553H94.3703L94.4487 46.6286Z" fill="#3c4ca3"/>
<path id="Vector_8" d="M102.435 56.0782C102.335 56.0766 102.236 56.0955 102.143 56.1333C102.05 56.1711 101.965 56.2272 101.895 56.2984C101.824 56.3696 101.768 56.4545 101.731 56.5477C101.694 56.6409 101.676 56.7406 101.679 56.8409C101.683 57.0407 101.766 57.2308 101.91 57.3693C102.054 57.5077 102.248 57.5834 102.448 57.5794C102.647 57.5754 102.837 57.4922 102.976 57.3481C103.114 57.2039 103.19 57.0107 103.186 56.8109C103.181 56.615 103.1 56.4285 102.96 56.2916C102.82 56.1548 102.631 56.0782 102.435 56.0782Z" fill="#3c4ca3"/>
<path id="Vector_9" d="M148.655 48.5158C147.897 47.8743 146.935 47.5237 145.942 47.5271H144.483C143.456 47.5271 139.718 47.5271 138.829 47.5482C138.564 47.5557 138.302 47.6076 138.054 47.7019C137.604 47.8805 137.194 48.1471 136.849 48.4858C136.849 48.4225 136.867 47.4911 136.882 47.4911H134.91C134.91 47.4911 134.883 47.9883 134.886 47.9883C134.941 48.0094 135.444 47.9883 135.489 48.1269C135.499 48.3057 135.499 48.4848 135.489 48.6635C135.489 50.6951 135.489 52.4131 135.489 54.4446V54.6465H135.004H134.344C134.021 54.6465 133.759 54.6467 133.515 54.6286C133.174 54.6248 132.842 54.5182 132.563 54.323C132.283 54.1279 132.069 53.8532 131.948 53.5345C131.824 53.2472 131.746 52.9419 131.718 52.6302C131.718 52.5127 131.7 52.392 131.694 52.2685C131.686 52.0585 131.666 51.8492 131.634 51.6415C131.49 50.8211 131.061 50.0779 130.422 49.5434C129.784 49.0089 128.977 48.7177 128.144 48.7209H126.408C125.443 48.7209 124.403 48.7209 123.351 48.6998C122.754 48.6886 122.159 48.6351 121.57 48.5399C121.229 48.5026 120.899 48.3985 120.598 48.2335C120.298 48.0685 120.033 47.8461 119.819 47.5786C119.802 47.5564 119.782 47.5379 119.758 47.5244C119.734 47.5109 119.707 47.5024 119.68 47.5L119.279 47.4126L119.466 47.7805C119.693 48.2773 119.998 48.734 120.37 49.1336C120.492 49.2508 120.62 49.3616 120.753 49.4654C121.259 49.8166 121.858 50.0096 122.474 50.0199C123.158 50.0862 123.906 50.1165 124.825 50.1165H125.184C126.459 50.1165 127.734 50.1163 129.018 50.0982C129.127 50.0962 129.236 50.1065 129.343 50.1285C129.548 50.1748 129.737 50.2712 129.895 50.409C130.053 50.5469 130.174 50.7217 130.248 50.918C130.427 51.3366 130.488 51.7963 130.425 52.2473C130.374 52.8488 130.166 53.4266 129.823 53.9233C129.672 54.1503 129.466 54.3349 129.224 54.4599C128.981 54.5849 128.711 54.6462 128.439 54.6377H124.069H119.412C119.311 54.637 119.21 54.6298 119.11 54.6165C118.749 54.5876 118.406 54.4481 118.126 54.2174C117.847 53.9866 117.645 53.6756 117.549 53.3264C117.408 52.8171 117.341 52.2905 117.35 51.7622C117.35 51.6507 117.35 51.5329 117.35 51.4184C117.354 51.1549 117.345 50.8912 117.323 50.6286C117.28 50.0411 117.092 49.4734 116.777 48.9759C116.461 48.4784 116.028 48.0665 115.514 47.7773C114.854 47.4023 114.112 47.1953 113.353 47.1744C113.245 47.1744 113.133 47.1744 113.022 47.1744C112.395 47.1642 111.774 47.2865 111.198 47.5332C110.618 47.7909 110.105 48.1786 109.698 48.6662C109.291 49.1538 109.002 49.7283 108.853 50.3455C108.814 50.4965 108.783 50.6493 108.76 50.8035C108.76 50.8638 108.742 50.9242 108.729 50.9874V51.0054V51.6294C108.729 51.6294 108.766 51.8826 108.778 51.9579C108.897 52.8942 109.359 53.7531 110.074 54.3693C110.87 55.057 111.888 55.4331 112.94 55.4274C113.288 55.4266 113.636 55.3921 113.977 55.3247C115.028 55.1207 115.962 54.5251 116.59 53.6581C116.823 54.1841 117.203 54.6313 117.684 54.9459C118.166 55.2604 118.728 55.4288 119.303 55.4304C120.509 55.4304 121.856 55.4304 123.523 55.4304H128.831C129.185 55.429 129.534 55.3453 129.85 55.1861C130.365 54.9221 130.801 54.5259 131.113 54.0378C131.38 54.4704 131.756 54.8256 132.204 55.0677C132.651 55.3099 133.154 55.4307 133.663 55.4183C134.971 55.4183 136.405 55.4363 138.045 55.4363C139.552 55.4363 143.727 55.4363 145.171 55.4363H145.9C146.524 55.4461 147.142 55.305 147.7 55.0248C148.257 54.7445 148.739 54.3334 149.104 53.8268C150.295 52.2172 150.259 49.8571 148.655 48.5158ZM136.821 51.0869C136.821 50.2617 137.121 49.4645 137.665 48.8443C137.814 48.6715 138 48.5343 138.208 48.4425C138.417 48.3507 138.643 48.3068 138.871 48.3139H144.061C144.737 48.3139 145.33 48.3139 145.87 48.3139H145.912C146.385 48.2888 146.854 48.4133 147.252 48.6697C147.65 48.9262 147.958 49.3017 148.131 49.7426C148.733 51.1231 148.676 52.154 147.917 53.435C147.699 53.8173 147.38 54.1321 146.995 54.3448C146.61 54.5575 146.174 54.6599 145.734 54.6406H136.809C136.809 54.2669 136.809 53.8902 136.809 53.5074C136.8 52.6122 136.797 52.0002 136.821 51.0869ZM110.426 49.5528C110.581 49.1077 110.863 48.7183 111.239 48.434C111.615 48.1496 112.066 47.983 112.536 47.9553C112.677 47.9376 112.819 47.9283 112.961 47.928C113.332 47.9249 113.699 47.9978 114.04 48.142C114.381 48.2861 114.689 48.4983 114.945 48.766C115.378 49.214 115.668 49.7805 115.78 50.3937C115.828 50.6288 115.855 50.8759 115.882 51.114C115.882 51.2225 115.906 51.331 115.918 51.4154C115.911 52.0033 115.791 52.5843 115.566 53.1274C115.387 53.5723 115.077 53.9521 114.677 54.2156C114.277 54.4791 113.805 54.6137 113.326 54.6015H113.248C112.671 54.6292 112.101 54.4769 111.615 54.1659C111.129 53.8548 110.751 53.4004 110.535 52.8654C110.294 52.3499 110.16 51.7907 110.141 51.2218C110.122 50.6528 110.219 50.086 110.426 49.5557V49.5528Z" fill="#3c4ca3"/>
<path id="Vector_10" d="M112.075 44.9347C111.975 44.9326 111.875 44.9509 111.782 44.9886C111.689 45.0263 111.604 45.0824 111.533 45.1537C111.463 45.225 111.407 45.3102 111.37 45.4036C111.333 45.4971 111.316 45.597 111.319 45.6974C111.323 45.8972 111.406 46.0873 111.55 46.2258C111.694 46.3642 111.887 46.4399 112.087 46.4359C112.287 46.4319 112.477 46.3487 112.616 46.2046C112.754 46.0604 112.83 45.8669 112.826 45.6671C112.822 45.4709 112.741 45.2843 112.6 45.1473C112.46 45.0102 112.271 44.9339 112.075 44.9347Z" fill="#3c4ca3"/>
<path id="Vector_11" d="M113.995 44.9347C113.895 44.9326 113.795 44.9509 113.702 44.9886C113.609 45.0263 113.524 45.0824 113.453 45.1537C113.383 45.225 113.327 45.3102 113.29 45.4036C113.253 45.4971 113.236 45.597 113.239 45.6974C113.243 45.8972 113.326 46.0873 113.47 46.2258C113.614 46.3642 113.807 46.4399 114.007 46.4359C114.207 46.4319 114.397 46.3487 114.536 46.2046C114.674 46.0604 114.75 45.8669 114.746 45.6671C114.74 45.4714 114.659 45.2857 114.519 45.149C114.379 45.0123 114.191 44.9354 113.995 44.9347Z" fill="#3c4ca3"/>
<path id="Vector_12" d="M207.829 47.424C207.829 47.3908 210.403 47.3909 210.59 47.3848L210.361 46.7579C210.361 46.7579 209.731 46.8543 209.658 46.8574C209.448 46.872 209.238 46.8238 209.055 46.7187C208.718 46.5138 208.453 46.0859 208.82 45.7724C209.188 45.4589 209.755 45.5253 210.168 45.5192L210.433 44.9344C210.315 44.9344 208.145 44.7204 208.022 45.8386C207.964 46.2998 208.181 46.6374 208.624 46.9689L207.792 46.8998L207.829 47.424Z" fill="#3c4ca3"/>
<path id="Vector_13" d="M196.194 55.4973C196.771 55.4976 197.339 55.3613 197.853 55.0993C198.366 54.8373 198.81 54.4571 199.148 53.9902C199.935 55.2682 200.872 55.4611 201.789 55.5214C202.018 55.5365 202.762 55.5214 202.994 55.5214C204.532 55.3767 205.789 54.4213 205.915 53.3694C206 52.652 206.072 50.551 206.072 50.2254C206.072 49.7854 206.506 49.6226 206.859 49.5864V49.2129H203.733V49.5864C204.212 49.6648 204.574 49.7705 204.571 50.2287C204.571 51.0726 204.571 51.8925 204.571 52.5526C204.564 52.8089 204.542 53.0645 204.505 53.3182C204.444 53.6773 204.254 54.0019 203.972 54.2324C203.69 54.463 203.334 54.5835 202.97 54.5718H201.81C201.062 54.5718 199.911 54.1198 199.781 53.3241C199.715 53.0051 199.69 52.679 199.706 52.3536C199.731 51.9473 199.673 51.5398 199.535 51.1568C199.398 50.7737 199.183 50.4229 198.904 50.1259C198.562 49.7892 198.154 49.5266 197.706 49.3544C197.258 49.1823 196.78 49.1044 196.3 49.1254C196.092 49.1254 195.287 49.1525 195.284 49.1646C195.281 49.1766 195.284 50.2646 195.302 50.2646C195.354 50.2646 195.99 50.2316 196.137 50.2316C196.858 50.2316 197.479 50.2859 198.006 50.8344C198.33 51.1556 198.553 51.5637 198.649 52.0095C198.745 52.4553 198.709 52.9195 198.546 53.3453C198.196 54.1229 197.34 54.4422 196.535 54.4603L194.971 54.4997L194.935 55.5214C195.2 55.5244 195.959 55.4973 196.194 55.4973Z" fill="#3c4ca3"/>
<path id="Vector_14" d="M210.548 48.0659L210.602 47.6924H207.805V48.0659C208.284 48.1443 208.646 48.25 208.646 48.7082C208.646 49.8053 208.646 51.0984 208.664 51.7223V54.3053C208.664 54.3505 208.664 54.3958 208.664 54.441C208.664 54.7966 208.634 55.08 208.166 55.1554V55.3452H210.433L210.463 55.1583C209.782 54.9202 209.782 54.9204 209.782 54.2723V53.615C209.782 52.1079 209.8 48.8135 209.8 48.6899C209.815 48.2649 210.195 48.093 210.548 48.0659Z" fill="#3c4ca3"/>
<path id="Vector_15" d="M191.2 45.8398V46.2107C191.679 46.2891 192.038 46.3946 192.038 46.8527C192.038 47.8203 192.038 48.7547 192.038 49.4509C192.038 50.2768 192.074 51.0997 192.059 51.9256C192.044 52.7514 192.143 53.8335 191.402 54.3007C191.044 54.5338 190.623 54.6517 190.196 54.6383C189.578 54.6985 188.954 54.6586 188.349 54.5206C187.655 54.3186 187.312 54.0714 187.282 53.3299C187.245 52.4829 187.242 51.6209 187.245 50.7799C187.245 50.587 187.279 50.3942 187.276 50.2012C187.276 49.7612 187.604 49.5984 187.957 49.5622L188.062 49.1887H185.087L185.142 49.5622C185.618 49.6406 185.928 49.7463 185.925 50.2045C185.925 51.0213 185.925 51.8138 185.925 52.4619C185.925 52.7844 185.904 53.1131 185.874 53.4326C185.793 54.2645 185.404 54.587 184.602 54.6171H184.539C183.77 54.6171 183.351 54.3609 183.191 53.538C183.149 53.3153 183.127 53.0893 183.125 52.8628C183.125 51.9374 183.125 50.9942 183.125 50.105V50.0476C183.164 49.9026 183.251 49.7754 183.372 49.687C183.493 49.5987 183.641 49.5544 183.791 49.5622L183.897 49.1887H180.882L180.934 49.5622C181.413 49.6406 181.723 49.7463 181.72 50.2045C181.72 51.4101 181.72 52.5916 181.742 53.2969C181.708 53.5574 181.639 53.8119 181.537 54.0534C181.304 54.5779 181.018 54.6804 180.406 54.6804H180.385C179.761 54.6804 179.481 54.5718 179.252 54.0293C179.126 53.7436 179.054 53.4369 179.041 53.125C179.041 52.4227 179.041 51.7114 179.041 51.0151C179.041 50.7469 179.086 50.4757 179.086 50.2074C179.086 49.7674 179.415 49.6046 179.767 49.5684L179.873 49.1946H176.859L176.91 49.5684C177.389 49.6468 177.697 49.7522 177.697 50.2104C177.697 50.8524 177.697 51.4825 177.697 52.0371C177.697 52.3385 177.697 52.6399 177.678 52.9202C177.7 53.2547 177.652 53.5899 177.54 53.9057C177.281 54.4331 176.446 54.6203 175.918 54.6745C175.302 54.7373 174.682 54.7442 174.064 54.6954C173.413 54.6622 172.958 54.6592 172.446 54.2071C172.164 53.9984 171.973 53.6882 171.915 53.342C171.888 52.5342 171.888 51.7114 171.888 50.9127V50.5451C171.888 50.4335 171.888 50.319 171.888 50.2074C171.888 49.7674 172.214 49.6046 172.566 49.5684L172.672 49.1946H169.658L169.712 49.5684C170.191 49.6468 170.499 49.7522 170.496 50.2104C170.496 51.1146 170.496 51.9736 170.496 52.6488C170.496 52.8879 170.478 53.123 170.441 53.354C170.424 53.5934 170.332 53.8215 170.179 54.0066C170.027 54.1918 169.82 54.3252 169.588 54.3881C168.986 54.6112 167.388 54.6895 165.369 54.7137C164.817 54.7137 163.581 54.7137 163.485 54.7137C163.124 54.6843 162.78 54.5446 162.501 54.3139C162.222 54.0832 162.02 53.7725 161.923 53.4235C161.783 52.9142 161.716 52.3873 161.724 51.859C161.724 51.7445 161.724 51.6301 161.724 51.5155C161.729 51.252 161.72 50.9884 161.697 50.7258C161.655 50.1381 161.468 49.57 161.152 49.0724C160.836 48.5748 160.402 48.1633 159.889 47.8744C159.23 47.4994 158.489 47.2924 157.731 47.2716H157.399C156.772 47.261 156.149 47.3834 155.573 47.6304C154.993 47.8882 154.48 48.2757 154.074 48.7633C153.668 49.251 153.379 49.8257 153.231 50.4426C153.19 50.5933 153.159 50.7462 153.137 50.9006C153.137 50.9609 153.116 51.0213 153.104 51.0846V51.7266C153.104 51.7266 153.143 51.9798 153.152 52.0521C153.272 52.9891 153.735 53.8483 154.451 54.4635C155.247 55.1521 156.266 55.5281 157.318 55.5214C157.665 55.5191 158.011 55.4848 158.352 55.4189C159.404 55.2156 160.339 54.6196 160.968 53.752C161.2 54.278 161.58 54.7252 162.062 55.0398C162.543 55.3543 163.106 55.5227 163.681 55.5243H163.831C166.846 55.5876 163.427 55.5575 165.191 55.5243C166.396 55.5032 167.463 55.4823 168.112 55.4913C168.265 55.4913 170.188 55.4641 171.189 54.4152C171.436 54.7508 171.758 55.0239 172.13 55.2129C172.502 55.4018 172.912 55.5014 173.329 55.5034C173.878 55.4702 174.652 55.5695 175.439 55.5393C176.514 55.5446 177.553 55.1504 178.354 54.4331C178.569 54.7607 178.863 55.0289 179.209 55.2123C179.555 55.3957 179.942 55.4885 180.334 55.4822H180.382C180.785 55.4768 181.181 55.3781 181.539 55.194C181.897 55.01 182.208 54.7454 182.447 54.4211C182.682 54.7395 182.988 54.999 183.34 55.1784C183.693 55.3579 184.083 55.4527 184.478 55.4551C184.888 55.4524 185.292 55.3595 185.662 55.1829C186.032 55.0063 186.359 54.7501 186.618 54.4331C187.107 55.4791 188.15 55.5154 189.253 55.4672C189.621 55.4521 190.458 55.428 190.688 55.428C190.952 55.4147 191.214 55.3761 191.471 55.3132C191.931 55.2461 192.357 55.0349 192.688 54.7098C193.02 54.3848 193.24 53.9627 193.316 53.5048C193.376 53.26 193.408 53.0094 193.412 52.7574C193.412 51.3799 193.412 49.9784 193.412 48.625C193.412 48.3748 193.412 48.1216 193.412 47.8715V47.8353C193.412 47.5067 193.461 47.1812 193.461 46.8557C193.461 46.4156 193.843 46.2528 194.193 46.2166L194.247 45.846L191.2 45.8398ZM159.985 53.2216C159.807 53.6665 159.497 54.046 159.097 54.3095C158.696 54.573 158.225 54.7076 157.746 54.6954H157.676C157.1 54.7226 156.53 54.5702 156.044 54.2592C155.558 53.9482 155.18 53.494 154.964 52.9593C154.717 52.4448 154.578 51.8854 154.555 51.3154C154.531 50.7453 154.624 50.1767 154.828 49.6437C154.983 49.1988 155.266 48.8098 155.641 48.5255C156.017 48.2412 156.468 48.0744 156.938 48.0463C157.079 48.0285 157.221 48.0194 157.363 48.0192C157.733 48.0161 158.1 48.0888 158.441 48.2329C158.782 48.377 159.09 48.5893 159.346 48.8569C159.78 49.3044 160.069 49.8713 160.178 50.4847C160.226 50.7198 160.254 50.9669 160.281 51.205C160.281 51.3135 160.305 51.422 160.317 51.5064C160.316 52.094 160.204 52.6762 159.985 53.2216Z" fill="#3c4ca3"/>
<path id="Vector_16" d="M156.703 46.7949C156.803 46.7978 156.903 46.7803 156.996 46.7434C157.089 46.7064 157.174 46.6508 157.245 46.58C157.316 46.5092 157.372 46.4247 157.41 46.3316C157.447 46.2385 157.465 46.1387 157.462 46.0384C157.457 45.843 157.376 45.6572 157.237 45.5201C157.097 45.383 156.91 45.3051 156.715 45.3028C156.614 45.3012 156.514 45.3199 156.421 45.3579C156.328 45.3959 156.244 45.4523 156.173 45.5239C156.102 45.5954 156.047 45.6808 156.01 45.7744C155.973 45.868 155.955 45.9679 155.958 46.0684C155.959 46.1653 155.978 46.261 156.016 46.3501C156.054 46.4393 156.109 46.5201 156.178 46.5877C156.248 46.6553 156.33 46.7084 156.42 46.744C156.51 46.7796 156.606 46.7969 156.703 46.7949Z" fill="#3c4ca3"/>
<path id="Vector_17" d="M158.578 46.7949C158.678 46.7982 158.778 46.7811 158.872 46.7443C158.965 46.7075 159.05 46.6518 159.121 46.5809C159.192 46.51 159.248 46.4255 159.285 46.3322C159.323 46.2389 159.34 46.1388 159.337 46.0384C159.333 45.8428 159.252 45.6564 159.113 45.5192C158.973 45.3819 158.786 45.3043 158.59 45.3028C158.489 45.3012 158.389 45.3199 158.296 45.3579C158.203 45.3959 158.119 45.4523 158.048 45.5239C157.977 45.5954 157.922 45.6808 157.885 45.7744C157.848 45.868 157.83 45.9679 157.833 46.0684C157.834 46.1653 157.853 46.261 157.891 46.3501C157.929 46.4393 157.984 46.5201 158.053 46.5877C158.123 46.6553 158.205 46.7084 158.295 46.744C158.385 46.7796 158.481 46.7969 158.578 46.7949Z" fill="#3c4ca3"/>
<path id="Vector_18" d="M205.243 47.2911C205.343 47.2944 205.443 47.2769 205.537 47.2401C205.63 47.2033 205.715 47.148 205.786 47.0771C205.857 47.0062 205.913 46.9214 205.95 46.828C205.988 46.7347 206.005 46.635 206.002 46.5346C206 46.4356 205.979 46.338 205.939 46.2473C205.9 46.1566 205.842 46.0745 205.771 46.0059C205.7 45.9373 205.615 45.8836 205.523 45.8476C205.431 45.8115 205.333 45.7941 205.234 45.796C205.135 45.798 205.037 45.8193 204.947 45.859C204.856 45.8987 204.774 45.956 204.705 46.0274C204.637 46.0988 204.583 46.1828 204.547 46.275C204.511 46.3671 204.493 46.4656 204.495 46.5646C204.496 46.6616 204.516 46.7574 204.554 46.8466C204.592 46.9358 204.648 47.0163 204.717 47.0838C204.787 47.1514 204.869 47.2046 204.959 47.2401C205.049 47.2757 205.146 47.2931 205.243 47.2911Z" fill="#3c4ca3"/>
<path id="Vector_19" d="M165.546 57.3027C165.647 57.306 165.747 57.2886 165.84 57.2518C165.934 57.215 166.019 57.1596 166.09 57.0887C166.161 57.0178 166.217 56.933 166.254 56.8397C166.291 56.7464 166.309 56.6466 166.306 56.5462C166.301 56.3511 166.22 56.1657 166.08 56.029C165.941 55.8924 165.754 55.8151 165.559 55.8136C165.458 55.8119 165.359 55.8305 165.266 55.8683C165.173 55.9061 165.088 55.9625 165.018 56.0338C164.947 56.105 164.892 56.1898 164.854 56.2831C164.817 56.3763 164.8 56.4759 164.802 56.5762C164.802 56.6731 164.822 56.7688 164.86 56.8579C164.898 56.9471 164.953 57.0279 165.022 57.0955C165.091 57.1631 165.173 57.2162 165.263 57.2518C165.353 57.2874 165.45 57.3047 165.546 57.3027Z" fill="#3c4ca3"/>
<path id="Vector_20" d="M167.466 57.3028C167.567 57.3061 167.667 57.2887 167.76 57.2519C167.854 57.2151 167.939 57.1597 168.01 57.0888C168.081 57.0179 168.137 56.9331 168.174 56.8398C168.211 56.7464 168.229 56.6467 168.226 56.5463C168.222 56.3464 168.139 56.1561 167.995 56.0176C167.85 55.8792 167.657 55.8038 167.457 55.8078C167.258 55.8118 167.067 55.895 166.929 56.0391C166.79 56.1833 166.715 56.3765 166.719 56.5763C166.719 56.6734 166.739 56.7695 166.777 56.8589C166.815 56.9482 166.87 57.0291 166.94 57.0967C167.01 57.1644 167.092 57.2174 167.182 57.2527C167.273 57.2881 167.369 57.3052 167.466 57.3028Z" fill="#3c4ca3"/>
</g>
<g id="Group 9">
<path id="Vector_21" d="M76.4752 18.3484C76.882 18.3466 77.2834 18.2551 77.6507 18.0802C79.0885 17.4292 79.3417 15.6506 79.5647 14.0833C79.7878 12.5159 79.9777 11.5695 80.7403 11.4941H80.8096C81.3823 11.4941 81.964 12.1603 82.4402 13.3659L82.7597 14.2401C83.5344 16.2385 83.23 16.9226 83.1184 17.0853C83.0787 17.1463 83.0234 17.1958 82.9582 17.2281C82.8929 17.2604 82.8203 17.2746 82.7477 17.2693H82.4674V18.1315H86.9102V17.2693H86.6269C85.8372 17.2693 85.4002 16.3411 84.517 14.0594L79.9958 2.22266L78.7117 2.96118L77.7502 3.52781L78.13 4.18186L78.3138 4.1639C78.3459 4.16099 78.3782 4.16099 78.4103 4.1639C78.552 4.1639 78.5911 4.2091 78.6062 4.22719C78.6665 4.29651 78.7539 4.51052 78.6635 5.13144C78.3289 6.63852 77.0539 8.44681 75.9267 10.0503C75.5318 10.611 75.158 11.1417 74.8415 11.636C73.6359 13.5892 73.3737 15.515 74.1513 16.9196C74.3745 17.3447 74.7081 17.7017 75.1171 17.9531C75.526 18.2045 75.9952 18.3411 76.4752 18.3484ZM76.6922 10.4454C77.7984 8.86293 79.0222 7.12984 79.4351 5.52027L81.4425 10.7618C81.2401 10.6735 81.0214 10.6282 80.8005 10.629C80.7554 10.6262 80.7101 10.6262 80.6649 10.629C79.197 10.7797 78.8775 12.1031 78.555 13.3871C78.2837 14.5054 78.0064 15.6658 76.9816 16.139C76.7362 16.2585 76.4678 16.3232 76.1949 16.3289C75.958 16.3297 75.7257 16.264 75.5242 16.1393C75.3228 16.0146 75.1605 15.836 75.0556 15.6236C74.6848 14.9484 74.5944 13.6221 75.5589 12.097C75.8905 11.5785 76.2793 11.0361 76.6892 10.4454H76.6922Z" fill="#3c4ca3"/>
<path id="Vector_22" d="M98.7135 3.26502H99.0149C100.133 3.26502 100.938 3.26517 100.938 6.51142V13.3866C100.148 11.6625 98.9154 10.5866 97.7157 9.53765C96.2599 8.26567 94.8854 7.05999 94.358 4.76621V4.73884C94.2404 4.11491 94.2796 3.68093 94.4755 3.44281C94.5665 3.35042 94.6772 3.2801 94.7994 3.23676C94.9216 3.19343 95.052 3.17818 95.1809 3.19261H95.4823V2.3125H90.1743V3.19261H90.4757C91.591 3.19261 92.3988 3.19269 92.3988 6.44196V13.9894C92.3988 17.2568 91.5488 17.2567 90.4757 17.2567H90.1743V18.1189H95.4642V17.2567H95.1628C94.0867 17.2567 93.2397 17.2568 93.2397 13.9894V6.92116C94.0083 8.51866 95.1869 9.53745 96.3353 10.5381C97.9117 11.9036 99.4037 13.1966 99.889 15.9033C99.9613 16.4308 99.889 16.8075 99.7202 17.0215C99.6254 17.1117 99.5121 17.1804 99.3883 17.2226C99.2644 17.2647 99.1329 17.2795 99.0028 17.2658H98.7014V18.128H104.009V17.2658H103.708C102.623 17.2658 101.764 17.2659 101.764 13.9985V6.51142C101.764 3.26517 102.581 3.26502 103.708 3.26502H104.009V2.38197H98.7014L98.7135 3.26502Z" fill="#3c4ca3"/>
<path id="Vector_23" d="M114.372 18.1068C116.428 18.0101 118.364 17.1155 119.771 15.6131C121.177 14.1107 121.942 12.119 121.902 10.0616C121.863 8.00417 121.023 6.04314 119.561 4.5955C118.098 3.14786 116.129 2.3278 114.071 2.30957H108.13V3.17467H108.431C109.336 3.17467 109.938 4.49469 109.938 6.45993V13.9953C109.938 15.9786 109.336 17.2629 108.431 17.2629H108.13V18.1489H114.071L114.372 18.1068ZM114.071 17.2417H113.167C112.262 17.2417 111.659 15.9577 111.659 13.9744V6.43903C111.659 4.44365 112.262 3.15348 113.167 3.15348H114.071C117.305 3.23184 119.656 6.19494 119.656 10.1917C119.656 14.1885 117.311 17.1784 114.08 17.2417H114.071Z" fill="#3c4ca3"/>
<path id="Vector_24" d="M135.737 14.0562L131.215 2.21973L129.931 2.95825L128.967 3.52488L129.35 4.17893L129.533 4.16068C129.565 4.15778 129.596 4.15778 129.627 4.16068C129.772 4.16068 129.811 4.20588 129.826 4.22396C129.886 4.29329 129.973 4.5073 129.883 5.12821C129.548 6.63529 128.271 8.44388 127.146 10.0474C126.751 10.608 126.378 11.1385 126.061 11.6328C124.855 13.586 124.59 15.5121 125.371 16.9167C125.594 17.343 125.928 17.701 126.339 17.9525C126.749 18.2041 127.22 18.3399 127.701 18.3455C128.108 18.3433 128.509 18.2515 128.876 18.077C130.314 17.426 130.567 15.6477 130.79 14.0803C131.013 12.513 131.203 11.5666 131.963 11.4912H132.035C132.608 11.4912 133.19 12.1573 133.666 13.363L133.985 14.2372C134.757 16.2356 134.453 16.9196 134.341 17.0824C134.302 17.1432 134.247 17.1922 134.182 17.2246C134.118 17.2569 134.045 17.2715 133.973 17.2664H133.69V18.1285H138.136V17.2664H137.853C137.06 17.2664 136.617 16.3379 135.737 14.0562ZM127.9 10.4392C129.006 8.85676 130.23 7.12367 130.643 5.51411L132.65 10.7556C132.448 10.6673 132.229 10.6223 132.008 10.6232C131.962 10.6203 131.916 10.6203 131.869 10.6232C130.405 10.7739 130.082 12.0972 129.76 13.3812C129.488 14.4995 129.208 15.6599 128.186 16.1331C127.941 16.2526 127.672 16.3173 127.399 16.323C127.162 16.3233 126.93 16.2574 126.728 16.1328C126.526 16.0082 126.363 15.8299 126.257 15.6177C125.886 14.9425 125.796 13.6163 126.76 12.0911C127.113 11.5787 127.499 11.0362 127.912 10.4454L127.9 10.4392Z" fill="#3c4ca3"/>
<path id="Vector_25" d="M153.858 13.9623L153.02 13.7059L152.941 14.0073C152.426 15.9002 150.373 17.2749 148.061 17.2749H147.932C146.075 17.2749 145.762 16.2649 145.762 13.9953V6.48724C145.762 4.50694 146.364 3.22877 147.269 3.22877H147.57V2.34277H142.247V3.22877H142.548C143.453 3.22877 144.056 4.50694 144.056 6.48724V13.9894C144.056 15.9817 143.453 17.2687 142.548 17.2687H142.247V18.1338H152.733L153.858 13.9623Z" fill="#3c4ca3"/>
<path id="Vector_26" d="M167.978 6.51172C167.978 3.31972 168.807 3.31948 169.856 3.31948H170.14V2.47852H164.952V3.31948H165.236C166.287 3.31948 167.116 3.31972 167.116 6.51172V12.0485C167.116 12.0756 167.153 14.6348 165.781 16.0334C165.483 16.333 165.127 16.5681 164.735 16.7237C164.342 16.8792 163.921 16.9521 163.499 16.9376C160.787 16.9376 159.478 15.3399 159.478 12.0485V11.2649C159.478 8.06085 161.814 5.98413 163.213 4.74532C164.039 4.01288 164.536 3.56989 164.361 3.10872C164.187 2.64756 163.379 2.4847 160.934 2.4847H156.03V3.32566H156.314C157.218 3.32566 157.769 4.54936 157.769 6.51761V6.80107H158.631V6.51761C158.631 3.46728 159.421 3.32566 160.934 3.32566C161.676 3.32566 162.291 3.32566 162.692 3.32566L162.616 3.37393C161.209 4.22393 157.956 6.19819 157.794 10.9726H157.766V12.0364C157.766 14.3272 158.436 18.1704 162.924 18.1704C165.254 18.1704 167.975 16.5637 167.975 12.0364L167.978 6.51172Z" fill="#3c4ca3"/>
<path id="Vector_27" d="M173.914 13.3324V13.3625V13.4528L173.537 15.4211L173.04 18.1851L173.872 18.3146L173.923 18.0465C174.077 17.2266 174.288 17.2267 174.411 17.2267C174.723 17.2695 175.028 17.3556 175.316 17.4828C176.329 17.8944 177.411 18.1133 178.505 18.128C179.924 18.128 181.118 17.6757 181.956 16.8167C182.794 15.9576 183.249 14.6887 183.216 13.1997C183.147 10.3483 180.958 9.68832 178.842 9.04932C176.955 8.47965 175.171 7.94302 174.776 5.92655C174.613 5.0856 174.749 4.37438 175.168 3.86197C175.668 3.25914 176.542 2.93358 177.7 2.93358C180.337 2.93358 181.317 5.02541 181.881 6.85199L181.959 7.10513L182.77 6.91822L181.528 1.85449L180.817 2.07437L180.777 2.22214C180.741 2.3776 180.69 2.52907 180.624 2.67426C180.566 2.65919 180.467 2.61705 180.386 2.58389C179.538 2.2209 178.621 2.04814 177.7 2.07761C177.102 2.06014 176.506 2.16334 175.949 2.38138C175.392 2.59942 174.884 2.9278 174.457 3.34656C174.069 3.76286 173.77 4.25406 173.58 4.79006C173.389 5.32606 173.31 5.89546 173.347 6.46315C173.459 9.01916 174.806 10.1375 176.431 10.8066C175.174 11.2135 174.176 12.181 173.914 13.3324ZM177.857 11.4153C178.109 11.4129 178.36 11.4423 178.604 11.5027C180.349 12.0212 181.667 12.5879 181.477 14.6797C181.308 16.3465 180.271 17.2658 178.514 17.2658C177.863 17.2754 177.22 17.1176 176.648 16.8078C176.075 16.4981 175.592 16.0466 175.243 15.4965C174.722 14.6465 174.641 13.6879 174.99 12.9766C175.605 11.8252 176.874 11.4153 177.857 11.4153Z" fill="#3c4ca3"/>
<path id="Vector_28" d="M192.62 17.2424H192.319C191.415 17.2424 190.812 15.9584 190.812 13.9751V6.43971C190.812 4.47448 191.415 3.15416 192.319 3.15416H192.62V2.28906H187.285V3.15416H187.587C188.491 3.15416 189.094 4.44434 189.094 6.43971V13.9751C189.094 15.9584 188.491 17.2424 187.587 17.2424H187.285V18.1287H192.62V17.2424Z" fill="#3c4ca3"/>
<path id="Vector_29" d="M199.23 18.3484C199.636 18.3462 200.038 18.2547 200.405 18.0802C201.843 17.4292 202.096 15.6506 202.319 14.0833C202.542 12.5159 202.729 11.5695 203.492 11.4941H203.561C204.137 11.4941 204.718 12.1603 205.195 13.3659L205.514 14.2401C206.286 16.2385 205.981 16.9226 205.87 17.0853C205.831 17.1461 205.776 17.1955 205.711 17.2278C205.646 17.2601 205.574 17.2744 205.502 17.2693H205.219V18.1315H209.662V17.2693H209.381C208.592 17.2693 208.152 16.3411 207.271 14.0594L202.75 2.22266L201.466 2.96118L200.502 3.52781L200.884 4.18186L201.068 4.1639C201.099 4.16101 201.131 4.16101 201.162 4.1639C201.303 4.1639 201.343 4.2091 201.358 4.22719C201.418 4.29651 201.505 4.51052 201.418 5.13144C201.083 6.63852 199.805 8.44681 198.678 10.0503C198.283 10.614 197.909 11.1447 197.596 11.636C196.39 13.5892 196.125 15.515 196.903 16.9196C197.126 17.3451 197.46 17.7025 197.87 17.954C198.279 18.2054 198.749 18.3417 199.23 18.3484ZM199.447 10.4454C200.553 8.86293 201.777 7.11175 202.187 5.52027L204.197 10.7618C203.994 10.6732 203.774 10.6279 203.552 10.629C203.507 10.6262 203.462 10.6262 203.416 10.629C201.948 10.7797 201.629 12.1031 201.306 13.3842C201.035 14.5054 200.755 15.6658 199.733 16.139C199.488 16.2581 199.219 16.3228 198.946 16.3289C198.709 16.3295 198.476 16.2639 198.275 16.1393C198.073 16.0147 197.91 15.836 197.804 15.6236C197.433 14.9484 197.343 13.6221 198.307 12.097C198.645 11.5785 199.034 11.0361 199.453 10.4454H199.447Z" fill="#3c4ca3"/>
<path id="Vector_30" d="M83.3895 26.0915H83.6186C83.6694 26.0888 83.7202 26.0988 83.766 26.121C83.8119 26.1431 83.8514 26.1766 83.8808 26.2181C83.9622 26.3387 84.1823 26.8481 83.6126 28.3521L82.4642 34.8114C82.1447 33.6359 81.2585 32.3548 80.4327 31.1944C80.1312 30.7513 79.8298 30.3292 79.5827 29.9434C78.8713 28.801 78.9406 27.8125 79.2179 27.3151C79.2923 27.1604 79.4092 27.03 79.5549 26.9392C79.7006 26.8485 79.8692 26.8012 80.0408 26.8027C80.0714 26.8041 80.1014 26.8119 80.1288 26.8253C80.1563 26.8388 80.1807 26.8576 80.2006 26.881C80.2347 26.9492 80.2544 27.024 80.2586 27.1003C80.2627 27.1765 80.2512 27.2527 80.2247 27.3243L80.1011 27.5712L80.7853 27.7823L81.5901 24.8405L80.942 24.6898L80.8848 24.9038C80.8155 25.166 80.4658 25.2325 80.0951 25.2626H79.9594C79.6302 25.3179 79.3193 25.4522 79.0536 25.6544C78.7879 25.8566 78.5753 26.1204 78.4343 26.423C77.9701 27.3604 78.0967 28.6172 78.7779 29.868C78.8395 29.9919 78.9089 30.1119 78.9858 30.2269C79.2873 30.9744 79.0311 31.8516 78.8502 32.4333L77.946 34.7964C77.6446 33.6178 76.7403 32.3338 75.9144 31.1794C75.613 30.7363 75.3116 30.3142 75.0644 29.9284C74.3531 28.786 74.4224 27.7975 74.6997 27.3001C74.7741 27.1454 74.891 27.015 75.0367 26.9242C75.1824 26.8335 75.3509 26.7862 75.5226 26.7877C75.5551 26.7878 75.5873 26.7947 75.617 26.8083C75.6466 26.8218 75.673 26.8414 75.6944 26.866C75.7269 26.9385 75.7437 27.0172 75.7437 27.0967C75.7437 27.1762 75.7269 27.2547 75.6944 27.3272V27.3572V27.5833L76.2972 27.7673L77.102 24.8255L76.454 24.6748L76.3967 24.8888C76.3183 25.1902 75.83 25.2262 75.5949 25.2473H75.4563C75.1145 25.3061 74.793 25.4502 74.5217 25.6662C74.2503 25.8822 74.0379 26.1634 73.904 26.4833C73.4338 27.5202 73.6598 28.8945 74.5249 30.269C74.763 30.6457 75.0494 31.0556 75.3538 31.4746C76.1857 32.6622 77.1261 34.0065 77.3612 35.0916C77.4426 35.598 77.3612 35.7488 77.3341 35.791C77.307 35.8332 77.2979 35.8331 77.1985 35.8331H77.1322L76.9875 35.8151L76.686 36.3305L77.4094 36.7464L78.3981 37.301L80.3664 32.1769C81.0506 33.1867 81.6926 34.2205 81.8915 35.1037C81.9638 35.6101 81.8915 35.7638 81.8523 35.806C81.8131 35.8482 81.8131 35.8481 81.7167 35.8481H81.6504L81.5027 35.8301L81.2013 36.3485L81.9367 36.7585L82.9103 37.3193L84.9961 28.4666C85.6411 26.7546 85.9636 26.0553 86.5454 26.0553H86.7714V25.4434H83.4167L83.3895 26.0915Z" fill="#3c4ca3"/>
<path id="Vector_31" d="M91.2598 28.605C91.2598 27.1703 91.6787 26.2449 92.3298 26.2449H92.9115C94.5844 26.2449 96.0583 27.2274 96.417 28.5838L96.4712 28.7948L97.1163 28.6471L96.3025 25.5879H88.6646V26.2449H88.8906C89.5296 26.2449 89.9576 27.1914 89.9576 28.605C89.9375 28.953 89.9944 29.3011 90.1241 29.6246C90.2538 29.9481 90.4532 30.2391 90.7082 30.4768C90.0842 30.7993 89.9576 31.5677 89.9576 33.1471V34.0514C89.9576 35.4771 89.5387 36.3994 88.8906 36.3994H88.6646V37.0688H96.3025L97.1163 33.9972L96.4712 33.8465L96.417 34.0576C96.0583 35.4139 94.5844 36.3994 92.9115 36.3994H92.8181C91.6124 36.3994 91.2598 35.8719 91.2598 34.0514V33.1471C91.2598 32.8457 91.2598 32.5655 91.2598 32.3274C91.2357 30.9891 91.2598 30.962 91.9289 30.9439H92.0073C93.7434 30.9439 93.8158 31.4683 93.8158 32.3274V32.5534H94.4728V29.3103H93.8158V29.5363C93.8158 30.0216 93.8158 30.2899 92.0073 30.2899H91.9771C91.8876 30.2974 91.7974 30.2869 91.712 30.259C91.6265 30.231 91.5476 30.1861 91.4798 30.1271C91.2326 29.8769 91.2356 29.3222 91.2387 28.7887L91.2598 28.605Z" fill="#3c4ca3"/>
<path id="Vector_32" d="M106.779 34.0514C106.408 35.4168 104.929 36.4085 103.259 36.4085H103.165C101.96 36.4085 101.607 35.8781 101.607 34.0455V28.605C101.607 27.1793 102.026 26.2599 102.677 26.2599H102.9V25.5879H99.0117V26.2599H99.2378C99.8858 26.2599 100.305 27.1793 100.305 28.605V34.0455C100.305 35.4802 99.8858 36.4085 99.2378 36.4085H99.0117V37.0626H106.65L107.475 34.0214L106.839 33.8253L106.779 34.0514Z" fill="#3c4ca3"/>
<path id="Vector_33" d="M117.142 34.0514C116.771 35.4168 115.291 36.4085 113.621 36.4085H113.528C112.322 36.4085 111.97 35.8781 111.97 34.0455V28.605C111.97 27.1793 112.389 26.2599 113.04 26.2599H113.263V25.5879H109.375V26.2599H109.601C110.249 26.2599 110.668 27.1793 110.668 28.605V34.0455C110.668 35.4802 110.249 36.4085 109.601 36.4085H109.375V37.0626H117.012L117.838 34.0214L117.205 33.8253L117.142 34.0514Z" fill="#3c4ca3"/>
<path id="Vector_34" d="M125.645 26.259H125.868C126.673 26.259 127.252 26.2591 127.252 28.6041V33.5351C126.676 32.3144 125.793 31.5429 124.934 30.7923C123.879 29.867 122.881 28.9837 122.498 27.3319V27.299C122.414 26.8589 122.441 26.5364 122.58 26.3706C122.644 26.3052 122.723 26.2555 122.81 26.2252C122.896 26.1949 122.989 26.1848 123.08 26.1957H123.306V25.5234H119.418V26.1957H119.641C120.446 26.1957 121.025 26.1958 121.025 28.5408V34.0446C121.025 36.4077 120.446 36.4077 119.641 36.4077H119.418V37.0617H123.306V36.4077H123.08C122.278 36.4077 121.697 36.4077 121.697 34.0446V28.9718C122.257 30.1021 123.101 30.8316 123.921 31.5429C125.067 32.5346 126.149 33.469 126.501 35.4342C126.537 35.5686 126.545 35.7087 126.524 35.846C126.503 35.9834 126.454 36.115 126.381 36.2328C126.314 36.2975 126.233 36.3466 126.145 36.3768C126.057 36.407 125.964 36.4176 125.871 36.4077H125.648V37.0617H129.524V36.4077H129.298C128.515 36.4077 127.9 36.4077 127.9 34.0446V28.6041C127.9 26.2591 128.485 26.259 129.298 26.259H129.524V25.587H125.636L125.645 26.259Z" fill="#3c4ca3"/>
<path id="Vector_35" d="M134.839 28.605C134.839 27.1703 135.258 26.2449 135.906 26.2449H136.49C138.163 26.2449 139.637 27.2274 139.993 28.5838L140.05 28.7948L140.695 28.6471L139.878 25.5879H132.237V26.2449H132.46C133.099 26.2449 133.53 27.1914 133.53 28.605C133.51 28.953 133.567 29.3011 133.697 29.6246C133.827 29.9481 134.026 30.2391 134.281 30.4768C133.657 30.7993 133.53 31.5677 133.53 33.1471V34.0514C133.53 35.4771 133.111 36.3994 132.46 36.3994H132.237V37.0688H139.872L140.686 33.9972L140.044 33.8465L139.987 34.0576C139.631 35.4139 138.157 36.3994 136.484 36.3994H136.388C135.182 36.3994 134.832 35.8719 134.832 34.0514V33.1471C134.832 32.8457 134.832 32.5655 134.832 32.3274C134.808 30.9891 134.832 30.962 135.499 30.9439H135.577C137.313 30.9439 137.404 31.4683 137.404 32.3274V32.5534H138.058V29.3103H137.404V29.5363C137.404 30.0216 137.404 30.2899 135.595 30.2899H135.562C135.472 30.2974 135.382 30.2869 135.297 30.259C135.211 30.231 135.132 30.1861 135.065 30.1271C134.817 29.8769 134.82 29.3222 134.823 28.7887L134.839 28.605Z" fill="#3c4ca3"/>
<path id="Vector_36" d="M147.29 30.2665C145.888 29.8445 144.577 29.4437 144.276 27.9517C144.208 27.6917 144.2 27.4197 144.252 27.1561C144.305 26.8925 144.416 26.644 144.577 26.4293C144.948 25.9802 145.593 25.7423 146.449 25.7423C148.402 25.7423 149.132 27.2946 149.548 28.6449L149.608 28.8439L150.241 28.6991L149.309 24.9014L148.758 25.07L148.725 25.1907C148.698 25.3007 148.662 25.4086 148.619 25.5133L148.453 25.4497C147.821 25.1796 147.137 25.051 146.449 25.073C146.004 25.0608 145.561 25.1385 145.147 25.3011C144.733 25.4637 144.356 25.7081 144.038 26.0196C143.747 26.3311 143.524 26.6989 143.381 27.1002C143.239 27.5014 143.18 27.9278 143.209 28.3526C143.29 30.2425 144.276 31.0654 145.475 31.5808C145.033 31.7134 144.632 31.9555 144.308 32.2849C143.985 32.6142 143.75 33.0201 143.625 33.4646V33.4888V33.555L143.344 35.0197L142.971 37.0937L143.622 37.1932L143.661 36.9789C143.772 36.3761 143.92 36.3761 144.011 36.3761C144.245 36.4068 144.473 36.471 144.689 36.5662C145.445 36.8726 146.251 37.0351 147.067 37.0454C147.541 37.0656 148.014 36.9889 148.458 36.8205C148.901 36.6521 149.306 36.3955 149.647 36.0658C149.979 35.7008 150.234 35.272 150.395 34.8057C150.557 34.3394 150.622 33.8454 150.587 33.3531C150.503 31.2462 148.869 30.7548 147.29 30.2665ZM144.427 33.2112C144.705 32.7765 145.111 32.4387 145.589 32.2434C146.067 32.0481 146.594 32.0052 147.097 32.1203C148.387 32.5061 149.364 32.922 149.207 34.4713C149.083 35.7011 148.303 36.3822 147.019 36.3822C146.538 36.3882 146.064 36.2707 145.642 36.0411C145.22 35.8115 144.864 35.4778 144.607 35.0712C144.424 34.8033 144.312 34.4935 144.28 34.1705C144.248 33.8475 144.299 33.5216 144.427 33.2233V33.2112Z" fill="#3c4ca3"/>
<path id="Vector_37" d="M157.592 30.2665C156.191 29.8445 154.879 29.4437 154.578 27.9517C154.51 27.6917 154.502 27.4197 154.555 27.1561C154.607 26.8925 154.718 26.644 154.879 26.4293C155.25 25.9802 155.895 25.7423 156.751 25.7423C158.704 25.7423 159.434 27.2946 159.85 28.6449L159.91 28.8439L160.543 28.6991L159.612 24.9014L159.06 25.07L159.027 25.1907C159 25.3007 158.965 25.4086 158.921 25.5133L158.756 25.4497C158.123 25.1796 157.439 25.051 156.751 25.073C156.306 25.0608 155.864 25.1385 155.449 25.3011C155.035 25.4637 154.658 25.7081 154.34 26.0196C154.05 26.3311 153.826 26.6989 153.684 27.1002C153.541 27.5014 153.482 27.9278 153.511 28.3526C153.592 30.2425 154.578 31.0654 155.778 31.5808C155.335 31.7134 154.934 31.9555 154.61 32.2849C154.287 32.6142 154.052 33.0201 153.927 33.4646V33.4888V33.555L153.647 35.0197L153.273 37.0937L153.924 37.1932L153.963 36.9789C154.075 36.3761 154.222 36.3761 154.313 36.3761C154.547 36.4068 154.775 36.471 154.991 36.5662C155.747 36.8726 156.554 37.0351 157.369 37.0454C157.843 37.0656 158.316 36.9889 158.76 36.8205C159.203 36.6521 159.608 36.3955 159.949 36.0658C160.281 35.7008 160.536 35.272 160.698 34.8057C160.859 34.3394 160.925 33.8454 160.89 33.3531C160.805 31.2462 159.172 30.7548 157.592 30.2665ZM154.729 33.2112C155.007 32.7765 155.413 32.4387 155.891 32.2434C156.369 32.0481 156.896 32.0052 157.399 32.1203C158.689 32.5061 159.666 32.922 159.509 34.4713C159.386 35.7011 158.605 36.3822 157.321 36.3822C156.84 36.3882 156.366 36.2707 155.944 36.0411C155.522 35.8115 155.166 35.4778 154.91 35.0712C154.726 34.8033 154.614 34.4935 154.582 34.1705C154.551 33.8475 154.601 33.5216 154.729 33.2233V33.2112Z" fill="#3c4ca3"/>
<path id="Vector_38" d="M171.864 25.1416C171.71 25.1416 171.563 25.1416 171.394 25.1416H167.602V25.8348H167.834C168.506 25.8348 168.94 26.7905 168.94 28.2644V33.9006C168.94 35.3866 168.506 36.3452 167.834 36.3452H167.602V37.0234H171.629V36.3452H171.394C170.734 36.3452 170.288 35.3625 170.288 33.9006V32.8548C170.288 32.3454 171.397 31.9506 172.467 31.5588C174.131 30.9559 176.201 30.2113 176.201 28.4601C176.201 26.95 175.448 25.1416 171.864 25.1416ZM170.288 28.2764C170.288 26.8025 170.722 25.8469 171.394 25.8469C173.609 25.8469 174.64 26.6818 174.64 28.4722C174.64 29.5663 173.263 30.2294 171.927 30.8835C171.354 31.1349 170.804 31.4375 170.285 31.7878L170.288 28.2764Z" fill="#3c4ca3"/>
<path id="Vector_39" d="M184.683 34.0127L181.307 25.1875L180.337 25.745L179.607 26.1759L179.909 26.6855L180.054 26.6672H180.123C180.222 26.6672 180.249 26.6975 180.259 26.7096C180.268 26.7216 180.367 26.8965 180.298 27.3757C180.051 28.494 179.092 29.8443 178.263 31.0318C177.962 31.4508 177.69 31.8457 177.455 32.2104C176.551 33.6723 176.358 35.1099 176.94 36.1589C177.108 36.4784 177.359 36.7467 177.666 36.9351C177.974 37.1235 178.327 37.2249 178.688 37.2288C178.993 37.228 179.293 37.1603 179.568 37.0301C180.647 36.5418 180.834 35.2215 181.003 34.046C181.172 32.8705 181.304 32.1831 181.862 32.1289H181.913C182.335 32.1289 182.76 32.6234 183.119 33.5156L183.357 34.1667C183.93 35.6436 183.707 36.15 183.625 36.2766C183.596 36.3187 183.557 36.3525 183.511 36.3752C183.465 36.3979 183.414 36.4085 183.363 36.4061H183.137V37.0752H186.474V36.4061H186.248C185.654 36.3941 185.331 35.6916 184.683 34.0127ZM178.86 31.3391C179.674 30.1757 180.572 28.8917 180.889 27.7222L182.356 31.5473C182.213 31.4887 182.059 31.459 181.904 31.4598H181.802C180.699 31.5744 180.46 32.5659 180.228 33.5244C180.026 34.3533 179.818 35.2125 179.065 35.5652C178.884 35.6513 178.687 35.6985 178.486 35.7038C178.312 35.7045 178.142 35.6563 177.994 35.5646C177.847 35.4729 177.728 35.3415 177.651 35.1854C177.377 34.6881 177.311 33.7054 178.025 32.5781C178.257 32.1923 178.547 31.7732 178.854 31.3391H178.86Z" fill="#3c4ca3"/>
<path id="Vector_40" d="M195.706 33.2078L195.287 32.5146V32.6112C194.82 31.9842 194.41 31.6344 194.018 31.5259L194.465 31.3814C195.67 30.9925 196.936 30.5916 196.936 28.7952C196.936 27.3273 196.207 25.5791 192.716 25.5791C192.569 25.5791 192.415 25.5791 192.264 25.5791H188.602V26.2511H188.828C189.476 26.2511 189.895 27.1705 189.895 28.5962V34.0367C189.895 35.4714 189.476 36.3998 188.828 36.3998H188.602V37.0538H192.49V36.3998H192.267C191.628 36.3998 191.197 35.4503 191.197 34.0367V28.5962C191.197 27.1705 191.616 26.2511 192.267 26.2511C194.404 26.2511 195.402 27.0559 195.402 28.7861C195.402 29.9917 194.748 30.2931 193.759 30.7603C193.026 31.0593 192.354 31.4907 191.776 32.0325C191.475 32.3339 190.953 32.8553 191.417 33.3647C191.47 33.4318 191.537 33.4862 191.614 33.5242C191.691 33.5623 191.775 33.5829 191.86 33.5846C192.198 33.5846 192.496 33.2832 192.71 33.0421L193.295 32.4393C193.355 32.3683 193.425 32.3063 193.503 32.2553C193.699 32.2884 194.338 33.4248 194.612 33.9131L195.067 34.6699C195.776 35.8755 195.743 36.2098 195.697 36.3003C195.697 36.3183 195.658 36.3757 195.435 36.3968H194.676V37.0509H198.564V36.448L198.404 36.3998C198.006 36.2943 196.894 35.2152 195.706 33.2078ZM192.692 32.1408L192.671 32.1649C192.621 32.2162 192.562 32.2581 192.496 32.2885C192.566 32.2343 192.629 32.186 192.695 32.1408H192.692Z" fill="#3c4ca3"/>
<path id="Vector_41" d="M210.439 36.4183C210.063 36.3068 208.993 35.3361 207.727 33.2081L207.365 32.5903C206.461 31.0832 205.774 30.4021 205.122 30.4021C204.944 30.414 204.77 30.4655 204.613 30.5531C204.457 30.6407 204.322 30.762 204.218 30.9084L204.061 31.062C204.008 31.116 203.946 31.1609 203.878 31.1948C203.902 31.147 203.933 31.1033 203.971 31.0653L207.142 27.7497C207.805 27.0534 208.7 26.2426 209.722 26.2426H209.948V25.5703H206.06V26.2426H206.286C207.018 26.2426 207.121 26.3932 207.133 26.4233C207.145 26.4535 207.199 26.7248 206.373 27.5657L203.163 30.9325C203.056 31.0359 202.956 31.1456 202.862 31.261V28.5874C202.862 27.1617 203.281 26.2426 203.932 26.2426H204.155V25.5703H200.267V26.2426H200.493C201.141 26.2426 201.56 27.1617 201.56 28.5874V34.0282C201.56 35.4629 201.141 36.3913 200.493 36.3913H200.267V37.0453H204.155V36.3913H203.932C203.293 36.3913 202.862 35.4418 202.862 34.0282V32.301C202.968 32.4093 203.114 32.4712 203.266 32.4729C203.567 32.4729 203.838 32.2167 204.073 31.9936L204.125 31.9454L204.691 31.3425C204.743 31.2913 204.863 31.1646 204.905 31.1586C205.104 31.1797 205.758 32.3643 206.009 32.8013L206.467 33.5728C207.585 35.4567 207.404 36.0747 207.323 36.2194C207.299 36.2616 207.226 36.388 206.958 36.388H206.735V37.0424H210.605V36.4395L210.439 36.4183Z" fill="#3c4ca3"/>
</g>
</g>
</svg>