<svg data-v-28cfac74="" xmlns="http://www.w3.org/2000/svg" xmlns:xlink="http://www.w3.org/1999/xlink" width="313.784" height="225.147" viewBox="0 0 313.784 225.147"><defs><clipPath id="clip-path"><path id="Path_20832" data-name="Path 20832" d="M412.781,1774.849a195.142,195.142,0,0,0-7.527,28.336,107.931,107.931,0,0,1,89.55-.684,113,113,0,0,1,29.375,19.011,121.752,121.752,0,0,1,26.5,33.9,126.59,126.59,0,0,1,11.435,30.309,128.327,128.327,0,0,1,11.458-30.379c-25.631-53.624-75.064-85.659-125.9-85.663a120.166,120.166,0,0,0-34.885,5.172" transform="translate(-405.254 -1769.677)" fill="#fff"></path></clipPath> <clipPath id="clip-path-2"><path id="Path_20833" data-name="Path 20833" d="M428.87,1747.8c63.922-5.06,127.6,29.49,163.338,93.357a112.044,112.044,0,0,1,29.391-18.994c-35.19-63.977-93.857-103.623-156.661-111.592A168.118,168.118,0,0,0,428.87,1747.8" transform="translate(-428.87 -1710.569)" fill="none"></path></clipPath> <clipPath id="clip-path-3"><path id="Path_20834" data-name="Path 20834" d="M514.34,1855.411a126.576,126.576,0,0,1,11.434,30.307c12.579-53.206,57.633-92.6,111.311-92.6a107.5,107.5,0,0,1,45.616,10.134,189.849,189.849,0,0,0-7.513-28.4,120.091,120.091,0,0,0-34.915-5.176c-50.865-.005-100.314,32.071-125.933,85.74" transform="translate(-514.34 -1769.67)" fill="#fff"></path></clipPath> <clipPath id="clip-path-4"><path id="Path_20835" data-name="Path 20835" d="M472.429,1822.189a113.11,113.11,0,0,1,29.375,19c35.766-63.9,99.4-98.454,163.387-93.4a167.866,167.866,0,0,0-36.1-37.225c-62.784,7.966-121.461,47.611-156.66,111.617" transform="translate(-472.429 -1710.572)" fill="#fff"></path></clipPath></defs> <g id="Logo" transform="translate(-3919.435 -449.792)"><path id="Path_20831" data-name="Path 20831" d="M526.2,1856.91a94.122,94.122,0,0,0-13.04,14.954,74.509,74.509,0,0,1,13.036,15.11h.006a74.9,74.9,0,0,1,13.051-15.11A93.071,93.071,0,0,0,526.2,1856.91" transform="translate(3550.125 -1212.036)" fill="#fff"></path> <g id="Group_6434" data-name="Group 6434" transform="translate(3919.435 528.587)"><g id="Group_6433" data-name="Group 6433" transform="translate(0 0)" clip-path="url(#clip-path)"><rect id="Rectangle_393" data-name="Rectangle 393" width="186.694" height="204.115" transform="translate(-51.576 84.592) rotate(-58.629)" fill="#fff"></rect></g></g> <g id="Group_6436" data-name="Group 6436" transform="translate(3950.917 449.792)"><g id="Group_6435" data-name="Group 6435" transform="translate(0)" clip-path="url(#clip-path-2)"><rect id="Rectangle_394" data-name="Rectangle 394" width="219.965" height="232.554" transform="matrix(0.599, -0.801, 0.801, 0.599, -62.613, 83.806)" fill="#fff"></rect></g></g> <g id="Group_6438" data-name="Group 6438" transform="translate(4064.858 528.576)"><g id="Group_6437" data-name="Group 6437" clip-path="url(#clip-path-3)"><rect id="Rectangle_395" data-name="Rectangle 395" width="168.362" height="116.053" transform="translate(0 -0.005)" fill="#fff"></rect></g></g> <g id="Group_6440" data-name="Group 6440" transform="translate(4008.988 449.792)"><g id="Group_6439" data-name="Group 6439" clip-path="url(#clip-path-4)"><rect id="Rectangle_396" data-name="Rectangle 396" width="192.762" height="130.623" transform="translate(0)" fill="#fff"></rect></g></g></g></svg>